<svg width="33" height="33" viewBox="0 0 33 33" fill="none" xmlns="http://www.w3.org/2000/svg">
<g clip-path="url(#clip0_218_108910)">
<path d="M11.1664 32.0886C14.1104 32.0886 16.4998 29.6993 16.4998 26.7553V21.4219H11.1664C8.2224 21.4219 5.83301 23.8113 5.83301 26.7553C5.83301 29.6993 8.2224 32.0886 11.1664 32.0886Z" fill="#0ACF83"/>
<path d="M5.83301 16.0883C5.83301 13.1443 8.2224 10.7549 11.1664 10.7549H16.4998V21.4215H11.1664C8.2224 21.4216 5.83301 19.0323 5.83301 16.0883Z" fill="#A259FF"/>
<path d="M5.83301 5.42175C5.83301 2.47775 8.2224 0.0883789 11.1664 0.0883789H16.4998V10.755H11.1664C8.2224 10.755 5.83301 8.36575 5.83301 5.42175Z" fill="#F24E1E"/>
<path d="M16.5 0.0883789H21.8334C24.7774 0.0883789 27.1668 2.47775 27.1668 5.42175C27.1668 8.36575 24.7774 10.755 21.8334 10.755H16.5V0.0883789Z" fill="#FF7262"/>
<path d="M27.1668 16.0883C27.1668 19.0323 24.7774 21.4216 21.8334 21.4216C18.8894 21.4216 16.5 19.0323 16.5 16.0883C16.5 13.1443 18.8894 10.7549 21.8334 10.7549C24.7774 10.7549 27.1668 13.1443 27.1668 16.0883Z" fill="#1ABCFE"/>
</g>
<defs>
<clipPath id="clip0_218_108910">
<rect width="32" height="32" fill="white" transform="translate(0.5 0.0883789)"/>
</clipPath>
</defs>
</svg>
