<svg width="33" height="33" viewBox="0 0 33 33" fill="none" xmlns="http://www.w3.org/2000/svg">
<path d="M32.4977 8.95174C32.4959 8.62991 32.4923 8.30825 32.4834 7.98604C32.4647 7.28517 32.4232 6.57794 32.2987 5.88455C32.1723 5.18039 31.9656 4.52564 31.64 3.88597C31.3203 3.25778 30.9024 2.68293 30.4039 2.18443C29.9055 1.68593 29.3307 1.26809 28.7022 0.948254C28.0631 0.622979 27.4082 0.416402 26.7047 0.289999C26.0109 0.165051 25.3037 0.123886 24.6023 0.10492C24.2802 0.0961915 23.9585 0.0925277 23.6366 0.0905341C23.2545 0.0883789 22.8721 0.0883789 22.4901 0.0883789H14.0192H10.51C10.1276 0.0883789 9.74561 0.0883789 9.3636 0.090588C9.04155 0.0925816 8.71946 0.0962454 8.3979 0.104974C8.22257 0.109715 8.04687 0.115858 7.87106 0.124317C7.34368 0.149749 6.81549 0.196355 6.29544 0.290053C5.76779 0.384882 5.26746 0.524755 4.7807 0.725998C4.61847 0.793025 4.45769 0.866949 4.29788 0.948254C3.82653 1.18813 3.38526 1.48312 2.9839 1.82591C2.85012 1.94019 2.72075 2.05975 2.59618 2.18438C2.09757 2.68288 1.67968 3.25772 1.36 3.88592C1.03435 4.52558 0.82799 5.18033 0.701479 5.8845C0.577015 6.57788 0.535635 7.28511 0.516777 7.98599C0.507941 8.30819 0.504223 8.62986 0.502122 8.95168C0.499697 9.33391 0.500021 9.71619 0.500021 10.0983V15.3149V22.0783C0.500021 22.4608 0.499643 22.8427 0.502122 23.2252C0.504223 23.547 0.507941 23.8687 0.516777 24.1903C0.535635 24.8916 0.576962 25.599 0.701479 26.292C0.82799 26.996 1.03435 27.6513 1.36 28.2908C1.67968 28.9192 2.09757 29.4939 2.59618 29.9921C3.09441 30.4909 3.66942 30.9087 4.29793 31.2287C4.93712 31.554 5.59192 31.7603 6.2956 31.8867C6.98893 32.0115 7.6967 32.053 8.39795 32.0718C8.71951 32.0803 9.04161 32.0842 9.36365 32.086C9.74566 32.0887 10.1276 32.0884 10.51 32.0884H22.4901C22.8721 32.0884 23.2545 32.0887 23.6365 32.086C23.9585 32.0842 24.2802 32.0803 24.6022 32.0718C25.3036 32.053 26.0109 32.0115 26.7046 31.8867C27.4082 31.7603 28.063 31.554 28.7021 31.2287C29.3306 30.9087 29.9055 30.4909 30.4038 29.9921C30.9023 29.4938 31.3203 28.9192 31.6399 28.2908C31.9656 27.6513 32.1722 26.996 32.2986 26.292C32.4232 25.599 32.4646 24.8916 32.4834 24.1903C32.4922 23.8687 32.4957 23.547 32.4977 23.2252C32.5002 22.8427 32.5 22.4608 32.5 22.0783V10.0983C32.5 9.71619 32.5002 9.33391 32.4977 8.95174Z" fill="#F05138"/>
<path d="M25.8562 19.8411C25.8555 19.8401 25.8548 19.8394 25.854 19.8385C25.8894 19.7181 25.9259 19.5983 25.9569 19.4748C27.285 14.1833 24.0435 7.92727 18.5582 4.6333C20.962 7.89193 22.0249 11.8389 21.0805 15.2906C20.9963 15.5984 20.8951 15.8939 20.7832 16.1811C20.6617 16.1013 20.5087 16.0107 20.3032 15.8974C20.3032 15.8974 14.8468 12.5284 8.93297 6.56954C8.77779 6.41313 12.0865 11.2986 15.8414 15.2658C14.0723 14.2729 9.14208 10.6857 6.0209 7.82905C6.40437 8.46855 6.86046 9.08435 7.36182 9.6772C9.96828 12.9827 13.3674 17.0612 17.4397 20.193C14.5785 21.944 10.5355 22.0801 6.51002 20.1948C5.51437 19.7282 4.57836 19.1652 3.71191 18.5255C5.41588 21.2511 8.04022 23.6026 11.2343 24.9754C15.0434 26.6124 18.8312 26.5014 21.6524 25.0023L21.6502 25.0055C21.663 24.9974 21.6794 24.9885 21.6928 24.9802C21.8086 24.9179 21.9236 24.8545 22.0361 24.7875C23.3915 24.084 26.0688 23.3702 27.5059 26.1662C27.8578 26.8505 28.6057 23.2242 25.8562 19.8411Z" fill="white"/>
</svg>
