<svg width="32" height="20" viewBox="0 0 32 20" fill="none" xmlns="http://www.w3.org/2000/svg">
<path fill-rule="evenodd" clip-rule="evenodd" d="M16 0.0883789C11.7333 0.0883789 9.06667 2.22171 8 6.48838C9.6 4.35505 11.4667 3.55505 13.6 4.08838C14.8172 4.39238 15.6871 5.27593 16.6501 6.25312C18.2187 7.84542 20.0344 9.68838 24 9.68838C28.2667 9.68838 30.9333 7.55505 32 3.28838C30.4 5.42171 28.5333 6.22171 26.4 5.68838C25.1828 5.38438 24.3129 4.50082 23.3499 3.52364C21.7813 1.93134 19.9656 0.0883789 16 0.0883789ZM8 9.68838C3.73333 9.68838 1.06667 11.8217 0 16.0884C1.6 13.955 3.46667 13.155 5.6 13.6884C6.81718 13.993 7.68711 14.8759 8.65007 15.8531C10.2187 17.4454 12.0344 19.2884 16 19.2884C20.2667 19.2884 22.9333 17.155 24 12.8884C22.4 15.0217 20.5333 15.8217 18.4 15.2884C17.1828 14.9844 16.3129 14.1008 15.3499 13.1236C13.7813 11.5313 11.9656 9.68838 8 9.68838Z" fill="#38BDF8"/>
</svg>
