<svg width="1377" height="441" viewBox="0 0 1377 441" fill="none" xmlns="http://www.w3.org/2000/svg">
<path d="M387.176 320.15C388.811 328.87 390.855 335.954 393.307 341.404C395.759 346.581 397.258 350.804 397.803 354.074C396.985 357.616 394.942 360.205 391.672 361.84C387.312 362.657 383.77 361.567 381.045 358.57C379.683 356.118 378.048 349.578 376.141 338.952C375.868 337.862 375.596 335.818 375.323 332.821C375.051 329.823 374.642 327.507 374.097 325.872C374.097 325.327 373.961 323.011 373.688 318.924C372.871 308.842 372.326 302.984 372.053 301.349C371.781 300.259 371.645 297.671 371.645 293.584C371.645 278.052 371.645 259.387 371.645 237.589C371.645 236.226 371.781 234.455 372.053 232.275C372.053 231.731 372.053 231.186 372.053 230.641C372.326 229.823 372.462 229.278 372.462 229.006C372.462 228.461 372.326 227.78 372.053 226.962C370.963 227.235 370.419 227.371 370.419 227.371C368.784 229.551 367.557 231.458 366.74 233.093C356.113 252.439 344.533 270.968 331.999 288.679C327.367 295.218 321.1 303.529 313.198 313.611C311.563 315.518 308.021 319.333 302.571 325.055C298.756 328.597 294.669 331.05 290.309 332.412H284.179C280.909 331.05 278.184 328.597 276.004 325.055C274.642 321.24 273.824 318.924 273.552 318.107C272.462 310.205 271.781 305.981 271.508 305.436C271.236 302.167 271.099 299.578 271.099 297.671C271.099 288.951 271.099 276.962 271.099 261.703C271.099 259.251 271.236 257.48 271.508 256.39C272.053 253.665 272.598 246.581 273.143 235.137C273.143 235.137 272.871 234.455 272.326 233.093C271.236 233.365 270.146 234.319 269.056 235.954C266.331 239.496 260.609 247.262 251.89 259.251C237.721 279.142 221.372 297.807 202.843 315.246C193.306 324.51 186.631 330.505 182.816 333.229C181.998 333.774 178.456 336.227 172.189 340.586C171.644 340.859 168.783 341.949 163.606 343.856H157.066C154.887 343.039 153.797 342.494 153.797 342.221C149.982 340.859 147.121 338.134 145.214 334.047C144.941 333.774 143.715 331.186 141.535 326.281C140.718 317.289 140.718 302.984 141.535 283.366C142.353 280.913 142.897 276.962 143.17 271.513C143.715 266.063 144.396 261.976 145.214 259.251C145.486 256.526 146.44 250.259 148.075 240.45C148.347 238.27 148.892 234.319 149.709 228.597C150.527 222.875 151.208 218.379 151.753 215.109C152.298 212.929 152.843 209.523 153.388 204.891C153.933 199.987 154.342 196.444 154.614 194.264C155.159 192.085 155.704 188.406 156.249 183.229C157.066 178.052 157.748 174.101 158.293 171.376C158.565 169.469 158.838 167.153 159.11 164.428C159.11 163.61 159.383 158.57 159.928 149.305C160.745 146.58 161.29 145.082 161.562 144.809C163.742 140.177 167.284 137.997 172.189 138.27C172.189 138.27 173.824 138.406 177.094 138.679C179.819 140.313 181.726 142.221 182.816 144.401C183.361 145.763 183.633 146.58 183.633 146.853C184.723 152.847 184.451 159.115 182.816 165.654C182.543 167.016 182.135 169.877 181.59 174.237C181.045 178.597 180.364 181.867 179.546 184.046C179.274 186.499 178.865 189.087 178.32 191.812C178.047 194.537 177.502 197.534 176.685 200.804C176.14 203.801 175.731 206.254 175.459 208.161C173.279 220.15 171.78 228.188 170.963 232.275C170.418 234.728 169.737 238.27 168.919 242.902C168.374 247.534 168.102 250.259 168.102 251.077C167.829 252.711 167.421 254.755 166.876 257.207C166.331 259.66 165.922 262.112 165.65 264.564C165.377 266.744 165.105 268.788 164.832 270.695C162.38 286.499 161.154 294.946 161.154 296.036C161.154 300.123 160.881 303.393 160.336 305.845C159.519 310.477 160.064 315.246 161.971 320.15C161.971 320.15 162.244 320.423 162.789 320.968C164.968 319.06 166.195 318.107 166.467 318.107C178.456 306.663 189.219 295.355 198.756 284.183C212.38 268.652 228.729 246.581 247.802 217.97C259.792 199.987 270.282 185.136 279.274 173.42C279.546 173.147 281.999 169.469 286.631 162.384C287.176 161.839 288.129 161.294 289.492 160.749C290.854 159.932 291.808 159.251 292.353 158.706H299.301C302.571 160.068 304.887 162.248 306.249 165.245C307.339 168.788 307.339 173.42 306.249 179.142C302.98 185.409 301.209 188.815 300.936 189.36C300.664 189.905 298.347 193.447 293.988 199.987C291.535 210.613 289.628 219.878 288.266 227.78C287.993 229.959 287.585 233.502 287.04 238.406C286.767 243.038 286.358 246.581 285.813 249.033C284.996 254.21 284.451 261.976 284.179 272.33C283.634 285.137 283.634 295.9 284.179 304.619C284.451 306.526 284.86 308.297 285.405 309.932C285.405 309.932 286.086 310.614 287.448 311.976C292.08 306.254 298.892 296.445 307.884 282.548C317.149 267.834 324.369 256.117 329.546 247.398C339.628 229.687 347.666 214.973 353.661 203.256C355.841 198.897 358.974 192.63 363.062 184.455C367.149 176.008 369.874 170.695 371.236 168.515C373.143 164.7 374.233 162.384 374.506 161.567C377.503 156.935 380.773 153.937 384.315 152.575H390.037C393.307 155.027 394.942 156.39 394.942 156.662C397.394 159.115 398.212 162.248 397.394 166.063C397.122 168.243 396.577 170.286 395.759 172.194C392.217 181.185 389.901 191.267 388.811 202.439C388.811 203.801 388.402 205.981 387.585 208.978C387.04 211.703 386.767 214.019 386.767 215.927C386.767 220.014 386.359 223.965 385.541 227.78C385.269 228.597 384.996 230.913 384.724 234.728C384.179 252.439 384.043 270.968 384.315 290.314C384.588 300.941 385.541 310.886 387.176 320.15ZM550.578 233.502C551.123 235.409 551.804 237.725 552.622 240.45C552.349 241.267 552.077 242.357 551.804 243.72C551.532 245.082 551.259 246.036 550.987 246.581C548.807 250.94 544.992 253.665 539.543 254.755C538.18 254.483 536.818 254.21 535.455 253.938C534.365 253.393 533.139 252.848 531.777 252.303C530.687 251.758 529.733 251.349 528.916 251.077C525.919 250.804 523.739 251.622 522.376 253.529C522.104 254.346 521.968 254.755 521.968 254.755C522.24 259.932 522.513 262.793 522.785 263.338C525.782 274.51 527.69 281.322 528.507 283.774C530.414 288.406 532.049 291.812 533.412 293.992C535.592 296.99 536.954 300.123 537.499 303.393C536.682 308.57 534.229 312.248 530.142 314.428C527.962 315.246 525.374 315.382 522.376 314.837C518.289 313.202 515.564 310.341 514.202 306.254C511.75 298.897 510.115 293.584 509.297 290.314C506.3 276.69 504.529 268.243 503.984 264.973C503.984 263.883 503.439 261.84 502.349 258.842C502.077 258.842 501.395 258.297 500.305 257.207C481.777 261.567 467.199 265.518 456.572 269.06C455.755 270.968 455.346 272.058 455.346 272.33C455.074 273.148 454.937 274.374 454.937 276.009C454.937 277.371 454.801 278.597 454.529 279.687C454.529 280.504 454.392 281.594 454.12 282.957C454.12 284.319 453.984 285.545 453.711 286.635C453.439 302.712 453.711 312.657 454.529 316.472C454.801 318.652 454.937 320.968 454.937 323.42C454.937 330.232 456.164 337.862 458.616 346.308C459.706 350.123 459.978 353.802 459.433 357.344C458.343 361.159 455.482 364.156 450.85 366.336H444.311C439.951 364.428 436.954 360.75 435.319 355.3C435.319 353.393 434.91 349.714 434.093 344.265C433.548 338.815 433.411 334.592 433.684 331.595C433.684 325.872 433.82 322.194 434.093 320.559C434.365 320.014 434.501 317.834 434.501 314.02C434.501 312.112 434.501 309.251 434.501 305.436C434.774 301.622 434.91 298.897 434.91 297.262C435.183 292.085 435.319 288.815 435.319 287.453C435.591 286.908 436 284.047 436.545 278.87C435.728 278.052 433.82 277.643 430.823 277.643C430.55 277.643 428.916 277.507 425.918 277.235C424.283 276.417 423.466 276.009 423.466 276.009C415.837 270.286 415.564 264.019 422.649 257.207C422.649 257.207 423.466 256.662 425.101 255.573C429.733 254.21 433.684 252.984 436.954 251.894C438.589 251.077 439.406 249.85 439.406 248.216C439.406 246.308 439.542 244.265 439.815 242.085C440.36 239.905 440.768 237.998 441.041 236.363C441.313 234.455 441.586 232.412 441.858 230.232C442.131 227.78 442.267 225.6 442.267 223.692C442.812 221.785 443.221 219.605 443.493 217.153C443.766 214.428 444.038 211.703 444.311 208.978C444.583 206.254 445.128 203.938 445.946 202.03C445.946 199.305 446.354 195.627 447.172 190.995C447.989 186.09 448.534 183.093 448.807 182.003C450.169 172.194 451.668 163.065 453.303 154.619C453.848 152.711 454.801 148.624 456.164 142.357C457.526 135.817 458.616 130.913 459.433 127.643C463.248 111.567 466.245 100.395 468.425 94.128C468.425 93.8555 469.515 89.9045 471.695 82.2751C475.51 76.2805 478.643 72.3295 481.096 70.4222C484.91 69.3323 487.226 68.5148 488.044 67.9699C489.951 68.2423 491.45 68.5148 492.54 68.7873C493.357 68.5148 494.583 67.9699 496.218 67.1524C497.853 66.335 499.079 65.79 499.897 65.5175H508.071C512.431 67.4249 515.564 70.9671 517.472 76.1443C518.017 82.6838 517.744 89.9045 516.654 97.8065C516.109 101.349 515.837 105.027 515.837 108.842C514.747 142.629 514.611 174.646 515.428 204.891C515.701 211.158 516.246 215.927 517.063 219.196C517.063 219.741 517.335 223.965 517.88 231.867C520.605 232.412 522.649 232.548 524.011 232.275C525.646 231.731 529.87 230.368 536.682 228.188C538.861 228.188 540.088 228.188 540.36 228.188C540.632 228.188 542.267 228.325 545.265 228.597C548.534 231.594 550.306 233.229 550.578 233.502ZM498.671 237.18C499.76 235.273 499.897 232.412 499.079 228.597C498.534 225.872 497.989 220.286 497.444 211.839C497.172 206.662 496.899 203.393 496.627 202.03C496.082 199.578 495.809 196.308 495.809 192.221C495.537 190.041 495.265 186.771 494.992 182.412C494.992 177.779 494.992 174.373 494.992 172.194C494.72 168.106 494.583 165.518 494.583 164.428C494.038 161.976 493.63 158.297 493.357 153.392C493.357 148.488 493.357 141.131 493.357 131.322C493.357 121.24 493.357 113.747 493.357 108.842C493.357 105.3 493.085 103.12 492.54 102.302C491.45 101.757 490.632 102.03 490.087 103.12C488.453 106.39 487.226 109.114 486.409 111.294C482.322 123.011 478.371 136.907 474.556 152.984C470.196 171.785 466.518 189.087 463.521 204.891C463.248 207.344 462.839 210.205 462.294 213.474C461.749 216.472 461.204 219.333 460.66 222.057C460.387 224.51 459.978 227.371 459.433 230.641C458.888 233.638 458.343 236.363 457.798 238.815C457.798 239.087 457.798 240.859 457.798 244.128C458.071 244.673 458.48 245.355 459.025 246.172C461.204 246.444 464.066 246.172 467.608 245.355C471.422 244.265 474.011 243.72 475.373 243.72C477.281 243.175 479.597 242.63 482.322 242.085C485.319 241.267 488.18 240.586 490.905 240.041C493.63 239.496 495.946 238.815 497.853 237.998C497.853 237.998 498.126 237.725 498.671 237.18ZM771.134 56.117C772.224 61.2941 769.908 65.5175 764.186 68.7873C760.916 69.8772 755.875 70.9671 749.063 72.0571C742.523 73.147 738.572 73.8282 737.21 74.1007C733.668 74.9181 728.354 76.008 721.27 77.3704C714.185 78.4604 708.872 79.414 705.33 80.2315C691.433 82.9563 682.441 84.7274 678.354 85.5448C675.629 86.0898 673.586 87.1797 672.223 88.8146C672.223 89.632 671.951 90.9944 671.406 92.9018C671.133 94.8092 670.997 96.1716 670.997 96.989C669.09 99.4413 668.136 100.667 668.136 100.667C666.229 102.302 664.594 104.891 663.232 108.433C658.054 121.24 653.286 134.864 648.926 149.305C647.019 155.572 644.158 166.335 640.343 181.594C640.343 181.594 640.343 182.275 640.343 183.638C640.888 184.455 641.297 185 641.569 185.273C655.738 182.003 666.365 180.913 673.45 182.003C673.995 182.003 675.766 182.412 678.763 183.229C685.847 185.409 691.161 189.769 694.703 196.308C697.973 202.575 699.744 208.978 700.016 215.518C700.561 225.055 700.561 233.91 700.016 242.085C699.471 247.807 698.654 253.665 697.564 259.66C694.567 274.646 690.888 287.861 686.529 299.306C679.444 319.197 670.589 336.363 659.962 350.804C653.422 359.524 644.703 368.516 633.804 377.78C633.531 378.052 631.215 379.551 626.855 382.276C622.768 382.548 620.588 382.685 620.316 382.685C617.319 382.685 614.73 381.322 612.55 378.597C611.188 377.235 610.507 375.6 610.507 373.693C610.507 373.42 610.643 371.785 610.915 368.788C612.005 366.063 615.139 363.338 620.316 360.614C619.771 357.344 619.498 355.709 619.498 355.709C618.681 352.439 617.591 347.807 616.229 341.813C615.139 335.545 614.321 331.05 613.776 328.325C613.776 327.235 613.64 326.009 613.368 324.646C613.368 323.284 613.231 321.921 612.959 320.559C612.686 319.197 612.414 317.971 612.142 316.881C612.142 315.518 612.005 314.156 611.733 312.793C611.733 311.431 611.597 310.069 611.324 308.706C611.324 307.344 611.188 305.981 610.915 304.619C610.915 303.257 610.915 302.03 610.915 300.941C610.37 282.684 610.37 265.927 610.915 250.668C611.188 246.036 611.597 242.766 612.142 240.859C612.414 239.496 612.686 237.589 612.959 235.137C613.504 227.235 614.049 221.785 614.594 218.788C614.594 218.788 614.321 218.379 613.776 217.562C608.872 220.831 604.648 227.643 601.106 237.998C598.926 242.357 594.839 244.946 588.844 245.763C586.12 244.673 584.621 243.992 584.349 243.72C579.716 241.54 577.4 237.998 577.4 233.093C577.4 233.093 577.537 231.186 577.809 227.371C585.438 215.927 598.654 205.3 617.455 195.491C618.545 192.493 619.09 190.858 619.09 190.586C619.635 188.406 620.18 185.273 620.725 181.185C621.542 177.098 622.087 174.373 622.36 173.011C622.36 172.466 622.496 171.785 622.768 170.967C623.041 170.15 623.177 169.333 623.177 168.515C623.449 167.698 623.722 167.016 623.994 166.471C628.627 143.038 634.485 120.559 641.569 99.0326C641.842 98.7601 641.978 97.6702 641.978 95.7629C641.978 95.4904 641.433 94.9454 640.343 94.128C638.708 93.8555 636.392 94.2642 633.395 95.3541C630.398 96.1716 628.763 96.5803 628.49 96.5803C627.945 96.5803 624.267 97.3977 617.455 99.0326C616.91 99.8501 616.092 100.804 615.003 101.894C613.913 102.984 613.231 103.801 612.959 104.346C611.052 105.163 610.098 105.572 610.098 105.572C605.466 108.297 600.697 107.752 595.793 103.937C593.34 102.302 591.705 100.123 590.888 97.3977C590.343 94.4004 590.752 91.6756 592.114 89.2233C595.112 83.2288 600.016 80.504 606.828 81.0489C607.918 81.5939 609.417 82.4113 611.324 83.5012C613.231 84.3187 614.594 84.9999 615.411 85.5448C619.226 85.8173 626.31 84.7274 636.665 82.2751C667.183 74.9181 693.204 67.9699 714.73 61.4303C717.455 60.8854 721.951 59.6592 728.218 57.7519C734.485 55.572 739.254 54.0734 742.523 53.2559C743.068 52.9834 744.567 52.4385 747.019 51.621C749.744 50.8036 751.788 50.2587 753.15 49.9862C757.782 48.8963 761.869 48.76 765.412 49.5774C768.136 50.9398 770.044 53.1197 771.134 56.117ZM655.466 194.673C649.199 196.036 642.659 198.76 635.847 202.848C633.395 214.837 632.033 221.649 631.76 223.284C631.488 224.374 631.215 225.872 630.943 227.78C630.943 229.414 630.943 230.504 630.943 231.049C630.943 231.594 630.806 232.548 630.534 233.91C630.261 235.273 630.125 236.09 630.125 236.363C629.308 241.54 628.899 244.537 628.899 245.355C627.809 257.344 627.264 263.611 627.264 264.156C626.992 264.973 626.855 266.88 626.855 269.878C627.128 284.047 627.673 292.902 628.49 296.445C628.49 296.717 628.49 297.807 628.49 299.714C628.763 303.802 629.444 309.251 630.534 316.063C631.896 323.965 634.485 333.229 638.3 343.856C639.117 346.853 640.207 348.897 641.569 349.987C643.749 348.352 644.839 347.398 644.839 347.126C651.379 340.859 657.646 332.276 663.64 321.377C672.905 305.028 679.853 286.635 684.485 266.199C686.937 256.662 688.3 249.85 688.572 245.763C689.935 231.867 690.071 219.878 688.981 209.796C688.164 207.888 687.074 205.027 685.711 201.213C684.894 200.668 683.804 199.714 682.441 198.352C681.352 196.989 680.67 196.172 680.398 195.899C673.041 192.357 665.82 191.812 658.736 194.264C658.463 194.264 657.918 194.401 657.101 194.673C656.283 194.673 655.738 194.673 655.466 194.673ZM894.973 340.995C894.973 341.54 895.79 345.627 897.425 353.257C896.608 354.619 895.79 356.526 894.973 358.979C892.248 360.614 889.251 361.295 885.981 361.022C883.801 359.932 882.166 358.025 881.076 355.3C880.531 353.938 880.259 353.257 880.259 353.257C880.259 351.349 880.123 349.17 879.85 346.717C879.578 344.265 879.305 342.085 879.033 340.178C878.76 337.998 878.488 335.818 878.215 333.638C877.943 331.458 877.67 329.142 877.398 326.69C877.398 324.238 877.398 322.058 877.398 320.15C877.398 318.515 876.989 316.063 876.172 312.793C875.627 309.251 875.354 306.526 875.354 304.619C875.354 298.624 874.809 293.447 873.719 289.088C873.719 289.088 873.583 286.908 873.311 282.548C872.766 274.646 872.221 269.878 871.676 268.243C871.676 267.97 871.676 267.562 871.676 267.017C871.131 257.207 870.722 252.03 870.45 251.485C870.45 249.85 870.177 247.534 869.632 244.537C869.36 241.267 869.087 238.815 868.815 237.18C867.997 223.829 867.452 216.335 867.18 214.7C867.18 214.156 866.907 208.706 866.362 198.352C866.09 192.357 865.681 188.27 865.136 186.09C864.864 185 864.728 182.412 864.728 178.324C864.728 176.145 864.591 173.011 864.319 168.924C864.319 164.564 864.183 161.294 863.91 159.115C863.91 154.21 863.638 150.531 863.093 148.079C862.82 146.989 862.684 144.401 862.684 140.313C862.411 138.406 862.275 136.226 862.275 133.774C862.275 131.322 862.139 128.733 861.866 126.008C861.866 123.283 861.866 121.104 861.866 119.469C861.594 112.929 861.185 108.024 860.64 104.755C860.368 103.12 860.095 100.667 859.823 97.3977C859.823 93.8555 859.823 91.9481 859.823 91.6757C859.823 91.4032 859.55 90.0408 859.005 87.5885C857.371 86.771 856.281 86.9072 855.736 87.9972C853.828 90.9944 852.193 93.4468 850.831 95.3541C843.747 108.978 837.343 122.738 831.621 136.635C820.177 165.79 810.64 192.357 803.011 216.335C794.564 244.401 787.343 270.831 781.349 295.627C777.534 312.521 774.945 323.693 773.583 329.142C771.676 339.224 770.586 345.491 770.313 347.943C770.313 349.033 770.177 350.123 769.904 351.213C769.904 351.758 769.223 353.802 767.861 357.344C766.498 359.796 763.637 361.704 759.278 363.066C754.373 362.794 750.831 360.614 748.651 356.526C748.106 353.529 747.833 351.894 747.833 351.622C747.833 351.349 747.97 349.851 748.242 347.126C750.422 344.401 751.512 342.902 751.512 342.63C752.057 341.268 752.329 340.586 752.329 340.586C756.689 326.417 759.686 316.063 761.321 309.524C761.866 307.616 762.82 304.21 764.182 299.306C765.545 294.401 766.635 290.722 767.452 288.27C779.986 245.491 791.294 209.796 801.376 181.185C808.46 161.567 815.545 143.174 822.629 126.008C828.896 109.932 833.937 98.3514 837.752 91.2669C839.659 87.7247 841.839 83.91 844.292 79.8227C845.381 77.9154 847.016 75.8718 849.196 73.6919C849.469 73.4195 851.104 71.9208 854.101 69.196C857.098 68.6511 858.597 68.3786 858.597 68.3786C863.774 68.1061 867.316 70.2859 869.223 74.9181C869.223 74.9181 869.768 76.1443 870.858 78.5966C870.858 79.414 871.131 84.1824 871.676 92.9018C872.493 101.349 872.902 107.888 872.902 112.52C872.902 121.512 873.174 144.537 873.719 181.594C873.719 187.044 873.992 191.812 874.537 195.899C874.537 195.899 874.809 200.668 875.354 210.205C875.899 218.106 876.444 223.011 876.989 224.919C876.989 225.191 877.125 227.371 877.398 231.458C878.215 240.177 878.896 245.627 879.441 247.807C879.441 248.352 879.578 249.85 879.85 252.303C880.395 260.477 881.076 265.654 881.894 267.834C881.894 270.831 882.302 274.919 883.12 280.096C883.937 285.273 884.346 288.543 884.346 289.905C885.164 295.082 886.253 301.622 887.616 309.524C890.341 322.33 892.793 332.821 894.973 340.995ZM1028.24 144.809C1031.24 159.251 1032.6 168.651 1032.33 173.011C1032.33 177.098 1032.33 183.229 1032.33 191.403C1032.33 199.305 1032.19 205.3 1031.92 209.387C1031.92 210.205 1031.51 214.156 1030.69 221.24C1030.69 222.057 1030.56 223.284 1030.28 224.919C1030.01 226.553 1029.74 227.916 1029.47 229.006C1027.56 246.989 1023.34 265.109 1016.8 283.366C1012.98 294.265 1008.21 303.665 1002.49 311.567C999.767 315.109 997.179 318.107 994.726 320.559C987.369 328.461 979.195 333.093 970.203 334.456C969.93 334.456 967.887 334.864 964.072 335.682C959.712 334.592 957.396 334.047 957.124 334.047C948.132 332.139 940.911 326.826 935.462 318.107C931.375 311.567 928.513 305.709 926.879 300.532C922.246 287.998 919.794 278.733 919.522 272.739C917.614 265.654 916.797 254.21 917.069 238.406C917.342 229.959 918.023 223.42 919.113 218.788C919.385 217.153 919.658 214.156 919.93 209.796C920.475 205.164 921.293 201.621 922.383 199.169C923.473 190.45 926.606 178.188 931.783 162.384C930.966 158.842 930.421 157.071 930.148 157.071C930.148 156.798 929.876 155.436 929.331 152.984C929.603 149.441 931.102 145.627 933.827 141.54C934.372 140.722 935.189 139.768 936.279 138.679C937.642 137.316 938.459 136.362 938.732 135.817C941.729 132.275 943.772 129.55 944.862 127.643C946.225 125.463 947.315 123.283 948.132 121.104C949.222 118.924 950.312 115.245 951.402 110.068C954.672 104.618 958.759 100.395 963.663 97.3977C968.296 95.4904 973.336 95.4904 978.786 97.3977C979.331 97.6702 982.056 99.9863 986.961 104.346C988.323 104.346 990.23 104.618 992.683 105.163C995.407 105.436 997.451 105.708 998.813 105.981C1008.9 109.251 1016.66 116.471 1022.11 127.643C1025.38 133.638 1027.42 139.36 1028.24 144.809ZM1006.58 198.76C1007.94 186.499 1007.94 175.463 1006.58 165.654C1005.76 160.204 1005.35 156.662 1005.35 155.027C1005.08 152.303 1003.72 146.989 1001.27 139.087C1000.45 135.817 998.541 132.956 995.544 130.504C993.364 128.324 991.048 127.371 988.595 127.643C981.511 130.095 975.108 134.728 969.386 141.54C965.298 146.717 962.165 151.758 959.985 156.662C949.086 181.458 942.682 203.665 940.775 223.284C940.775 223.829 940.639 224.51 940.366 225.327C940.366 225.872 940.23 226.553 939.958 227.371C939.958 228.188 939.958 228.869 939.958 229.414C939.14 234.864 938.732 238.27 938.732 239.632C938.187 248.897 939.004 260.068 941.184 273.148C942.819 283.229 946.088 292.63 950.993 301.349C953.99 306.526 957.805 309.932 962.437 311.567C965.162 311.295 967.751 310.205 970.203 308.297C974.29 305.573 977.424 302.303 979.604 298.488C984.236 291.676 987.642 285.545 989.822 280.096C993.364 271.649 996.77 260.068 1000.04 245.355C1003.31 230.641 1005.08 219.196 1005.35 211.022C1005.35 209.387 1005.49 207.071 1005.76 204.074C1006.31 201.076 1006.58 199.305 1006.58 198.76ZM1180.22 79.8227C1181.31 83.91 1181.31 87.9972 1180.22 92.0844C1179.95 92.6293 1178.31 99.4413 1175.31 112.52C1172.32 126.689 1170.27 137.589 1169.18 145.218C1168.37 147.67 1167.68 151.349 1167.14 156.253C1166.59 161.158 1166.05 164.837 1165.5 167.289C1165.5 169.469 1165.23 171.921 1164.69 174.646C1164.41 177.098 1164.01 179.687 1163.46 182.412C1162.92 185.136 1162.64 187.452 1162.64 189.36C1162.64 190.177 1162.51 190.995 1162.23 191.812C1162.23 192.63 1162.1 193.583 1161.83 194.673C1161.83 195.763 1161.69 196.581 1161.42 197.126C1161.14 200.668 1160.87 202.848 1160.6 203.665C1159.78 213.474 1159.24 219.333 1158.96 221.24C1158.96 221.512 1158.69 224.101 1158.15 229.006C1157.6 240.177 1157.19 246.444 1156.92 247.807C1156.65 248.897 1156.51 251.485 1156.51 255.573C1156.24 267.017 1156.24 276.009 1156.51 282.548C1156.51 287.453 1156.78 291.131 1157.33 293.584C1157.6 294.673 1157.74 296.172 1157.74 298.079C1158.01 303.257 1159.37 311.295 1161.83 322.194C1162.64 326.281 1163.05 330.368 1163.05 334.456C1163.05 334.456 1162.78 335.409 1162.23 337.317C1161.42 338.679 1159.78 339.769 1157.33 340.586C1155.69 340.314 1154.06 339.633 1152.43 338.543C1150.79 336.363 1149.84 333.911 1149.56 331.186C1149.56 328.189 1149.43 325.191 1149.16 322.194C1148.88 296.308 1149.02 270.014 1149.56 243.311C1149.84 240.041 1149.97 238.134 1149.97 237.589C1150.52 235.409 1151.06 228.052 1151.61 215.518C1152.15 205.164 1152.7 198.488 1153.24 195.491C1153.52 194.401 1153.52 192.493 1153.24 189.769C1153.24 189.769 1152.7 189.224 1151.61 188.134C1147.79 189.496 1144.66 190.722 1142.21 191.812C1138.12 192.085 1135.94 192.221 1135.67 192.221C1128.58 193.038 1124.9 193.447 1124.63 193.447C1123.27 193.447 1121.23 193.311 1118.5 193.038C1116.05 192.766 1114.41 192.493 1113.6 192.221C1106.78 191.676 1098.88 190.314 1089.89 188.134C1089.62 188.134 1088.53 187.997 1086.62 187.725C1085.53 188.542 1084.99 188.951 1084.99 188.951C1083.35 194.673 1082.4 199.442 1082.13 203.256C1082.13 205.436 1081.85 207.344 1081.31 208.978C1080.76 210.886 1080.35 214.156 1080.08 218.788C1079.81 223.147 1079.4 226.417 1078.86 228.597C1078.58 229.414 1078.31 231.594 1078.04 235.137C1077.49 242.766 1076.95 247.671 1076.4 249.85C1076.4 249.85 1076.13 252.711 1075.59 258.434C1075.59 260.068 1075.59 262.112 1075.59 264.564C1075.59 266.744 1075.45 268.652 1075.18 270.286C1075.18 271.921 1075.04 273.829 1074.77 276.009C1074.77 278.188 1074.5 280.096 1073.95 281.731C1073.95 283.91 1073.81 287.861 1073.54 293.584C1073.54 299.306 1073.54 304.21 1073.54 308.297C1073.81 312.112 1074.36 315.927 1075.18 319.742C1075.45 321.377 1075.59 323.556 1075.59 326.281C1075.31 329.551 1076.13 335.409 1078.04 343.856C1078.86 346.581 1080.35 348.761 1082.53 350.396C1084.44 351.758 1085.67 353.802 1086.21 356.526C1085.67 359.796 1083.35 361.976 1079.26 363.066C1075.72 362.249 1073.27 360.477 1071.91 357.753C1070 350.396 1068.91 344.265 1068.64 339.36C1067.28 333.366 1066.59 321.921 1066.59 305.028C1066.59 297.126 1066.73 282.957 1067 262.521C1067 256.254 1067.41 251.485 1068.23 248.216C1068.23 247.943 1068.37 244.946 1068.64 239.224C1069.18 229.414 1069.86 223.147 1070.68 220.423C1070.68 220.15 1070.82 217.289 1071.09 211.839C1071.63 206.117 1072.18 202.03 1072.72 199.578C1073.27 196.036 1073.54 191.267 1073.54 185.273C1072.72 184.183 1071.91 183.502 1071.09 183.229C1065.1 181.049 1059.92 180.232 1055.56 180.777C1055.56 180.777 1054.2 180.777 1051.47 180.777C1047.38 179.142 1044.52 176.281 1042.89 172.194C1042.07 169.196 1042.75 165.927 1044.93 162.384C1047.38 159.387 1050.65 158.025 1054.74 158.297C1057.19 158.297 1059.24 158.842 1060.87 159.932C1061.14 159.932 1061.96 160.477 1063.32 161.567C1064.69 162.657 1065.64 163.474 1066.19 164.019C1070 166.199 1072.72 167.425 1074.36 167.698C1075.72 166.063 1076.4 165.245 1076.4 165.245C1076.95 164.155 1077.22 163.065 1077.22 161.976C1077.22 158.978 1077.63 154.755 1078.45 149.305C1079.54 143.856 1080.22 139.905 1080.49 137.452C1081.04 134.183 1081.85 128.869 1082.94 121.512C1084.03 114.155 1085.12 108.569 1086.21 104.755C1086.21 104.21 1087.03 99.3051 1088.66 90.0408C1088.66 84.8636 1088.66 82.0026 1088.66 81.4576C1088.94 76.2805 1091.25 72.3295 1095.61 69.6047C1096.98 69.3323 1097.66 69.196 1097.66 69.196C1105.83 67.8336 1111.14 70.6947 1113.6 77.7791C1114.14 81.5939 1114.01 84.8636 1113.19 87.5885C1112.92 88.4059 1112.37 89.3596 1111.55 90.4495C1111.01 91.2669 1110.46 91.9481 1109.92 92.4931C1109.37 93.0381 1108.56 93.7193 1107.47 94.5367C1106.38 95.3541 1105.69 95.8991 1105.42 96.1716C1103.51 100.259 1101.2 107.888 1098.47 119.06C1093.84 137.861 1090.57 153.12 1088.66 164.837C1088.66 165.382 1088.39 166.335 1087.85 167.698C1087.57 168.788 1087.44 169.605 1087.44 170.15C1087.44 170.15 1087.71 170.831 1088.26 172.194C1092.62 174.373 1097.11 175.736 1101.74 176.281C1107.47 176.826 1111.14 177.371 1112.78 177.916C1114.69 178.188 1117.28 178.188 1120.54 177.916C1123.27 177.643 1126.13 177.098 1129.13 176.281C1129.67 176.008 1132.13 175.055 1136.49 173.42C1137.57 172.875 1138.8 172.057 1140.16 170.967C1141.8 169.605 1143.3 168.515 1144.66 167.698C1146.29 166.608 1147.79 165.927 1149.16 165.654C1150.79 165.382 1152.56 165.109 1154.47 164.837C1155.29 162.929 1155.69 161.976 1155.69 161.976C1155.69 158.706 1155.97 154.891 1156.51 150.531C1157.06 146.172 1157.47 141.948 1157.74 137.861C1158.28 133.501 1158.56 129.687 1158.56 126.417C1158.56 125.327 1158.83 123.42 1159.37 120.695C1160.46 114.428 1160.74 107.071 1160.19 98.6239C1160.19 98.6239 1160.05 98.2152 1159.78 97.3977C1159.24 97.1253 1158.15 96.5803 1156.51 95.7629C1154.88 94.6729 1153.79 93.8555 1153.24 93.3105C1149.7 89.4958 1148.47 85.1361 1149.56 80.2315C1151.2 76.4168 1154.06 73.5557 1158.15 71.6483C1162.51 70.8309 1167 70.8309 1171.64 71.6483C1175.45 73.2832 1178.31 76.008 1180.22 79.8227Z" fill="white"/>
<path d="M1368.38 165.9C998.958 143.63 209.813 140.748 8.59668 307.38" stroke="white" stroke-width="15.72" stroke-linecap="round"/>
</svg>
