<svg width="32" height="63" viewBox="0 0 32 63" fill="none" xmlns="http://www.w3.org/2000/svg">
<g clip-path="url(#clip0_226_112831)">
<path d="M3.28897 14.5122C3.64381 14.5122 3.93146 14.226 3.93146 13.8728C3.93146 13.5197 3.64381 13.2334 3.28897 13.2334C2.93414 13.2334 2.64648 13.5197 2.64648 13.8728C2.64648 14.226 2.93414 14.5122 3.28897 14.5122Z" fill="white"/>
<path d="M3.07803 12.8785C3.43287 12.8785 3.72052 12.5921 3.72052 12.239C3.72052 11.8858 3.43287 11.5996 3.07803 11.5996C2.7232 11.5996 2.43555 11.8858 2.43555 12.239C2.43555 12.5921 2.7232 12.8785 3.07803 12.8785Z" fill="white"/>
<path d="M3.28897 11.2447C3.64381 11.2447 3.93146 10.9584 3.93146 10.6052C3.93146 10.2521 3.64381 9.96582 3.28897 9.96582C2.93414 9.96582 2.64648 10.2521 2.64648 10.6052C2.64648 10.9584 2.93414 11.2447 3.28897 11.2447Z" fill="white"/>
<path d="M3.9374 9.7524C4.29224 9.7524 4.57989 9.46617 4.57989 9.11298C4.57989 8.75986 4.29224 8.47363 3.9374 8.47363C3.58257 8.47363 3.29492 8.75986 3.29492 9.11298C3.29492 9.46617 3.58257 9.7524 3.9374 9.7524Z" fill="white"/>
<path d="M4.93351 8.4732C5.28834 8.4732 5.57599 8.18689 5.57599 7.83376C5.57599 7.48061 5.28834 7.19434 4.93351 7.19434C4.57867 7.19434 4.29102 7.48061 4.29102 7.83376C4.29102 8.18689 4.57867 8.4732 4.93351 8.4732Z" fill="white"/>
<path d="M6.21866 7.47904C6.5735 7.47904 6.86115 7.19276 6.86115 6.83962C6.86115 6.48647 6.5735 6.2002 6.21866 6.2002C5.86383 6.2002 5.57617 6.48647 5.57617 6.83962C5.57617 7.19276 5.86383 7.47904 6.21866 7.47904Z" fill="white"/>
<path d="M7.78897 6.91068C8.1438 6.91068 8.43145 6.6244 8.43145 6.27126C8.43145 5.91811 8.1438 5.63184 7.78897 5.63184C7.43413 5.63184 7.14648 5.91811 7.14648 6.27126C7.14648 6.6244 7.43413 6.91068 7.78897 6.91068Z" fill="white"/>
<path d="M29.4921 14.5122C29.1373 14.5122 28.8496 14.226 28.8496 13.8728C28.8496 13.5197 29.1373 13.2334 29.4921 13.2334C29.847 13.2334 30.1346 13.5197 30.1346 13.8728C30.1346 14.226 29.847 14.5122 29.4921 14.5122Z" fill="white"/>
<path d="M29.703 12.8785C29.3482 12.8785 29.0605 12.5921 29.0605 12.239C29.0605 11.8858 29.3482 11.5996 29.703 11.5996C30.0578 11.5996 30.3455 11.8858 30.3455 12.239C30.3455 12.5921 30.0578 12.8785 29.703 12.8785Z" fill="white"/>
<path d="M29.4921 11.2447C29.1373 11.2447 28.8496 10.9584 28.8496 10.6052C28.8496 10.2521 29.1373 9.96582 29.4921 9.96582C29.847 9.96582 30.1346 10.2521 30.1346 10.6052C30.1346 10.9584 29.847 11.2447 29.4921 11.2447Z" fill="white"/>
<path d="M28.8476 9.7524C28.4927 9.7524 28.2051 9.46617 28.2051 9.11298C28.2051 8.75986 28.4927 8.47363 28.8476 8.47363C29.2025 8.47363 29.4901 8.75986 29.4901 9.11298C29.4901 9.46617 29.2025 9.7524 28.8476 9.7524Z" fill="white"/>
<path d="M27.8514 8.4732C27.4966 8.4732 27.209 8.18689 27.209 7.83376C27.209 7.48061 27.4966 7.19434 27.8514 7.19434C28.2063 7.19434 28.4939 7.48061 28.4939 7.83376C28.4939 8.18689 28.2063 8.4732 27.8514 8.4732Z" fill="white"/>
<path d="M26.5663 7.47904C26.2115 7.47904 25.9238 7.19276 25.9238 6.83962C25.9238 6.48647 26.2115 6.2002 26.5663 6.2002C26.9211 6.2002 27.2088 6.48647 27.2088 6.83962C27.2088 7.19276 26.9211 7.47904 26.5663 7.47904Z" fill="white"/>
<path d="M24.9921 6.91068C24.6373 6.91068 24.3496 6.6244 24.3496 6.27126C24.3496 5.91811 24.6373 5.63184 24.9921 5.63184C25.347 5.63184 25.6346 5.91811 25.6346 6.27126C25.6346 6.6244 25.347 6.91068 24.9921 6.91068Z" fill="white"/>
<path d="M16.3553 6.05814C16.7102 6.05814 16.9978 5.77186 16.9978 5.41872C16.9978 5.06558 16.7102 4.7793 16.3553 4.7793C16.0005 4.7793 15.7129 5.06558 15.7129 5.41872C15.7129 5.77186 16.0005 6.05814 16.3553 6.05814Z" fill="white"/>
<path d="M16.3553 7.76321C16.7102 7.76321 16.9978 7.47694 16.9978 7.12379C16.9978 6.77065 16.7102 6.48438 16.3553 6.48438C16.0005 6.48438 15.7129 6.77065 15.7129 7.12379C15.7129 7.47694 16.0005 7.76321 16.3553 7.76321Z" fill="white"/>
<path d="M16.3553 9.4683C16.7102 9.4683 16.9978 9.18199 16.9978 8.82888C16.9978 8.47576 16.7102 8.18945 16.3553 8.18945C16.0005 8.18945 15.7129 8.47576 15.7129 8.82888C15.7129 9.18199 16.0005 9.4683 16.3553 9.4683Z" fill="white"/>
<path d="M16.3553 11.1734C16.7102 11.1734 16.9978 10.8871 16.9978 10.534C16.9978 10.1808 16.7102 9.89453 16.3553 9.89453C16.0005 9.89453 15.7129 10.1808 15.7129 10.534C15.7129 10.8871 16.0005 11.1734 16.3553 11.1734Z" fill="white"/>
<path d="M16.3553 12.8785C16.7102 12.8785 16.9978 12.5921 16.9978 12.239C16.9978 11.8858 16.7102 11.5996 16.3553 11.5996C16.0005 11.5996 15.7129 11.8858 15.7129 12.239C15.7129 12.5921 16.0005 12.8785 16.3553 12.8785Z" fill="white"/>
<path d="M8.99993 13.3042C9.35471 13.3042 9.64236 13.0179 9.64236 12.6648C9.64236 12.3116 9.35471 12.0254 8.99993 12.0254C8.64507 12.0254 8.35742 12.3116 8.35742 12.6648C8.35742 13.0179 8.64507 13.3042 8.99993 13.3042Z" fill="white"/>
<path d="M8.50381 11.7417C8.85868 11.7417 9.14626 11.4554 9.14626 11.1023C9.14626 10.7491 8.85868 10.4629 8.50381 10.4629C8.14898 10.4629 7.86133 10.7491 7.86133 11.1023C7.86133 11.4554 8.14898 11.7417 8.50381 11.7417Z" fill="white"/>
<path d="M8.57413 10.1079C8.92895 10.1079 9.21661 9.82164 9.21661 9.46853C9.21661 9.11533 8.92895 8.8291 8.57413 8.8291C8.21929 8.8291 7.93164 9.11533 7.93164 9.46853C7.93164 9.82164 8.21929 10.1079 8.57413 10.1079Z" fill="white"/>
<path d="M8.99993 8.61573C9.35471 8.61573 9.64236 8.3295 9.64236 7.97634C9.64236 7.62319 9.35471 7.33691 8.99993 7.33691C8.64507 7.33691 8.35742 7.62319 8.35742 7.97634C8.35742 8.3295 8.64507 8.61573 8.99993 8.61573Z" fill="white"/>
<path d="M9.85931 7.19485C10.2141 7.19485 10.5017 6.90858 10.5017 6.55544C10.5017 6.20229 10.2141 5.91602 9.85931 5.91602C9.50445 5.91602 9.2168 6.20229 9.2168 6.55544C9.2168 6.90858 9.50445 7.19485 9.85931 7.19485Z" fill="white"/>
<path d="M11.0702 6.12845C11.4251 6.12845 11.7128 5.84217 11.7128 5.48903C11.7128 5.13589 11.4251 4.84961 11.0702 4.84961C10.7154 4.84961 10.4277 5.13589 10.4277 5.48903C10.4277 5.84217 10.7154 6.12845 11.0702 6.12845Z" fill="white"/>
<path d="M12.4296 5.27591C12.7844 5.27591 13.0721 4.98963 13.0721 4.63649C13.0721 4.28335 12.7844 3.99707 12.4296 3.99707C12.0748 3.99707 11.7871 4.28335 11.7871 4.63649C11.7871 4.98963 12.0748 5.27591 12.4296 5.27591Z" fill="white"/>
<path d="M13.9999 4.85014C14.3548 4.85014 14.6424 4.56386 14.6424 4.21071C14.6424 3.85757 14.3548 3.57129 13.9999 3.57129C13.6451 3.57129 13.3574 3.85757 13.3574 4.21071C13.3574 4.56386 13.6451 4.85014 13.9999 4.85014Z" fill="white"/>
<path d="M23.7812 13.3042C23.4263 13.3042 23.1387 13.0179 23.1387 12.6648C23.1387 12.3116 23.4263 12.0254 23.7812 12.0254C24.136 12.0254 24.4236 12.3116 24.4236 12.6648C24.4236 13.0179 24.136 13.3042 23.7812 13.3042Z" fill="white"/>
<path d="M24.2812 11.7417C23.9263 11.7417 23.6387 11.4554 23.6387 11.1023C23.6387 10.7491 23.9263 10.4629 24.2812 10.4629C24.636 10.4629 24.9237 10.7491 24.9237 11.1023C24.9237 11.4554 24.636 11.7417 24.2812 11.7417Z" fill="white"/>
<path d="M24.2069 10.1079C23.852 10.1079 23.5645 9.82164 23.5645 9.46853C23.5645 9.11533 23.852 8.8291 24.2069 8.8291C24.5617 8.8291 24.8494 9.11533 24.8494 9.46853C24.8494 9.82164 24.5617 10.1079 24.2069 10.1079Z" fill="white"/>
<path d="M23.7812 8.61573C23.4263 8.61573 23.1387 8.3295 23.1387 7.97634C23.1387 7.62319 23.4263 7.33691 23.7812 7.33691C24.136 7.33691 24.4236 7.62319 24.4236 7.97634C24.4236 8.3295 24.136 8.61573 23.7812 8.61573Z" fill="white"/>
<path d="M22.9218 7.19485C22.567 7.19485 22.2793 6.90858 22.2793 6.55544C22.2793 6.20229 22.567 5.91602 22.9218 5.91602C23.2766 5.91602 23.5642 6.20229 23.5642 6.55544C23.5642 6.90858 23.2766 7.19485 22.9218 7.19485Z" fill="white"/>
<path d="M21.7109 6.12845C21.356 6.12845 21.0684 5.84217 21.0684 5.48903C21.0684 5.13589 21.356 4.84961 21.7109 4.84961C22.0657 4.84961 22.3534 5.13589 22.3534 5.48903C22.3534 5.84217 22.0657 6.12845 21.7109 6.12845Z" fill="white"/>
<path d="M20.3515 5.27591C19.9966 5.27591 19.709 4.98963 19.709 4.63649C19.709 4.28335 19.9966 3.99707 20.3515 3.99707C20.7063 3.99707 20.9939 4.28335 20.9939 4.63649C20.9939 4.98963 20.7063 5.27591 20.3515 5.27591Z" fill="white"/>
<path d="M18.7812 4.85014C18.4263 4.85014 18.1387 4.56386 18.1387 4.21071C18.1387 3.85757 18.4263 3.57129 18.7812 3.57129C19.136 3.57129 19.4236 3.85757 19.4236 4.21071C19.4236 4.56386 19.136 4.85014 18.7812 4.85014Z" fill="white"/>
<path fill-rule="evenodd" clip-rule="evenodd" d="M8.43783 15.8973C8.41719 15.8486 8.40453 15.7955 8.4016 15.7397C8.39243 15.5647 8.48096 15.4073 8.61929 15.321C8.68909 15.27 8.77388 15.2381 8.86644 15.2332C8.8979 15.2316 8.92144 15.2313 8.93863 15.2325C9.06209 15.2173 9.19126 15.2256 9.32614 15.2576C9.00948 15.1126 8.82349 14.9588 8.7681 14.796C8.74528 14.7414 8.73275 14.6816 8.73275 14.6188C8.73275 14.3638 8.94045 14.157 9.19673 14.157C9.25093 14.157 9.303 14.1663 9.35142 14.1833C9.32091 14.1218 9.30379 14.0526 9.30379 13.9794C9.30379 13.7243 9.51157 13.5176 9.76785 13.5176C10.0241 13.5176 10.2318 13.7243 10.2318 13.9794C10.2318 14.0044 10.2298 14.0289 10.226 14.0528C10.2825 14.0285 10.3448 14.0149 10.4104 14.0149C10.6666 14.0149 10.8743 14.2217 10.8743 14.4768C10.8743 14.5421 10.86 14.6041 10.8345 14.6602C10.8223 14.7057 10.7806 14.7657 10.7288 14.8141C10.6755 14.8639 10.6117 14.8909 10.5566 14.9385C10.5002 14.9872 10.4443 15.0229 10.4357 15.0615C10.7705 14.9149 10.8071 14.8647 10.9267 14.836C10.9854 14.8087 11.0508 14.7936 11.1198 14.7936C11.3748 14.7936 11.5816 15.0014 11.5816 15.2576C11.5816 15.3113 11.5725 15.3628 11.5558 15.4108C11.618 15.3795 11.688 15.3619 11.7623 15.3619C12.0173 15.3619 12.224 15.5697 12.224 15.826C12.224 16.0822 12.0173 16.2899 11.7623 16.2899C11.7377 16.2899 11.7136 16.288 11.6901 16.2843C11.6898 16.2854 11.6894 16.2864 11.6891 16.2873C11.7118 16.3422 11.7243 16.4023 11.7243 16.4654C11.7243 16.7175 11.5242 16.9226 11.2749 16.9292C11.0633 16.9464 10.7559 16.8479 10.6771 16.8064C10.5354 16.7317 10.3635 16.5258 10.1614 16.1884C10.117 16.4465 10.0247 16.6892 9.88441 16.9165C9.75897 17.1199 9.54184 17.2637 9.2331 17.3481C9.1976 17.3616 9.15988 17.3709 9.12058 17.3754C9.1205 17.3754 9.1205 17.3754 9.12042 17.3754C9.11138 17.3764 9.10227 17.3771 9.09316 17.3776C8.83847 17.391 8.62111 17.1943 8.60769 16.9384C8.60488 16.8847 8.61127 16.8326 8.62548 16.7837C8.56503 16.8183 8.49584 16.8396 8.42166 16.8435C8.16696 16.8568 7.94961 16.6602 7.9362 16.4042C7.92693 16.2274 8.01748 16.0685 8.15837 15.9828C8.2274 15.9334 8.31079 15.9025 8.40171 15.8978C8.41384 15.8971 8.42589 15.897 8.43783 15.8973Z" fill="white"/>
<path fill-rule="evenodd" clip-rule="evenodd" d="M29.1604 15.4215C29.1409 15.4205 29.1216 15.4208 29.1026 15.4222C29.122 15.422 29.1413 15.4217 29.1604 15.4215ZM29.0367 15.4233C29.0698 15.3678 29.0916 15.3044 29.0989 15.236C29.1255 14.9823 28.9405 14.755 28.6856 14.7282C28.4307 14.7014 28.2025 14.8853 28.1759 15.139C28.1733 15.1639 28.1726 15.1887 28.174 15.213C28.1203 15.1828 28.0596 15.1628 27.9944 15.1559C27.7396 15.1292 27.5114 15.3131 27.4846 15.5667C27.478 15.6305 27.4854 15.6925 27.5041 15.75C27.5102 15.7968 27.546 15.8626 27.5935 15.9174C27.6414 15.9725 27.7019 16.006 27.7518 16.0591C27.8027 16.1134 27.8547 16.1547 27.8592 16.194C27.5404 16.0127 27.5102 15.9591 27.3932 15.918C27.338 15.8852 27.275 15.8637 27.2071 15.8565C26.9535 15.8298 26.7261 16.0149 26.6993 16.2697C26.6937 16.3233 26.6974 16.3757 26.7091 16.4254C26.6504 16.3876 26.5824 16.3628 26.5084 16.3549C26.2548 16.3283 26.0274 16.5133 26.0006 16.7682C25.9739 17.023 26.1578 17.2512 26.4114 17.2779C26.4359 17.2805 26.4602 17.281 26.4839 17.2798C26.4841 17.2806 26.4843 17.2813 26.4844 17.2821C26.456 17.3344 26.4371 17.3931 26.4305 17.456C26.4038 17.7101 26.5865 17.9377 26.839 17.9656C27.0475 18.0011 27.3553 17.9367 27.4367 17.9041C27.5776 17.8479 27.7578 17.6771 27.9773 17.3919C28.1486 17.1476 28.2921 16.9427 28.4076 16.7773C28.6671 16.4056 28.8727 15.9544 29.0243 15.4235C29.0284 15.4235 29.0325 15.4234 29.0367 15.4233Z" fill="white"/>
<path fill-rule="evenodd" clip-rule="evenodd" d="M3.56836 15.4928C3.58786 15.4918 3.60717 15.4921 3.62622 15.4935C3.60682 15.4932 3.58753 15.4929 3.56836 15.4928ZM3.69216 15.4945C3.65905 15.439 3.63718 15.3757 3.62999 15.3072C3.60333 15.0536 3.78833 14.8263 4.04319 14.7995C4.29806 14.7727 4.52627 14.9565 4.55294 15.2102C4.55556 15.2352 4.55613 15.26 4.55479 15.2843C4.60849 15.2541 4.66915 15.234 4.73439 15.2272C4.98925 15.2004 5.21748 15.3843 5.24413 15.638C5.25084 15.7017 5.24348 15.7637 5.22474 15.8213C5.21858 15.868 5.18285 15.9339 5.13528 15.9886C5.08746 16.0438 5.02689 16.0773 4.97702 16.1304C4.92606 16.1847 4.87411 16.226 4.86967 16.2653C5.18848 16.0839 5.21861 16.0303 5.33561 15.9892C5.39085 15.9565 5.45378 15.9349 5.52173 15.9277C5.77537 15.9011 6.00272 16.0861 6.0295 16.341C6.03514 16.3946 6.03145 16.447 6.01976 16.4966C6.07837 16.4589 6.14641 16.434 6.22039 16.4262C6.47403 16.3996 6.70138 16.5845 6.72816 16.8394C6.75495 17.0943 6.57104 17.3225 6.31739 17.3492C6.29291 17.3517 6.26867 17.3523 6.24483 17.3511C6.24468 17.3519 6.24453 17.3526 6.24438 17.3533C6.27286 17.4057 6.29173 17.4643 6.29835 17.5273C6.32505 17.7814 6.14233 18.009 5.88987 18.0368C5.68132 18.0723 5.37351 18.0079 5.29211 17.9754C5.15122 17.9191 4.97102 17.7484 4.75151 17.4631C4.58018 17.2189 4.43674 17.014 4.32119 16.8485C4.06166 16.4769 3.85612 16.0256 3.70456 15.4948C3.70041 15.4947 3.69628 15.4946 3.69216 15.4945Z" fill="white"/>
<path fill-rule="evenodd" clip-rule="evenodd" d="M14.778 15.3753C14.7644 15.3242 14.7592 15.2699 14.7641 15.2142C14.7794 15.0396 14.889 14.8961 15.0379 14.8298C15.1142 14.789 15.2025 14.7692 15.2949 14.7773C15.3263 14.7801 15.3496 14.7831 15.3665 14.7866C15.4908 14.7888 15.6176 14.815 15.7468 14.8654C15.4533 14.6778 15.2906 14.4995 15.2584 14.3307C15.2434 14.2735 15.2393 14.2124 15.248 14.1503C15.2835 13.8978 15.518 13.7219 15.7717 13.7576C15.8255 13.7651 15.8757 13.7815 15.9213 13.8051C15.8996 13.74 15.8924 13.6691 15.9025 13.5965C15.938 13.344 16.1726 13.1682 16.4263 13.2038C16.68 13.2395 16.857 13.4732 16.8216 13.7257C16.8181 13.7504 16.8127 13.7745 16.8056 13.7976C16.8649 13.7813 16.9285 13.7767 16.9933 13.7858C17.2471 13.8214 17.4241 14.0551 17.3886 14.3076C17.3795 14.3724 17.3566 14.4317 17.3235 14.4838C17.3051 14.5271 17.2555 14.5808 17.1974 14.6215C17.1378 14.6633 17.0709 14.6812 17.0096 14.7207C16.947 14.761 16.8866 14.7886 16.8728 14.8257C17.2248 14.7271 17.268 14.6824 17.3904 14.6706C17.4524 14.6518 17.5192 14.646 17.5875 14.6556C17.84 14.6911 18.0159 14.9256 17.9802 15.1793C17.9728 15.2325 17.9566 15.2822 17.9334 15.3274C17.9992 15.3051 18.0712 15.2975 18.1446 15.3078C18.3972 15.3433 18.573 15.5778 18.5374 15.8316C18.5017 16.0854 18.268 16.2623 18.0155 16.2268C17.9911 16.2234 17.9675 16.2181 17.9448 16.2112C17.9443 16.2122 17.9439 16.2131 17.9434 16.2141C17.9583 16.2714 17.9623 16.3328 17.9535 16.3952C17.9184 16.6449 17.6917 16.8202 17.4439 16.792C17.232 16.7796 16.9412 16.6392 16.869 16.5872C16.7391 16.4936 16.5976 16.2656 16.4444 15.9034C16.3645 16.1527 16.2393 16.3802 16.0688 16.5859C15.9161 16.7698 15.6812 16.8821 15.3637 16.9226C15.3266 16.9311 15.288 16.935 15.2485 16.9339C15.2484 16.9339 15.2483 16.9339 15.2483 16.9339C15.2392 16.9337 15.2301 16.9331 15.221 16.9323C14.9669 16.9102 14.7791 16.6852 14.8014 16.4299C14.8061 16.3763 14.8196 16.3256 14.8405 16.2792C14.7758 16.305 14.7044 16.3165 14.6304 16.31C14.3763 16.2878 14.1884 16.0628 14.2108 15.8075C14.2262 15.6311 14.338 15.4863 14.4894 15.4211C14.5646 15.3818 14.6515 15.3628 14.7422 15.3708C14.7543 15.3718 14.7663 15.3733 14.778 15.3753Z" fill="white"/>
<path fill-rule="evenodd" clip-rule="evenodd" d="M21.21 15.2507C21.2082 15.1979 21.2154 15.1438 21.2327 15.0906C21.2868 14.9239 21.4259 14.8087 21.586 14.7777C21.6694 14.7551 21.76 14.7557 21.8482 14.7843C21.8781 14.7941 21.9002 14.8023 21.9158 14.8095C22.0365 14.8395 22.1541 14.8937 22.2686 14.9718C22.0249 14.7231 21.9064 14.5127 21.913 14.3409C21.9113 14.2818 21.921 14.2214 21.9435 14.1628C22.0349 13.9247 22.303 13.8061 22.5422 13.898C22.5928 13.9175 22.6381 13.9447 22.6772 13.9779C22.6707 13.9096 22.6796 13.8388 22.7059 13.7705C22.7972 13.5324 23.0652 13.4139 23.3045 13.5057C23.5438 13.5975 23.6636 13.865 23.5722 14.1031C23.5633 14.1264 23.5527 14.1486 23.5405 14.1695C23.6019 14.1671 23.6649 14.1767 23.7261 14.2003C23.9654 14.292 24.0852 14.5596 23.9938 14.7977C23.9704 14.8586 23.9348 14.9114 23.8908 14.9547C23.8631 14.9927 23.8028 15.0338 23.737 15.0605C23.6694 15.0879 23.6002 15.0902 23.5317 15.1149C23.4616 15.1401 23.3965 15.1534 23.3748 15.1864C23.7398 15.1695 23.792 15.1357 23.9139 15.1518C23.9785 15.1474 24.045 15.1567 24.1093 15.1814C24.3475 15.2728 24.466 15.5409 24.3742 15.7801C24.355 15.8302 24.3281 15.8751 24.2953 15.9139C24.3644 15.907 24.4362 15.9157 24.5055 15.9423C24.7436 16.0337 24.8622 16.3017 24.7703 16.541C24.6785 16.7802 24.411 16.9001 24.1729 16.8087C24.15 16.7999 24.1282 16.7894 24.1076 16.7775C24.1069 16.7784 24.1063 16.7792 24.1056 16.78C24.1071 16.8394 24.0973 16.9 24.0746 16.9589C23.9843 17.1942 23.724 17.314 23.4889 17.2308C23.2852 17.1711 23.0334 16.9688 22.9747 16.9019C22.8693 16.7814 22.7826 16.5275 22.7148 16.1401C22.5809 16.3652 22.4077 16.5587 22.1954 16.7206C22.0053 16.8655 21.751 16.922 21.4326 16.8902C21.3946 16.8901 21.356 16.8852 21.3177 16.8753C21.3177 16.8753 21.3176 16.8753 21.3176 16.8753C21.3088 16.8729 21.3001 16.8703 21.2913 16.8675C21.0488 16.7887 20.9164 16.5272 20.9955 16.2835C21.0122 16.2323 21.0368 16.1861 21.0675 16.1456C20.9987 16.1561 20.9265 16.1512 20.8559 16.1282C20.6133 16.0494 20.4808 15.7879 20.5601 15.5442C20.6147 15.3758 20.7563 15.2599 20.9185 15.2304C21.0007 15.2091 21.0896 15.2101 21.1761 15.2382C21.1877 15.2419 21.199 15.2461 21.21 15.2507Z" fill="white"/>
<path fill-rule="evenodd" clip-rule="evenodd" d="M28.1178 14.1399C28.7143 13.5013 28.7542 12.1541 28.5565 11.1034C28.4565 10.5718 28.2269 10.1147 28.1178 9.86653C27.7524 9.03557 26.7619 8.23393 25.1465 7.46155C24.822 7.39042 24.6571 7.39042 24.6519 7.46155C24.6486 7.50735 25.5586 8.70512 25.4822 10.6504C25.4434 11.6374 25.4822 12.6272 24.2681 13.6963C23.9733 14.1399 24.8632 14.4659 25.1465 14.1399C25.8281 13.3557 26.1094 12.4915 26.1272 11.5822C26.1477 10.5361 25.909 9.30468 25.4108 7.88783C26.722 8.81812 27.5028 9.76486 27.7534 10.7281C27.9234 11.3821 28.0213 12.7437 27.2214 13.5397C27.0716 13.6888 27.1236 13.9198 27.3776 14.2327C27.5866 14.4755 27.8333 14.4446 28.1178 14.1399Z" fill="white"/>
<path fill-rule="evenodd" clip-rule="evenodd" d="M10.3186 13.1015C9.64556 12.2428 9.41996 10.8119 9.67346 9.54751C9.80168 8.90777 9.99178 8.39562 10.1547 8.12096C10.7425 7.13029 11.5835 6.36156 12.6775 5.81479C13.4126 5.56257 13.9233 5.41083 14.2095 5.35958C15.0724 5.20507 15.4308 5.30242 15.4353 5.35958C15.4371 5.38305 15.485 5.74605 15.4353 6.4649C15.3683 7.43355 15.1775 8.93289 14.9631 10.0269C14.7961 10.8797 14.6713 11.8004 14.6225 12.6414C14.6059 12.9279 15.1753 13.1015 14.9631 13.588C14.7509 14.0744 13.8504 14.084 13.7923 13.3771C13.6935 12.173 14.153 10.8894 14.3188 9.81988C14.5285 8.46654 14.7433 7.17053 14.9631 5.93183C12.8519 5.85385 11.4249 6.81471 10.6822 8.81442C10.5082 9.283 10.3208 10.0772 10.4325 10.8848C10.4992 11.3663 10.6475 11.8982 11.0364 12.2428C11.314 12.4887 11.3911 12.8667 11.2676 13.3771C10.9671 13.6173 10.6508 13.5254 10.3186 13.1015Z" fill="white"/>
<path fill-rule="evenodd" clip-rule="evenodd" d="M22.4927 13.1015C23.1658 12.2428 23.3914 10.8119 23.1379 9.54751C23.0097 8.90777 22.8195 8.39562 22.6565 8.12096C22.0688 7.13029 21.2278 6.36156 20.1338 5.81479C19.3987 5.56257 18.8881 5.41083 18.6018 5.35958C17.7389 5.20507 17.3804 5.30242 17.376 5.35958C17.3742 5.38305 17.3263 5.74605 17.376 6.4649C17.443 7.43355 17.6338 8.93289 17.8482 10.0269C18.0153 10.8797 18.1399 11.8004 18.1888 12.6414C18.2055 12.9279 17.5448 13.1182 17.757 13.6046C17.9692 14.0911 18.9609 14.084 19.019 13.3771C19.1179 12.173 18.6583 10.8894 18.4926 9.81988C18.2828 8.46654 18.0681 7.17053 17.8482 5.93183C19.9595 5.85385 21.3864 6.81471 22.129 8.81442C22.303 9.283 22.4905 10.0772 22.3788 10.8848C22.3121 11.3663 22.1639 11.8982 21.7749 12.2428C21.4973 12.4887 21.4202 12.8667 21.5437 13.3771C21.8442 13.6173 22.1606 13.5254 22.4927 13.1015Z" fill="white"/>
<path fill-rule="evenodd" clip-rule="evenodd" d="M16.0832 2.1199C15.5824 2.25487 15.214 2.71038 15.214 3.25152C15.214 3.89895 15.7413 4.42379 16.3919 4.42379C17.0424 4.42379 17.5698 3.89895 17.5698 3.25152C17.5698 2.71902 17.213 2.26945 16.7244 2.12662V1.83003L17.4072 1.05393C17.5976 0.898469 17.6595 0.769049 17.5931 0.66567C17.5267 0.562292 17.4476 0.53861 17.3559 0.594624L16.7244 0.66567C16.7244 0.323249 16.6223 0.149888 16.4181 0.145586C16.214 0.141284 16.1119 0.314646 16.112 0.66567L15.5158 0.594624C15.3672 0.585399 15.2678 0.608031 15.2176 0.66252C15.1675 0.71701 15.1698 0.800116 15.2242 0.911837L16.0832 1.83003V2.1199Z" fill="white"/>
<path fill-rule="evenodd" clip-rule="evenodd" d="M5.54883 18.3146C6.56191 18.7893 7.45974 18.9079 8.2423 18.6706C9.02483 18.4333 9.75198 17.8612 10.4237 16.9543C11.531 17.8167 12.5075 18.234 13.3534 18.2065C14.1992 18.179 15.2453 17.6957 16.4915 16.7568C17.5848 17.6907 18.5918 18.1785 19.5124 18.2203C20.4329 18.2621 21.4321 17.8652 22.5097 17.0299C23.2682 17.9528 23.9411 18.4997 24.5283 18.6706C25.1154 18.8415 26.0517 18.7629 27.337 18.4348L25.9524 20.5844C24 19.7661 20.8301 19.35 16.4429 19.3362C12.0557 19.3224 8.85731 19.7384 6.8476 20.5844L5.54883 18.3146ZM16.4622 17.496L14.9988 18.4196H17.9257L16.4622 17.496ZM22.4438 17.873L20.8422 18.5284L23.7246 19.0367L22.4438 17.873ZM10.4428 17.8742L9.08395 18.9457L11.9948 18.6398L10.4428 17.8742ZM6.57509 19.2722L6.9139 19.6687L7.53889 19.4111L6.57509 19.2722ZM26.3137 19.2722L25.3499 19.4111L25.9749 19.6687L26.3137 19.2722Z" fill="white"/>
<path fill-rule="evenodd" clip-rule="evenodd" d="M16.496 23.3934C11.4101 23.3934 7.28711 22.9958 7.28711 22.5053C7.28711 22.0148 11.4101 21.6172 16.496 21.6172C21.582 21.6172 25.705 22.0148 25.705 22.5053C25.705 22.9958 21.582 23.3934 16.496 23.3934ZM16.389 22.825C20.509 22.825 23.849 22.6978 23.849 22.5408C23.849 22.3839 20.509 22.2566 16.389 22.2566C12.269 22.2566 8.92898 22.3839 8.92898 22.5408C8.92898 22.6978 12.269 22.825 16.389 22.825Z" fill="white"/>
<path fill-rule="evenodd" clip-rule="evenodd" d="M6.9707 20.9931C8.74121 20.148 11.9056 19.7397 16.4638 19.768C21.022 19.7963 24.1864 20.2046 25.9569 20.9931V22.1528C23.547 21.3574 20.2754 20.9597 16.142 20.9597C12.0086 20.9597 8.95153 21.3574 6.9707 22.1528V20.9931ZM15.5682 20.3441L16.3707 20.7545L17.1949 20.3441L16.3707 19.9674L15.5682 20.3441ZM8.25372 21.4041C8.43114 21.4041 8.57496 21.2609 8.57496 21.0844C8.57496 20.9078 8.43114 20.7647 8.25372 20.7647C8.07631 20.7647 7.93248 20.9078 7.93248 21.0844C7.93248 21.2609 8.07631 21.4041 8.25372 21.4041ZM11.252 20.9068C11.4294 20.9068 11.5733 20.7637 11.5733 20.587C11.5733 20.4105 11.4294 20.2674 11.252 20.2674C11.0746 20.2674 10.9307 20.4105 10.9307 20.587C10.9307 20.7637 11.0746 20.9068 11.252 20.9068ZM14.1075 20.6936C14.2849 20.6936 14.4287 20.5505 14.4287 20.374C14.4287 20.1974 14.2849 20.0542 14.1075 20.0542C13.9301 20.0542 13.7862 20.1974 13.7862 20.374C13.7862 20.5505 13.9301 20.6936 14.1075 20.6936ZM18.7477 20.7647C18.9251 20.7647 19.0689 20.6215 19.0689 20.445C19.0689 20.2684 18.9251 20.1253 18.7477 20.1253C18.5702 20.1253 18.4264 20.2684 18.4264 20.445C18.4264 20.6215 18.5702 20.7647 18.7477 20.7647ZM21.6745 20.9778C21.8519 20.9778 21.9957 20.8347 21.9957 20.6581C21.9957 20.4816 21.8519 20.3385 21.6745 20.3385C21.4971 20.3385 21.3533 20.4816 21.3533 20.6581C21.3533 20.8347 21.4971 20.9778 21.6745 20.9778ZM24.53 21.4751C24.7074 21.4751 24.8512 21.332 24.8512 21.1555C24.8512 20.9789 24.7074 20.8357 24.53 20.8357C24.3526 20.8357 24.2088 20.9789 24.2088 21.1555C24.2088 21.332 24.3526 21.4751 24.53 21.4751ZM9.75285 21.0489C9.89081 21.0489 10.0027 20.9375 10.0027 20.8002C10.0027 20.6629 9.89081 20.5515 9.75285 20.5515C9.61488 20.5515 9.50299 20.6629 9.50299 20.8002C9.50299 20.9375 9.61488 21.0489 9.75285 21.0489ZM12.7511 20.7647C12.8891 20.7647 13.001 20.6534 13.001 20.516C13.001 20.3787 12.8891 20.2674 12.7511 20.2674C12.6131 20.2674 12.5013 20.3787 12.5013 20.516C12.5013 20.6534 12.6131 20.7647 12.7511 20.7647ZM20.104 20.7647C20.242 20.7647 20.3539 20.6534 20.3539 20.516C20.3539 20.3787 20.242 20.2674 20.104 20.2674C19.966 20.2674 19.8541 20.3787 19.8541 20.516C19.8541 20.6534 19.966 20.7647 20.104 20.7647ZM23.1022 21.12C23.2403 21.12 23.3521 21.0086 23.3521 20.8713C23.3521 20.734 23.2403 20.6226 23.1022 20.6226C22.9643 20.6226 22.8524 20.734 22.8524 20.8713C22.8524 21.0086 22.9643 21.12 23.1022 21.12Z" fill="white"/>
<path fill-rule="evenodd" clip-rule="evenodd" d="M4.6919 14.1399C4.0954 13.5013 4.0555 12.1541 4.2532 11.1034C4.35321 10.5718 4.58275 10.1147 4.6919 9.86653C5.05736 9.03557 6.04781 8.23393 7.66325 7.46155C7.98776 7.39042 8.15261 7.39042 8.15781 7.46155C8.16115 7.50735 7.25111 8.70512 7.32751 10.6504C7.36628 11.6374 7.32751 12.6272 8.54165 13.6963C8.83648 14.1399 7.94658 14.4659 7.66325 14.1399C6.98165 13.3557 6.70037 12.4915 6.68251 11.5822C6.66197 10.5361 6.90077 9.30468 7.3989 7.88783C6.08772 8.81812 5.30687 9.76486 5.05637 10.7281C4.88626 11.3821 4.78844 12.7437 5.58828 13.5397C5.73813 13.6888 5.68607 13.9198 5.43212 14.2327C5.22317 14.4755 4.97643 14.4446 4.6919 14.1399Z" fill="white"/>
<path fill-rule="evenodd" clip-rule="evenodd" d="M12.5773 38.1496H11.6265L10.9737 35.9289H8.78794L8.13054 38.1496H7.19336L9.8808 28.9111L12.5773 38.1496ZM10.5784 34.9225L9.84942 32.5486L9.11593 34.9225H10.5784Z" fill="white"/>
<path fill-rule="evenodd" clip-rule="evenodd" d="M7.54881 61.3449C6.805 61.7522 6.07429 61.9559 5.35664 61.9559C3.94005 61.9559 2.81781 61.5457 1.9899 60.7255C1.16199 59.9051 0.748047 58.8111 0.748047 57.4433C0.748047 56.0979 1.20031 55.0011 2.10484 54.1528C2.97573 53.3381 4.06339 52.9307 5.36786 52.9307C6.21632 52.9307 6.93956 53.1251 7.5376 53.5137V54.7806C6.91339 54.2051 6.15091 53.9173 5.25012 53.9173C4.27831 53.9173 3.47284 54.2293 2.83369 54.8535C2.16464 55.5075 1.83011 56.3707 1.83011 57.4433C1.83011 58.5308 2.16464 59.3997 2.83369 60.05C3.46536 60.6629 4.2671 60.9693 5.2389 60.9693C6.10232 60.9693 6.87228 60.6666 7.54881 60.0612V61.3449Z" fill="white"/>
<path fill-rule="evenodd" clip-rule="evenodd" d="M18.176 61.8144H16.9979L15.2716 58.1477H15.1364V61.8144H14.209V53.1445H15.3483C16.003 53.1445 16.7034 53.4525 17.0756 53.8811C17.4477 54.3097 17.6338 54.8179 17.6338 55.5928C17.6338 56.2142 17.6071 56.4632 17.3666 56.9012C17.1109 57.3691 16.7567 57.6555 16.304 57.9475L18.176 61.8144ZM16.7952 55.6071C16.7952 54.5739 16.0523 54.0573 15.6194 54.0573H15.1754V57.1961H15.6846C16.0523 57.1961 16.7952 56.6665 16.7952 55.6071Z" fill="white"/>
<path fill-rule="evenodd" clip-rule="evenodd" d="M22.2834 61.8144H18.5996V53.1445H19.6818V60.8262H22.2834V61.8144Z" fill="white"/>
<path fill-rule="evenodd" clip-rule="evenodd" d="M30.8548 57.4433C30.8548 58.6654 30.4074 59.7229 29.5126 60.6161C28.6177 61.5094 27.5539 61.9559 26.3209 61.9559C25.088 61.9559 24.0242 61.5094 23.1294 60.6161C22.2345 59.7229 21.7871 58.6654 21.7871 57.4433C21.7871 56.2212 22.2345 55.1636 23.1294 54.2705C24.0242 53.3773 25.088 52.9307 26.3209 52.9307C27.5539 52.9307 28.6177 53.3773 29.5126 54.2705C30.4074 55.1636 30.8548 56.2212 30.8548 57.4433ZM29.7902 57.4365C29.7902 56.4499 29.4568 55.6194 28.7899 54.9448C28.123 54.2702 27.3039 53.9329 26.3324 53.9329C25.361 53.9329 24.5428 54.2702 23.8777 54.9448C23.2127 55.6194 22.8802 56.4499 22.8802 57.4365C22.8802 58.4232 23.2127 59.2537 23.8777 59.9283C24.5428 60.6029 25.361 60.9401 26.3324 60.9401C27.3039 60.9401 28.123 60.6029 28.7899 59.9283C29.4568 59.2537 29.7902 58.4232 29.7902 57.4365Z" fill="white"/>
<path fill-rule="evenodd" clip-rule="evenodd" d="M13.4992 61.7429H12.5483L11.8955 59.5735H9.70981L9.0524 61.7429H8.11523L10.8027 52.7178L13.4992 61.7429ZM11.5003 58.5903L10.7713 56.2713L10.0379 58.5903H11.5003Z" fill="white"/>
<path fill-rule="evenodd" clip-rule="evenodd" d="M6.55491 38.1497H5.20945L2.62201 34.3928H2.13902V38.1497H1.0293V29.2666H2.737C3.71832 29.2666 4.48784 29.4862 5.04558 29.9254C5.60332 30.3645 5.88218 30.9811 5.88218 31.775C5.88218 32.4117 5.70202 32.9544 5.3417 33.4032C4.95837 33.8827 4.42747 34.176 3.74899 34.2834L6.55491 38.1497ZM4.85898 31.7896C4.85898 30.731 4.08467 30.2017 2.53604 30.2017H2.15079V33.4178H2.63378C4.11725 33.4178 4.85898 32.8751 4.85898 31.7896Z" fill="white"/>
<path fill-rule="evenodd" clip-rule="evenodd" d="M18.6007 33.7081C18.6007 35.085 18.0576 36.1744 17.2493 36.9616C16.441 37.7488 15.7997 37.8691 14.9711 38.0562L13.2168 38.1497V29.2666C13.7551 29.2784 14.144 29.3056 14.3832 29.3479C15.8247 29.6033 16.7839 30.0374 17.2607 30.4633C18.154 31.261 18.6007 32.3426 18.6007 33.7081ZM17.5096 33.7127C17.5096 32.6157 17.1534 31.7719 16.441 31.1812C15.9661 30.7875 15.2629 30.4921 14.3314 30.2952V37.1532C15.1982 37.0292 15.9005 36.7368 16.4382 36.2758C17.2446 35.5842 17.5096 34.8365 17.5096 33.7127Z" fill="white"/>
<path fill-rule="evenodd" clip-rule="evenodd" d="M20.7955 38.1497H19.6621V29.2666H20.7955V38.1497Z" fill="white"/>
<path fill-rule="evenodd" clip-rule="evenodd" d="M30.997 33.7442C30.997 34.9952 30.5392 36.0778 29.6233 36.992C28.7076 37.9063 27.6188 38.3635 26.357 38.3635C25.0951 38.3635 24.0063 37.9063 23.0905 36.992C22.1748 36.0778 21.7168 34.9952 21.7168 33.7442C21.7168 32.4933 22.1748 31.4107 23.0905 30.4965C24.0063 29.5822 25.0951 29.125 26.357 29.125C27.6188 29.125 28.7076 29.5822 29.6233 30.4965C30.5392 31.4107 30.997 32.4933 30.997 33.7442ZM29.9076 33.7373C29.9076 32.7274 29.5663 31.8772 28.8837 31.1867C28.2012 30.4962 27.3629 30.151 26.3687 30.151C25.3745 30.151 24.5371 30.4962 23.8565 31.1867C23.1758 31.8772 22.8356 32.7274 22.8356 33.7373C22.8356 34.7472 23.1758 35.5974 23.8565 36.2879C24.5371 36.9784 25.3745 37.3236 26.3687 37.3236C27.3629 37.3236 28.2012 36.9784 28.8837 36.2879C29.5663 35.5974 29.9076 34.7472 29.9076 33.7373Z" fill="white"/>
<path fill-rule="evenodd" clip-rule="evenodd" d="M8.75153 49.2961H7.83503L7.0613 44.6568L4.85525 49.449L2.64921 44.6568L1.87549 49.2961H0.958984L2.27156 41.9873L4.85525 47.4747L7.43896 41.9873L8.75153 49.2961Z" fill="white"/>
<path fill-rule="evenodd" clip-rule="evenodd" d="M16.7567 45.7182C16.7567 46.7285 16.3897 47.603 15.6556 48.3414C14.9217 49.0798 14.0489 49.449 13.0375 49.449C12.0261 49.449 11.1534 49.0798 10.4194 48.3414C9.68534 47.603 9.31836 46.7285 9.31836 45.7182C9.31836 44.7078 9.68534 43.8335 10.4194 43.095C11.1534 42.3565 12.0261 41.9873 13.0375 41.9873C14.0489 41.9873 14.9217 42.3565 15.6556 43.095C16.3897 43.8335 16.7567 44.7078 16.7567 45.7182ZM15.8834 45.7126C15.8834 44.8969 15.6099 44.2102 15.0628 43.6525C14.5158 43.0947 13.8438 42.816 13.047 42.816C12.2501 42.816 11.5789 43.0947 11.0334 43.6525C10.4878 44.2102 10.215 44.8969 10.215 45.7126C10.215 46.5283 10.4878 47.215 11.0334 47.7727C11.5789 48.3304 12.2501 48.6092 13.047 48.6092C13.8438 48.6092 14.5158 48.3304 15.0628 47.7727C15.6099 47.215 15.8834 46.5283 15.8834 45.7126Z" fill="white"/>
<path fill-rule="evenodd" clip-rule="evenodd" d="M26.2495 43.0184H24.4973V49.3778H23.6097V43.0184H21.8574V42.2002H26.2495V43.0184Z" fill="white"/>
<path fill-rule="evenodd" clip-rule="evenodd" d="M30.4289 43.0184H27.4909V45.0266H30.3324V45.8447H27.4909V48.5596H30.4197V49.3778H26.6035V42.2002H30.4289V43.0184Z" fill="white"/>
<path fill-rule="evenodd" clip-rule="evenodd" d="M21.1511 49.449L18.2186 45.0321V49.2961H17.3965V41.9873L20.3289 46.6739V42.1402H21.1511V49.449Z" fill="white"/>
</g>
<defs>
<clipPath id="clip0_226_112831">
<rect width="30.9053" height="62.6031" fill="white" transform="translate(0.75 0.111328)"/>
</clipPath>
</defs>
</svg>
