<svg width="61" height="34" viewBox="0 0 61 34" fill="none" xmlns="http://www.w3.org/2000/svg">
<g clip-path="url(#clip0_226_112671)">
<path fill-rule="evenodd" clip-rule="evenodd" d="M-0.00195312 0.0175781H60.748V33.2029H-0.00195312V0.0175781ZM1.36551 1.38136V31.8391H59.3806V1.38136H1.36551Z" fill="white"/>
<path fill-rule="evenodd" clip-rule="evenodd" d="M18.9294 22.2474C19.3359 22.8589 19.4868 23.0859 19.747 23.4227L21.5288 23.4288V9.31616L28.6802 20.673L35.8499 9.10221V23.4227H45.6851C41.2817 21.5486 38.2676 17.7564 38.2676 13.4209C38.2676 9.93074 40.2714 6.78198 43.324 4.71973H32.8554L28.5859 11.5271L24.4898 4.71973H17.2227C18.1015 5.60977 18.5934 6.80911 18.5921 8.0582C18.5921 10.8671 17.034 14.339 14.0563 15.1069C17.1119 19.5133 18.3137 21.3213 18.9294 22.2474ZM4.54492 15.3573V23.4227H15.1533C13.9756 21.5926 9.49307 15.3573 9.39416 15.3573C9.26941 15.3482 4.54492 15.3573 4.54492 15.3573ZM51.1418 21.5926C45.8086 21.5926 41.4798 18.0508 41.4798 13.7017C41.4798 9.35255 45.8086 5.81075 51.1418 5.81075C52.9372 5.79558 54.709 6.2186 56.3028 7.04297V12.4467H51.1994V15.2586H53.6782V21.3179C52.8451 21.5011 51.9946 21.5932 51.1418 21.5926ZM4.54504 12.4817L8.63351 12.6C12.6063 12.6 14.8339 10.8064 14.8339 8.345C14.8339 6.43297 13.5649 5.263 11.4971 4.71973H4.54504V12.4817Z" fill="white"/>
<path d="M5.24792 28.835H4.54492V25.1309H5.87782C6.48648 25.1309 6.8547 25.618 6.8547 26.2128C6.8547 26.8077 6.46822 27.3267 5.86718 27.3267H5.24792V28.835ZM5.24792 26.7789H5.60395C5.9585 26.7789 6.13348 26.5785 6.13348 26.225C6.13348 25.8714 5.9585 25.6817 5.60395 25.6817H5.24792V26.7789Z" fill="white"/>
<path d="M7.91427 25.1309L8.4864 27.1036L9.05699 25.1309H9.8284L8.8196 28.1264C8.62485 28.7106 8.40421 28.9215 8.05883 28.9215C7.91411 28.9226 7.77017 28.9001 7.63277 28.8548V28.3176C7.69499 28.3418 7.76081 28.3556 7.82755 28.3585C7.966 28.3585 8.06947 28.2721 8.14098 28.0551L7.12305 25.1309H7.91427Z" fill="white"/>
<path d="M11.6701 26.3454V26.2635C11.6701 25.7961 11.5514 25.6368 11.2532 25.6368C10.9549 25.6368 10.8271 25.7961 10.8271 26.2635V27.7248C10.8271 28.2059 10.9504 28.3652 11.2486 28.3652C11.5468 28.3652 11.6701 28.2013 11.6701 27.7248V27.5245H12.3746V27.6762C12.3746 28.3485 12.1326 28.9236 11.2532 28.9236C10.328 28.9236 10.1074 28.3439 10.1074 27.6869V26.3454C10.1074 25.4774 10.4985 25.0723 11.2638 25.0723C11.9835 25.0723 12.3746 25.4774 12.3746 26.1603V26.3454H11.6701Z" fill="white"/>
<path d="M14.3982 26.3454V26.2635C14.3982 25.7961 14.2795 25.6368 13.9812 25.6368C13.683 25.6368 13.5537 25.7961 13.5537 26.2635V27.7248C13.5537 28.2059 13.6784 28.3652 13.9767 28.3652C14.2749 28.3652 14.3982 28.2013 14.3982 27.7248V27.5245H15.1026V27.6762C15.1026 28.3485 14.8607 28.9236 13.9812 28.9236C13.0561 28.9236 12.834 28.3439 12.834 27.6869V26.3454C12.834 25.4774 13.225 25.0723 13.9919 25.0723C14.7116 25.0723 15.1026 25.4774 15.1026 26.1603V26.3454H14.3982Z" fill="white"/>
<path d="M16.2994 26.7379L17.153 25.1309H17.9487L17.0084 26.7364L17.9807 28.8335H17.194L16.5763 27.357L16.2994 27.7212V28.8335H15.5918V25.1309H16.2963L16.2994 26.7379Z" fill="white"/>
<path d="M19.0623 25.1309H20.0057L20.8289 28.8335H20.0681L19.8931 27.8699H19.0928L18.8721 28.8335H18.1113L19.0623 25.1309ZM19.8079 27.3206L19.5264 25.5983L19.1871 27.3206H19.8079Z" fill="white"/>
<path d="M22.3651 27.3286L21.7276 28.8355H20.9668L21.6789 27.2467C21.3137 27.0828 21.0977 26.6822 21.0977 26.2148C21.0977 25.6199 21.4522 25.1328 22.0532 25.1328H23.4105V28.8355H22.7059V27.3286H22.3651ZM22.709 25.6821H22.3545C21.9999 25.6821 21.8204 25.8764 21.8204 26.2254C21.8204 26.5744 21.9999 26.7793 22.3545 26.7793H22.709V25.6821Z" fill="white"/>
<path d="M26.2913 25.1309L26.7858 27.5361L27.2788 25.1309H28.4048V28.8335H27.7475V25.4799L27.043 28.8335H26.5332L25.8288 25.4845V28.8335H25.1699V25.1309H26.2913Z" fill="white"/>
<path d="M30.9058 25.1309V25.6954H29.6246V26.5573H30.7932V27.1218H29.6246V28.2705H30.9058V28.8335H28.9277V25.1309H30.9058Z" fill="white"/>
<path d="M33.9169 25.1309V28.2721H34.1436V29.5786H33.4634V28.835H31.9267V29.5786H31.248V28.2721H31.4687C31.7152 27.7273 31.808 27.3069 31.808 26.2872V25.1309H33.9169ZM32.5018 25.6954V26.536C32.5018 27.3874 32.3847 27.8077 32.1686 28.2705H33.2124V25.6908L32.5018 25.6954Z" fill="white"/>
<path d="M35.224 25.1309V26.5163C35.2326 26.9541 35.203 27.3917 35.1357 27.8244L36.1613 25.1309H36.9221V28.8335H36.2632V27.4344C36.2479 27.0036 36.277 26.5724 36.3499 26.1476L35.3214 28.8335H34.5605V25.1309H35.224Z" fill="white"/>
<path d="M38.1476 25.1309H39.0939L39.9173 28.8335H39.1566L38.9828 27.8699H38.1856L37.962 28.835H37.2012L38.1476 25.1309ZM38.8931 27.3206L38.6102 25.5983L38.2663 27.3221L38.8931 27.3206Z" fill="white"/>
<path d="M42.158 25.1309V25.6954H40.9136V28.8335H40.209V25.1309H42.158Z" fill="white"/>
<path d="M43.23 28.835H42.5254V25.1309H43.8569C44.4655 25.1309 44.8335 25.618 44.8335 26.2128C44.8335 26.8077 44.4485 27.3267 43.846 27.3267H43.23V28.835ZM43.23 26.7789H43.5906C43.9451 26.7789 44.12 26.5785 44.12 26.225C44.12 25.8714 43.9451 25.6817 43.5906 25.6817H43.2358L43.23 26.7789Z" fill="white"/>
<path d="M45.8995 25.1309L46.4699 27.1036L47.0406 25.1309H47.8118L46.8046 28.1264C46.6084 28.7106 46.3879 28.9215 46.0439 28.9215C45.8991 28.9226 45.7552 28.9001 45.6178 28.8548V28.3176C45.6801 28.3418 45.7459 28.3556 45.8125 28.3585C45.9525 28.3585 46.0547 28.2721 46.1259 28.0551L45.1113 25.1309H45.8995Z" fill="white"/>
<path d="M50.4516 25.1309V28.8335H49.7469V25.6969H48.816V28.835H48.1113V25.1309H50.4516Z" fill="white"/>
<path d="M53.3055 25.1309V28.8335H52.6012V25.6969H51.6714V28.835H50.9668V25.1309H53.3055Z" fill="white"/>
<path d="M54.534 25.1309H55.4789L56.3023 28.8335H55.5416L55.3663 27.8699H54.5692L54.3486 28.8335H53.5879L54.534 25.1309ZM55.2796 27.3206L55.0029 25.5998L54.6636 27.3221L55.2796 27.3206Z" fill="white"/>
</g>
<defs>
<clipPath id="clip0_226_112671">
<rect width="60.75" height="33.1875" fill="white" transform="translate(0 0.0175781)"/>
</clipPath>
</defs>
</svg>
