<svg width="33" height="33" viewBox="0 0 33 33" fill="none" xmlns="http://www.w3.org/2000/svg">
<g clip-path="url(#clip0_218_108882)">
<path fill-rule="evenodd" clip-rule="evenodd" d="M31.6533 7.20461C31.6647 7.24654 31.6705 7.28978 31.6706 7.33322V14.0852C31.6706 14.1719 31.6477 14.257 31.6043 14.332C31.5608 14.407 31.4984 14.4692 31.4232 14.5123L25.7561 17.7751V24.2421C25.7561 24.4181 25.6626 24.5806 25.5099 24.6692L13.6804 31.4791C13.6533 31.4944 13.6238 31.5043 13.5943 31.5148C13.5832 31.5185 13.5727 31.5252 13.561 31.5283C13.4783 31.5501 13.3914 31.5501 13.3087 31.5283C13.2952 31.5246 13.2829 31.5172 13.2699 31.5123C13.2429 31.5025 13.2146 31.4938 13.1887 31.4791L1.36164 24.6692C1.28651 24.6261 1.22408 24.5639 1.18065 24.4889C1.13722 24.4139 1.11432 24.3288 1.11426 24.2421V3.98615C1.11426 3.94184 1.12041 3.89876 1.13149 3.85691C1.13518 3.84276 1.1438 3.82984 1.14872 3.81568C1.15795 3.78984 1.16657 3.76338 1.1801 3.73938C1.18933 3.72338 1.20287 3.71045 1.21395 3.69568C1.2281 3.67599 1.24103 3.65568 1.25764 3.63845C1.2718 3.6243 1.29026 3.61384 1.30626 3.60153C1.3241 3.58676 1.3401 3.57076 1.36041 3.55907L7.27487 0.154146C7.34975 0.111057 7.43463 0.0883789 7.52103 0.0883789C7.60742 0.0883789 7.6923 0.111057 7.76718 0.154146L13.681 3.55907H13.6823C13.7019 3.57138 13.7186 3.58676 13.7364 3.60091C13.7524 3.61322 13.7703 3.6243 13.7844 3.63784C13.8016 3.65568 13.8139 3.67599 13.8287 3.69568C13.8392 3.71045 13.8533 3.72338 13.8619 3.73938C13.8761 3.76399 13.8841 3.78984 13.8939 3.81568C13.8989 3.82984 13.9075 3.84276 13.9112 3.85753C13.9225 3.89947 13.9283 3.94271 13.9284 3.98615V16.6378L18.8564 13.8003V7.33261C18.8564 7.28953 18.8626 7.24584 18.8736 7.20461C18.8779 7.18984 18.8859 7.17691 18.8909 7.16276C18.9007 7.13691 18.9093 7.11045 18.9229 7.08645C18.9321 7.07045 18.9456 7.05753 18.9561 7.04276C18.9709 7.02307 18.9832 7.00276 19.0004 6.98553C19.0146 6.97138 19.0324 6.96091 19.0484 6.94861C19.0669 6.93384 19.0829 6.91784 19.1026 6.90615L25.0176 3.50122C25.0925 3.45807 25.1774 3.43536 25.2638 3.43536C25.3502 3.43536 25.4351 3.45807 25.5099 3.50122L31.4238 6.90615C31.4447 6.91845 31.4607 6.93384 31.4792 6.94799C31.4946 6.9603 31.5124 6.97138 31.5266 6.98491C31.5438 7.00276 31.5561 7.02307 31.5709 7.04276C31.5819 7.05753 31.5955 7.07045 31.6041 7.08645C31.6183 7.11045 31.6263 7.13691 31.6361 7.16276C31.6416 7.17691 31.6496 7.18984 31.6533 7.20461ZM30.6847 13.8003V8.18553L28.6152 9.37691L25.7561 11.0231V16.6378L30.6853 13.8003H30.6847ZM24.7709 23.9572V18.3388L21.9586 19.9449L13.9278 24.5283V30.1997L24.7709 23.9572ZM2.1001 4.83845V23.9572L12.9419 30.1991V24.5289L7.27795 21.3234L7.2761 21.3221L7.27364 21.3209C7.25457 21.3098 7.23857 21.2938 7.22072 21.2803C7.20533 21.268 7.18749 21.2581 7.17395 21.2446L7.17272 21.2428C7.15672 21.2274 7.14564 21.2083 7.1321 21.1911C7.1198 21.1745 7.10503 21.1603 7.09518 21.1431L7.09457 21.1412C7.08349 21.1228 7.07672 21.1006 7.06872 21.0797C7.06072 21.0612 7.05026 21.044 7.04533 21.0243C7.03918 21.0009 7.03795 20.9757 7.03549 20.9517C7.03303 20.9332 7.0281 20.9148 7.0281 20.8963V20.8951V7.67599L4.16964 6.02922L2.1001 4.83845ZM7.52164 1.14984L2.59426 3.98615L7.52041 6.82245L12.4472 3.98553L7.52041 1.14984H7.52164ZM10.0841 18.8508L12.9426 17.2052V4.83845L10.873 6.02984L8.01395 7.67599V20.0428L10.0841 18.8508ZM25.2638 4.49691L20.337 7.33322L25.2638 10.1695L30.1899 7.33261L25.2638 4.49691ZM24.7709 11.0231L21.9118 9.37691L19.8423 8.18553V13.8003L22.7007 15.4458L24.7709 16.6378V11.0231ZM13.4343 23.676L20.6607 19.5505L24.273 17.4889L19.3499 14.6545L13.6816 17.9178L8.51549 20.892L13.4343 23.676Z" fill="#FF2D20"/>
</g>
<defs>
<clipPath id="clip0_218_108882">
<rect width="32" height="32" fill="white" transform="translate(0.5 0.0883789)"/>
</clipPath>
</defs>
</svg>
