<svg width="32" height="33" viewBox="0 0 32 33" fill="none" xmlns="http://www.w3.org/2000/svg">
<path d="M15.7199 0.201093C14.4217 0.207125 13.1822 0.317822 12.0922 0.510898C8.87809 1.07869 8.29472 2.26665 8.29472 4.45851V7.35267H15.8869V8.3172H8.29472H5.44587C3.23929 8.3172 1.3057 9.64364 0.702509 12.1657C0.00530577 15.057 -0.0255615 16.8637 0.702509 19.8825C1.24226 22.1304 2.53132 23.731 4.73791 23.731H7.3486V20.262C7.3486 17.7558 9.51695 15.5441 12.092 15.5441H19.6757C21.7868 15.5441 23.4732 13.8059 23.4732 11.6871V4.45738C23.4732 2.39975 21.7373 0.855252 19.6757 0.509766C18.3713 0.292647 17.018 0.194013 15.7196 0.19996L15.7199 0.201093ZM11.6137 2.5286C12.3981 2.5286 13.0384 3.17964 13.0384 3.97993C13.0384 4.77738 12.3978 5.42247 11.6137 5.42247C10.8267 5.42247 10.189 4.77766 10.189 3.97993C10.189 3.17964 10.8267 2.5286 11.6137 2.5286Z" fill="url(#paint0_linear_218_108887)"/>
<path d="M24.4195 8.31494V11.6877C24.4195 14.3018 22.2033 16.5018 19.6762 16.5018H12.0924C10.015 16.5018 8.29492 18.2797 8.29492 20.3588V27.5886C8.29492 29.6462 10.0844 30.8565 12.0924 31.4456C14.4958 32.1524 16.8018 32.2801 19.6762 31.4456C21.5877 30.8922 23.4737 29.7782 23.4737 27.5886V24.6944H15.89V23.7299H23.4737H27.2712C29.4778 23.7299 30.3013 22.1908 31.0687 19.8814C31.8614 17.5029 31.8277 15.2145 31.0687 12.1646C30.5233 9.9679 29.4818 8.31607 27.2712 8.31607H24.4224L24.4195 8.31494ZM20.1547 26.6257C20.9417 26.6257 21.5795 27.2706 21.5795 28.0683C21.5795 28.8686 20.9417 29.5196 20.1547 29.5196C19.3703 29.5196 18.73 28.8686 18.73 28.0683C18.73 27.2708 19.3706 26.6257 20.1547 26.6257Z" fill="url(#paint1_linear_218_108887)"/>
<defs>
<linearGradient id="paint0_linear_218_108887" x1="0.167465" y1="0.20047" x2="17.6818" y2="15.1197" gradientUnits="userSpaceOnUse">
<stop stop-color="#5A9FD4"/>
<stop offset="1" stop-color="#306998"/>
</linearGradient>
<linearGradient id="paint1_linear_218_108887" x1="19.9756" y1="27.8344" x2="13.6824" y2="19.0294" gradientUnits="userSpaceOnUse">
<stop stop-color="#FFD43B"/>
<stop offset="1" stop-color="#FFE873"/>
</linearGradient>
</defs>
</svg>
