<svg width="37" height="33" viewBox="0 0 37 33" fill="none" xmlns="http://www.w3.org/2000/svg">
<g clip-path="url(#clip0_218_108899)">
<path d="M18.4389 19.2862C20.205 19.2862 21.6368 17.8545 21.6368 16.0884C21.6368 14.3223 20.205 12.8906 18.4389 12.8906C16.6728 12.8906 15.2411 14.3223 15.2411 16.0884C15.2411 17.8545 16.6728 19.2862 18.4389 19.2862Z" fill="#61DAFB"/>
<path fill-rule="evenodd" clip-rule="evenodd" d="M3.15102 14.1171C2.37915 14.8139 2.05991 15.4814 2.05991 16.0884C2.05991 16.6954 2.37915 17.3628 3.15102 18.0596C3.92281 18.7563 5.0834 19.4195 6.58392 19.9924C9.57959 21.1362 13.7708 21.86 18.4389 21.86C23.1071 21.86 27.2983 21.1362 30.294 19.9924C31.7945 19.4195 32.9551 18.7563 33.7269 18.0596C34.4987 17.3628 34.818 16.6954 34.818 16.0884C34.818 15.4814 34.4987 14.8139 33.7269 14.1171C32.9551 13.4204 31.7945 12.7573 30.294 12.1843C27.2983 11.0405 23.1071 10.3167 18.4389 10.3167C13.7708 10.3167 9.57959 11.0405 6.58392 12.1843C5.0834 12.7573 3.92281 13.4204 3.15102 14.1171ZM6.02749 10.727C9.24215 9.49963 13.6305 8.75681 18.4389 8.75681C23.2474 8.75681 27.6357 9.49963 30.8504 10.727C32.455 11.3397 33.8073 12.0883 34.7721 12.9592C35.7368 13.8301 36.3779 14.8862 36.3779 16.0884C36.3779 17.2906 35.7368 18.3466 34.7721 19.2175C33.8073 20.0885 32.455 20.837 30.8504 21.4497C27.6357 22.6771 23.2474 23.4199 18.4389 23.4199C13.6305 23.4199 9.24215 22.6771 6.02749 21.4497C4.42285 20.837 3.07056 20.0885 2.10576 19.2175C1.14105 18.3466 0.5 17.2906 0.5 16.0884C0.5 14.8862 1.14105 13.8301 2.10576 12.9592C3.07056 12.0883 4.42285 11.3397 6.02749 10.727Z" fill="#61DAFB"/>
<path fill-rule="evenodd" clip-rule="evenodd" d="M12.5021 1.86304C11.5128 1.54297 10.7751 1.60022 10.2494 1.90372C9.72374 2.20722 9.30534 2.81742 9.08785 3.83427C8.87037 4.85101 8.87634 6.1877 9.13043 7.77365C9.6377 10.9399 11.1064 14.9314 13.4405 18.9742C15.7746 23.017 18.4971 26.2847 20.9855 28.3072C22.2319 29.3202 23.3865 29.9937 24.3758 30.3137C25.3651 30.6338 26.1028 30.5765 26.6285 30.273C27.1541 29.9695 27.5725 29.3593 27.79 28.3425C28.0075 27.3257 28.0015 25.9891 27.7475 24.4031C27.2402 21.2369 25.7714 17.2453 23.4373 13.2025C21.1033 9.15978 18.3808 5.89203 15.8924 3.8696C14.646 2.85658 13.4914 2.18307 12.5021 1.86304ZM16.8763 2.65908C19.5466 4.82935 22.384 8.25835 24.7883 12.4226C27.1925 16.5868 28.7434 20.7587 29.2877 24.1563C29.5594 25.8523 29.5873 27.3977 29.3154 28.6688C29.0436 29.9397 28.4495 31.0229 27.4084 31.624C26.3673 32.225 25.1322 32.1979 23.8956 31.7979C22.659 31.3978 21.3345 30.601 20.0016 29.5177C17.3313 27.3474 14.4938 23.9184 12.0896 19.7542C9.68539 15.5899 8.13452 11.4181 7.59016 8.02042C7.31844 6.32441 7.29058 4.77901 7.56244 3.508C7.83428 2.2371 8.42836 1.15389 9.46947 0.552799C10.5106 -0.0482865 11.7457 -0.0211719 12.9823 0.378862C14.2189 0.77893 15.5434 1.57576 16.8763 2.65908Z" fill="#61DAFB"/>
<path fill-rule="evenodd" clip-rule="evenodd" d="M27.79 3.83427C27.5725 2.81742 27.1541 2.20722 26.6285 1.90372C26.1028 1.60022 25.3651 1.54297 24.3758 1.86304C23.3865 2.18307 22.2319 2.85658 20.9855 3.8696C18.4971 5.89203 15.7746 9.15978 13.4405 13.2025C11.1064 17.2453 9.6377 21.2369 9.13043 24.4031C8.87634 25.9891 8.87037 27.3257 9.08784 28.3425C9.30534 29.3593 9.72374 29.9695 10.2494 30.273C10.7751 30.5765 11.5128 30.6338 12.5021 30.3137C13.4914 29.9937 14.646 29.3202 15.8924 28.3072C18.3808 26.2847 21.1033 23.017 23.4373 18.9742C25.7714 14.9314 27.2402 10.9399 27.7475 7.77365C28.0015 6.1877 28.0075 4.85101 27.79 3.83427ZM29.2877 8.02042C28.7434 11.4181 27.1925 15.5899 24.7883 19.7542C22.384 23.9184 19.5466 27.3474 16.8763 29.5177C15.5433 30.601 14.2189 31.3978 12.9823 31.7979C11.7457 32.1979 10.5106 32.225 9.46947 31.624C8.42836 31.0229 7.83427 29.9397 7.56244 28.6688C7.29058 27.3977 7.31844 25.8523 7.59016 24.1563C8.13452 20.7587 9.68539 16.5868 12.0896 12.4226C14.4938 8.25834 17.3313 4.82935 20.0016 2.65908C21.3345 1.57576 22.659 0.77893 23.8956 0.378861C25.1322 -0.0211723 26.3673 -0.0482869 27.4084 0.552799C28.4495 1.15389 29.0436 2.2371 29.3154 3.508C29.5873 4.77901 29.5594 6.32441 29.2877 8.02042Z" fill="#61DAFB"/>
</g>
<defs>
<clipPath id="clip0_218_108899">
<rect width="35.9665" height="32" fill="white" transform="translate(0.516602 0.0883789)"/>
</clipPath>
</defs>
</svg>
