<svg stroke="currentColor" width="26" height="26" viewBox="0 0 26 26" fill="none" xmlns="http://www.w3.org/2000/svg">
<path d="M7.17725 11.3008C7.17725 10.2154 8.05725 9.33545 9.14258 9.33545C10.2279 9.33545 11.1079 10.2154 11.1079 11.3008C11.1079 13.7568 7.17725 13.7568 7.17725 16.6661H11.1079" stroke-width="1.5" stroke-linecap="round" stroke-linejoin="round"/>
<path d="M17.709 16.6662C17.709 16.6662 17.709 15.5008 17.709 14.9928H18.8223H17.709H14.557C13.9917 14.9928 13.6357 14.3848 13.9197 13.8955C14.7077 12.5395 15.6197 11.0048 16.4557 9.65283C16.8143 9.0715 17.709 9.33283 17.709 10.0155V14.9928" stroke-width="1.5" stroke-linecap="round" stroke-linejoin="round"/>
<path d="M24.2314 3.40381V7.26114H20.374H24.2314" stroke-width="1.5" stroke-linecap="round" stroke-linejoin="round"/>
<path d="M23.54 7.26133C21.5053 3.532 17.5493 1 13 1C6.372 1 1 6.37333 1 13C1 19.6267 6.372 25 13 25C19.628 25 25 19.6267 25 13" stroke-width="1.5" stroke-linecap="round" stroke-linejoin="round"/>
</svg>
