<svg width="52" height="35" viewBox="0 0 52 35" fill="none" xmlns="http://www.w3.org/2000/svg">
  <path d="M50.5059 15.6034C50.5059 26.8975 47.6729 33.1319 36.3511 33.1319C25.0293 33.1319 9.50586 36.6356 9.50586 25.3414C9.50586 14.0473 18.684 1.64551 30.0059 1.64551C41.3277 1.64551 50.5059 4.30921 50.5059 15.6034Z" stroke="white" stroke-width="2"/>
  <path d="M39.991 20.0304C40.474 19.7624 40.6482 19.1537 40.3803 18.6708L36.0136 10.8011C35.7457 10.3182 35.137 10.1439 34.654 10.4118C34.1711 10.6798 33.9969 11.2885 34.2648 11.7714L38.1463 18.7667L31.151 22.6482C30.668 22.9162 30.4938 23.5249 30.7617 24.0078C31.0297 24.4907 31.6384 24.665 32.1213 24.397L39.991 20.0304ZM0.990327 25.5203C4.20714 23.7389 10.0278 21.3037 16.936 19.8604C23.8453 18.4168 31.7679 17.9809 39.2306 20.1174L39.7811 18.1946C31.9038 15.9395 23.6306 16.4185 16.527 17.9026C9.42225 19.387 3.41291 21.8925 0.0213915 23.7707L0.990327 25.5203Z" fill="white"/>
</svg>
