<svg width="52" height="35" viewBox="0 0 52 35" fill="none" xmlns="http://www.w3.org/2000/svg">
  <path d="M1.49414 15.6034C1.49414 26.8975 4.32706 33.1319 15.6489 33.1319C26.9707 33.1319 42.4941 36.6356 42.4941 25.3414C42.4941 14.0473 33.316 1.64551 21.9941 1.64551C10.6723 1.64551 1.49414 4.30921 1.49414 15.6034Z" stroke="white" stroke-width="2"/>
  <path d="M12.009 20.0304C11.526 19.7624 11.3518 19.1537 11.6197 18.6708L15.9864 10.8011C16.2543 10.3182 16.863 10.1439 17.346 10.4118C17.8289 10.6798 18.0031 11.2885 17.7352 11.7714L13.8537 18.7667L20.849 22.6482C21.332 22.9162 21.5062 23.5249 21.2383 24.0078C20.9703 24.4907 20.3616 24.665 19.8787 24.397L12.009 20.0304ZM51.0097 25.5203C47.7929 23.7389 41.9722 21.3037 35.064 19.8604C28.1547 18.4168 20.2321 17.9809 12.7694 20.1174L12.2189 18.1946C20.0962 15.9395 28.3694 16.4185 35.473 17.9026C42.5777 19.387 48.5871 21.8925 51.9786 23.7707L51.0097 25.5203Z" fill="white"/>
</svg>
