<svg width="24" height="24" viewBox="0 0 24 24" fill="none" xmlns="http://www.w3.org/2000/svg">
<path fill-rule="evenodd" clip-rule="evenodd" d="M11.8358 1.15039C11.0908 1.15039 10.3663 1.23559 9.66814 1.39315V11.3232C9.66814 12.5401 10.6441 13.5325 11.8415 13.5325C13.0383 13.5325 14.014 12.5401 14.014 11.3238C14.014 10.1549 13.1155 9.19543 11.986 9.11909V7.35075C14.0731 7.4277 15.7526 9.18291 15.7526 11.3238C15.7526 13.5132 13.9956 15.3002 11.8415 15.3002C9.68646 15.3002 7.92975 13.5132 7.92975 11.3232V1.95502C7.68283 2.06159 7.44161 2.17976 7.2052 2.30679V11.3232C7.2055 13.9185 9.28844 16.0349 11.8415 16.0349C14.3949 16.0349 16.4769 13.9185 16.4769 11.3238C16.4769 8.77739 14.4733 6.69208 11.986 6.61361V4.84587C15.4303 4.92496 18.2147 7.80451 18.2147 11.3238C18.2147 14.8929 15.3516 17.8026 11.8415 17.8026C8.33048 17.8026 5.46651 14.8929 5.46651 11.3232V3.47938C3.2496 5.343 1.83594 8.16118 1.83594 11.3156C1.83594 16.9296 6.31302 21.4819 11.8361 21.4819C17.3601 21.4819 21.8359 16.9296 21.8359 11.3156C21.8359 5.70149 17.3601 1.15039 11.8358 1.15039Z" fill="white"/>
</svg>
