<svg stroke="currentColor" width="32" height="32" viewBox="0 0 32 32" fill="none" xmlns="http://www.w3.org/2000/svg">
<path fill-rule="evenodd" clip-rule="evenodd" d="M7.97593 28.0046H5.32949C4.59292 28.0043 3.99587 27.4073 3.99561 26.6707V18.6674C3.99587 17.9308 4.59292 17.3338 5.32949 17.3335H7.97593C8.71251 17.3338 9.30955 17.9308 9.30982 18.6674V26.6707C9.30955 27.4073 8.71251 28.0043 7.97593 28.0046V28.0046Z" stroke-width="1.5" stroke-linecap="round" stroke-linejoin="round"/>
<path d="M17.2809 22.6693H20.3808C20.956 22.6694 21.5156 22.4821 21.9748 22.1357L25.1842 19.7187C25.9849 19.1157 27.1078 19.196 27.8146 19.9068V19.9068C28.6003 20.6972 28.6003 21.9736 27.8146 22.764L25.0615 25.5291C24.3205 26.2735 23.3753 26.7813 22.3457 26.9884L18.452 27.7701C17.6803 27.925 16.8838 27.9059 16.1204 27.7141L12.6003 26.831C12.1791 26.7244 11.7462 26.6707 11.3117 26.671H9.30957" stroke-width="1.5" stroke-linecap="round" stroke-linejoin="round"/>
<path d="M17.2809 22.6691H19.2537C20.3676 22.6668 21.2687 21.7621 21.2666 20.6482V20.244C21.268 19.3185 20.6395 18.5106 19.7419 18.2846L16.6966 17.5202C16.202 17.3962 15.694 17.3335 15.184 17.3335V17.3335C13.9518 17.3334 12.7474 17.6997 11.7239 18.3859L9.30957 20.0013" stroke-width="1.5" stroke-linecap="round" stroke-linejoin="round"/>
<ellipse cx="22.6703" cy="9.33055" rx="6.66944" ry="2.66778" transform="rotate(-45 22.6703 9.33055)" stroke-width="1.5" stroke-linecap="round" stroke-linejoin="round"/>
<ellipse cx="22.6703" cy="9.33058" rx="2.66778" ry="6.66944" transform="rotate(-45 22.6703 9.33058)" stroke-width="1.5" stroke-linecap="round" stroke-linejoin="round"/>
</svg>
