<svg width="24" height="24" viewBox="0 0 24 24" fill="none" xmlns="http://www.w3.org/2000/svg">
<g clip-path="url(#clip0_752_10051)">
<path fill-rule="evenodd" clip-rule="evenodd" d="M23.3652 5.33717C23.3737 5.36862 23.3781 5.40105 23.3782 5.43363V10.4976C23.3782 10.5626 23.361 10.6265 23.3284 10.6827C23.2959 10.739 23.249 10.7856 23.1926 10.8179L18.9423 13.265V18.1153C18.9423 18.2473 18.8722 18.3692 18.7577 18.4356L9.88555 23.543C9.86524 23.5546 9.84309 23.5619 9.82094 23.5698C9.81263 23.5726 9.80478 23.5776 9.79601 23.5799C9.73399 23.5963 9.6688 23.5963 9.60678 23.5799C9.59663 23.5772 9.5874 23.5716 9.57771 23.5679C9.5574 23.5606 9.53617 23.5541 9.51678 23.543L0.646476 18.4356C0.590126 18.4033 0.543304 18.3566 0.51073 18.3004C0.478157 18.2441 0.460982 18.1803 0.460938 18.1153L0.460938 2.92333C0.460938 2.89009 0.465553 2.85779 0.473861 2.8264C0.47663 2.81579 0.483091 2.80609 0.486784 2.79548C0.493707 2.77609 0.500168 2.75625 0.510322 2.73825C0.517245 2.72625 0.527399 2.71656 0.535707 2.70548C0.546322 2.69071 0.556014 2.67548 0.568476 2.66256C0.579091 2.65194 0.592937 2.64409 0.604938 2.63486C0.618322 2.62379 0.630322 2.61179 0.645553 2.60302L5.0814 0.0493252C5.13756 0.0170085 5.20122 0 5.26601 0C5.33081 0 5.39447 0.0170085 5.45063 0.0493252L9.88601 2.60302H9.88694C9.90171 2.61225 9.91417 2.62379 9.92755 2.6344C9.93955 2.64363 9.95294 2.65194 9.96355 2.66209C9.97648 2.67548 9.98571 2.69071 9.99678 2.70548C10.0046 2.71656 10.0152 2.72625 10.0217 2.73825C10.0323 2.75671 10.0383 2.77609 10.0457 2.79548C10.0494 2.80609 10.0559 2.81579 10.0586 2.82686C10.0671 2.85832 10.0715 2.89075 10.0716 2.92333V12.4121L13.7676 10.2839V5.43317C13.7676 5.40086 13.7722 5.36809 13.7805 5.33717C13.7837 5.32609 13.7897 5.3164 13.7934 5.30579C13.8008 5.2864 13.8072 5.26656 13.8174 5.24856C13.8243 5.23656 13.8345 5.22686 13.8423 5.21579C13.8534 5.20102 13.8626 5.18579 13.8756 5.17286C13.8862 5.16225 13.8996 5.1544 13.9116 5.14517C13.9254 5.13409 13.9374 5.12209 13.9522 5.11333L18.3885 2.55963C18.4446 2.52727 18.5083 2.51024 18.5731 2.51024C18.6379 2.51024 18.7016 2.52727 18.7577 2.55963L23.1931 5.11333C23.2088 5.12256 23.2208 5.13409 23.2346 5.14471C23.2462 5.15394 23.2596 5.16225 23.2702 5.1724C23.2831 5.18579 23.2923 5.20102 23.3034 5.21579C23.3117 5.22686 23.3219 5.23656 23.3283 5.24856C23.3389 5.26656 23.3449 5.2864 23.3523 5.30579C23.3565 5.3164 23.3625 5.32609 23.3652 5.33717ZM22.6388 10.2839V6.07286L21.0866 6.9664L18.9423 8.20102V12.4121L22.6392 10.2839H22.6388ZM18.2034 17.9016V13.6878L16.0942 14.8924L10.0711 18.3299V22.5835L18.2034 17.9016ZM1.20032 3.56256V17.9016L9.33171 22.583V18.3304L5.08371 15.9262L5.08232 15.9253L5.08048 15.9244C5.06617 15.9161 5.05417 15.9041 5.04078 15.8939C5.02925 15.8847 5.01586 15.8773 5.00571 15.8672L5.00478 15.8658C4.99278 15.8542 4.98448 15.8399 4.97432 15.827C4.96509 15.8146 4.95401 15.8039 4.94663 15.791L4.94617 15.7896C4.93786 15.7758 4.93278 15.7592 4.92678 15.7435C4.92078 15.7296 4.91294 15.7167 4.90925 15.7019C4.90463 15.6844 4.90371 15.6655 4.90186 15.6475C4.90001 15.6336 4.89632 15.6198 4.89632 15.6059V15.605V5.69071L2.75248 4.45563L1.20032 3.56256ZM5.26648 0.796094L1.57094 2.92333L5.26555 5.05056L8.96063 2.92286L5.26555 0.796094H5.26648ZM7.18832 14.0718L9.33217 12.8376V3.56256L7.78001 4.45609L5.63571 5.69071V14.9658L7.18832 14.0718ZM18.5731 3.3064L14.878 5.43363L18.5731 7.56086L22.2677 5.43317L18.5731 3.3064ZM18.2034 8.20102L16.0591 6.9664L14.5069 6.07286V10.2839L16.6508 11.5181L18.2034 12.4121V8.20102ZM9.70094 17.6907L15.1208 14.5966L17.83 13.0504L14.1377 10.9246L9.88648 13.3721L6.01186 15.6027L9.70094 17.6907Z" fill="white"/>
</g>
<defs>
<clipPath id="clip0_752_10051">
<rect width="24" height="24" fill="white"/>
</clipPath>
</defs>
</svg>
