<svg stroke="currentColor" width="32" height="32" viewBox="0 0 32 32" fill="none" xmlns="http://www.w3.org/2000/svg">
<path d="M13.9998 24.0039H6.66338C5.19001 24.0039 3.99561 22.8095 3.99561 21.3362V6.66338C3.99561 5.19001 5.19001 3.99561 6.66338 3.99561H21.3362C22.8095 3.99561 24.0039 5.19001 24.0039 6.66338V13.9998" stroke-width="1.5" stroke-linecap="round" stroke-linejoin="round"/>
<path d="M24.0039 13.9995H3.99561" stroke-width="1.5" stroke-linecap="round" stroke-linejoin="round"/>
<path d="M13.9995 3.99561V24.0039" stroke-width="1.5" stroke-linecap="round" stroke-linejoin="round"/>
<path fill-rule="evenodd" clip-rule="evenodd" d="M24.3944 27.6141L28.9483 23.0602C29.4691 22.5393 29.4691 21.6949 28.9483 21.1741L26.8328 19.0585C26.3119 18.5378 25.4676 18.5378 24.9467 19.0585L20.3928 23.6124C20.1426 23.8625 20.002 24.2017 20.002 24.5555V28.0049H23.4514C23.8051 28.0049 24.1444 27.8642 24.3944 27.6141Z" stroke-width="1.5" stroke-linecap="round" stroke-linejoin="round"/>
</svg>
