<svg width="115" height="28" viewBox="0 0 115 28" fill="none" xmlns="http://www.w3.org/2000/svg">
    <path d="M52.1676 0.319056H49.0519L46.8663 12.8887H50.4324L52.1436 3.0475H62.3087C62.8563 3.0475 64.0067 3.11759 64.0067 4.07824C64.0067 5.39855 62.9139 5.39855 62.2236 5.39855H57.5085L57.1869 7.60246C57.1869 7.60246 61.361 7.6022 61.7635 7.60246C63.2823 7.60322 63.7805 7.76148 63.7191 8.54224C63.6668 9.20735 63.374 9.59951 62.5089 9.66984H52.662L52.2155 12.8254C52.2155 12.8254 63.1366 12.8712 63.549 12.8127C65.8315 12.4886 67.0633 11.0352 67.0696 8.65898C67.0729 7.39757 66.5972 6.83379 65.3286 6.59593L64.8913 6.51396L65.3525 6.39845C66.9287 6.00358 67.7941 4.77111 67.8027 2.90874C67.8104 1.23063 66.9651 0.495717 64.8475 0.346514C63.9859 0.28578 52.5467 0.317972 52.1676 0.319056Z" fill="white"/>
    <path d="M99.4955 12.8888L96.5263 9.83269C98.0228 9.78555 99.5148 8.9615 100.107 7.53087C100.74 6.00096 101.036 4.34508 100.973 2.6829C100.964 0.805499 99.299 0.319084 97.5303 0.319084H70.5063L70.0125 3.30468H95.4389C96.8786 3.21612 97.1133 3.94735 97.1133 4.88714C97.1133 6.1104 96.7053 6.58638 95.44 6.72243C95.4424 6.72243 95.439 6.72254 93.5037 6.72149L92.2482 5.42919H87.1866L94.4339 12.8888H99.4955Z" fill="white"/>
    <path d="M31.7501 0.427036L36.8248 7.35799L38.9974 4.65609L35.9045 0.427036H31.7501Z" fill="white"/>
    <path d="M91.112 27.5615H95.2308L97.0353 25.0612H102.037L102.382 22.6149H98.8008L102.266 17.8131H105.094L103.418 27.5488H107.127C107.927 23.4429 108.602 19.245 109.248 15.1113H99.9667C99.9667 15.1113 93.9736 23.5521 91.112 27.5615Z" fill="white"/>
    <path d="M60.0023 22.9679C60.1334 22.1463 61.3173 15.1208 61.3173 15.1208H65.0345L65.0061 15.2744C64.6052 17.2227 63.7916 22.4619 63.8075 22.993C63.8499 24.4071 64.2888 24.6908 66.5752 24.7817C69.2753 24.8891 70.4758 24.7156 71.1354 24.1227C71.7202 23.597 71.8911 23.0882 72.2859 20.6963L73.082 15.1208H88.5716C90.3403 15.1208 92.0056 15.6072 92.0147 17.4846C92.0772 19.1468 91.7815 20.8026 91.1487 22.3326C90.5561 23.7632 89.0641 24.5872 87.5676 24.6344L90.5368 27.6905H85.4752L78.2279 20.2309H83.2895L84.545 21.5232C86.4803 21.5242 86.4837 21.5241 86.4813 21.5241C87.7466 21.3881 88.1546 20.9121 88.1546 19.6888C88.1546 18.749 87.9199 18.0178 86.4802 18.1064H76.3563L75.9109 21.1732C75.163 25.5878 74.278 26.9484 71.7669 27.5438C71.1498 27.6901 63.6178 27.7499 62.7248 27.6155C61.1948 27.3854 60.3664 26.7439 60.0291 25.5282C59.9201 25.1353 59.9038 23.5856 60.0023 22.9679Z" fill="white"/>
    <path d="M5.50731 15.1688C2.99569 15.3482 1.87291 16.1472 1.30859 18.1571C0.775887 20.0542 1.0417 21.4401 2.05485 22.0485C2.84924 22.5255 3.26956 22.5721 7.17877 22.6162C10.9891 22.6592 11.1618 22.6775 11.6392 23.0885C12.0303 23.4254 11.915 24.109 11.43 24.3281C11.038 24.5052 10.5777 24.5202 5.45608 24.5217L0.415048 24.5233L0.193136 26.0324C0.0710705 26.8624 -0.0148624 27.5503 0.0021472 27.5611C0.084688 27.6131 11.6069 27.5914 12.0211 27.5384C13.8664 27.3022 14.8241 26.4372 15.3366 24.5443C15.9965 22.1063 15.6023 20.751 14.0693 20.187C13.2957 19.9024 13.1311 19.8915 9.09604 19.8591C5.51252 19.8304 5.37772 19.8259 5.19096 19.729C4.43441 19.3364 4.83281 18.4366 5.43357 18.1727C5.69734 18.0568 10.693 18.1476 10.693 18.1476L20.899 18.1225L23.1254 15.1355L11.0502 15.1442C8.1233 15.1491 5.62898 15.1601 5.50731 15.1688Z" fill="white"/>
    <path d="M112.93 27.3222C112.91 27.4252 112.879 27.5858 112.879 27.5858H109.17L111.311 15.1482L115 15.2128C115 15.2128 113.843 22.6131 112.93 27.3222Z" fill="white"/>
    <path d="M36.8956 15.1355L34.5686 27.5857C34.5686 27.5857 38.2556 27.6407 38.2556 27.5857C38.2556 27.5857 39.988 18.5187 40.0127 18.4931C40.0127 18.4936 47.2139 26.8744 47.2139 26.8744L55.7066 18.4661L54.1494 27.5857H57.8364L59.9503 15.1355H54.5879L47.5383 21.745L42.2752 15.1355H36.8956Z" fill="white"/>
    <path d="M20.5721 27.5615H16.4533L25.308 15.1113H34.5895C33.9433 19.245 33.2679 23.4429 32.4686 27.5488H28.7591L30.4351 17.8131H27.6075L24.1421 22.6149H27.7238L27.3787 25.0612H22.3766L20.5721 27.5615Z" fill="white"/>
    <path d="M68.2052 12.882C68.2055 12.882 69.4834 5.45913 69.4834 5.45913H84.6858L84.2496 7.90541H72.861L72.4775 9.74297H83.8869L83.3964 12.8886L68.2052 12.882Z" fill="white"/>
    <path d="M39.5501 12.8773L48.0853 0.427036H43.6151L36.9252 9.81286L30.7632 9.79098C30.1545 9.78764 29.5485 9.78473 28.9512 9.78187C24.1334 9.75873 19.8864 9.73834 19.4376 9.51927C18.7465 9.18191 18.5951 8.28183 18.9256 6.47565C19.3025 4.41646 19.6776 3.82051 20.8132 3.47676C21.0889 3.39332 21.5693 3.37194 21.5693 3.37194L29.2311 3.35725L29.7833 0.319084H20.5156C17.0498 0.532476 15.8374 2.02396 15.0635 6.95695C14.4423 10.9164 15.0524 12.2726 17.6777 12.7684C18.5081 12.9254 20.5156 12.8887 20.5156 12.8887C25.62 12.8887 39.5501 12.8773 39.5501 12.8773Z" fill="white"/>
</svg>
