<svg width="24" height="24" viewBox="0 0 24 24" fill="none" xmlns="http://www.w3.org/2000/svg">
<path fill-rule="evenodd" clip-rule="evenodd" d="M20.01 11.2161C19.6657 5.59544 13.5437 0.731787 11.0217 0.678104C8.49872 0.623737 3.78362 6.57645 3.59271 12.6246C3.41394 18.2955 8.25383 22.1843 10.3373 22.6777C10.3953 20.0096 10.6089 10.1862 10.6446 9.04076C10.7198 6.69989 10.8348 3.05762 11.2258 2.93657C11.4501 2.86716 11.7557 4.91465 11.7182 6.12476C11.7105 6.35556 11.7078 7.10337 11.7078 8.16473C12.1297 7.7356 12.5702 7.29006 12.8381 7.02677C13.5724 6.3053 13.8972 6.39112 13.545 7.03464C13.3282 7.4306 12.3955 8.74704 11.7098 9.70103C11.7135 11.6251 11.7223 14.0467 11.7314 16.3031C12.6998 15.1696 13.8854 13.8107 14.508 13.2065C15.8144 11.9404 15.9534 12.1 15.3364 13.4291C14.9576 14.2436 13.1052 16.4163 11.7381 18.1297C11.7466 20.132 11.7533 21.8154 11.7547 22.6189C15.4221 21.8123 20.347 16.7346 20.01 11.2161Z" fill="white"/>
</svg>
