<svg stroke="currentColor" width="29" height="25" viewBox="0 0 29 25" fill="none" xmlns="http://www.w3.org/2000/svg">
<path d="M20.3332 21.3336V22.6669C20.3332 23.4029 19.7358 24.0003 18.9998 24.0003H2.99984C2.26384 24.0003 1.6665 23.4029 1.6665 22.6669V21.3336V21.3123C1.6665 17.2776 6.27717 14.6562 10.9998 14.6562C15.7225 14.6562 20.3332 17.2789 20.3332 21.3123" stroke-width="1.5" stroke-linecap="round" stroke-linejoin="round"/>
<path d="M14.292 2.69721C16.1103 4.51549 16.1103 7.4635 14.292 9.28178C12.4738 11.1001 9.52574 11.1001 7.70746 9.28178C5.88918 7.4635 5.88918 4.51549 7.70746 2.69721C9.52574 0.878926 12.4738 0.878926 14.292 2.69721" stroke-width="1.5" stroke-linecap="round" stroke-linejoin="round"/>
<path d="M25.9372 2.86963C27.0652 2.86963 27.8226 3.86296 27.8226 4.7883C27.8226 6.66563 24.6799 8.20296 24.6226 8.20296" stroke-width="1.5" stroke-linecap="round" stroke-linejoin="round"/>
<path d="M23.3092 2.86963C22.1812 2.86963 21.4238 3.86296 21.4238 4.7883C21.4238 6.66563 24.5665 8.20296 24.6238 8.20296" stroke-width="1.5" stroke-linecap="round" stroke-linejoin="round"/>
<path d="M24.6241 3.44028C24.8694 3.17228 25.2934 2.86961 25.9387 2.86961" stroke-width="1.5" stroke-linecap="round" stroke-linejoin="round"/>
<path d="M24.6238 3.44028C24.3785 3.17228 23.9545 2.86961 23.3091 2.86961" stroke-width="1.5" stroke-linecap="round" stroke-linejoin="round"/>
</svg>
