<svg stroke="currentColor" width="33" height="32" viewBox="0 0 33 32" fill="none" xmlns="http://www.w3.org/2000/svg">
<path d="M7.8335 3.3335L9.8335 5.3335L7.8335 7.3335" stroke-width="1.5" stroke-linecap="round" stroke-linejoin="round"/>
<path d="M9.83317 5.3335H7.1665C4.95736 5.3335 3.1665 7.12436 3.1665 9.3335" stroke-width="1.5" stroke-linecap="round" stroke-linejoin="round"/>
<path d="M25.1665 28.6665L23.1665 26.6665L25.1665 24.6665" stroke-width="1.5" stroke-linecap="round" stroke-linejoin="round"/>
<path d="M23.1665 26.6665H25.8332C28.0423 26.6665 29.8332 24.8756 29.8332 22.6665" stroke-width="1.5" stroke-linecap="round" stroke-linejoin="round"/>
<path d="M19.1668 18.6668V25.7779C19.1668 27.0052 18.1719 28.0002 16.9446 28.0002H8.05572C6.82842 28.0002 5.8335 27.0052 5.8335 25.7779V15.5557C5.8335 14.3284 6.82842 13.3335 8.05572 13.3335H13.8335" stroke-width="1.5" stroke-linecap="round" stroke-linejoin="round"/>
<path fill-rule="evenodd" clip-rule="evenodd" d="M26.3677 7.10565L24.0675 4.80545C23.5518 4.28973 22.8523 4 22.1229 4H16.2843C14.9343 4 13.8398 5.09441 13.8398 6.44444V16.2222C13.8398 17.5722 14.9342 18.6667 16.2843 18.6667H24.7287C26.0787 18.6667 27.1731 17.5723 27.1731 16.2222V9.05023C27.1732 8.32087 26.8834 7.62138 26.3677 7.10565Z" stroke-width="1.5" stroke-linecap="round" stroke-linejoin="round"/>
</svg>
