<svg width="20" height="17" viewBox="0 0 20 17" fill="none" xmlns="http://www.w3.org/2000/svg">
  <path fill-rule="evenodd" clip-rule="evenodd" d="M1.92064 6.9857C6.94937 4.69951 10.3026 3.19232 11.9805 2.46411C16.771 0.384945 17.7664 0.0237721 18.4152 0.0118459C18.5579 0.00922288 18.877 0.0461253 19.0836 0.22112C19.2582 0.368882 19.3062 0.568487 19.3291 0.708581C19.3521 0.848676 19.3807 1.16782 19.358 1.41718C19.0984 4.2634 17.9751 11.1704 17.4036 14.3582C17.1618 15.7071 16.6857 16.1594 16.2248 16.2037C15.223 16.2999 14.4623 15.5129 13.4921 14.8492C11.9739 13.8107 11.1162 13.1643 9.64249 12.1509C7.93938 10.9798 9.04343 10.3361 10.014 9.28417C10.268 9.00888 14.6817 4.81975 14.7672 4.43973C14.7778 4.3922 14.7878 4.21504 14.6869 4.12149C14.586 4.02794 14.4372 4.05993 14.3297 4.08537C14.1775 4.12144 11.7521 5.79422 7.05359 9.10373C6.36516 9.59702 5.74159 9.83736 5.1829 9.82477C4.56698 9.81088 3.38221 9.46138 2.50146 9.16263C1.42117 8.79621 0.562587 8.60248 0.637351 7.98018C0.676292 7.65604 1.10406 7.32455 1.92064 6.9857Z" fill="white"/>
</svg>