<svg width="24" height="25" viewBox="0 0 24 25" fill="none" xmlns="http://www.w3.org/2000/svg">
  <path d="M0 24.1113L1.687 17.9483C0.645998 16.1443 0.0989998 14.0993 0.0999998 12.0023C0.103 5.44632 5.43799 0.111328 11.993 0.111328C15.174 0.112328 18.16 1.35133 20.406 3.59932C22.6509 5.84732 23.8869 8.83531 23.8859 12.0133C23.8829 18.5703 18.548 23.9053 11.993 23.9053C10.003 23.9043 8.04198 23.4053 6.30499 22.4573L0 24.1113ZM6.59698 20.3043C8.27298 21.2993 9.87298 21.8953 11.989 21.8963C17.437 21.8963 21.875 17.4623 21.878 12.0113C21.88 6.54931 17.463 2.12132 11.997 2.11932C6.54498 2.11932 2.11 6.55331 2.108 12.0033C2.107 14.2283 2.75899 15.8943 3.85399 17.6373L2.85499 21.2853L6.59698 20.3043ZM17.984 14.8403C17.91 14.7163 17.712 14.6423 17.414 14.4933C17.117 14.3443 15.656 13.6253 15.383 13.5263C15.111 13.4273 14.913 13.3773 14.714 13.6753C14.516 13.9723 13.946 14.6423 13.773 14.8403C13.6 15.0383 13.426 15.0633 13.129 14.9143C12.832 14.7653 11.874 14.4523 10.739 13.4393C9.85598 12.6513 9.25898 11.6783 9.08598 11.3803C8.91298 11.0833 9.06798 10.9223 9.21598 10.7743C9.34998 10.6413 9.51298 10.4273 9.66198 10.2533C9.81298 10.0813 9.86198 9.95731 9.96198 9.75831C10.061 9.56031 10.012 9.38631 9.93698 9.23731C9.86198 9.08931 9.26798 7.62631 9.02098 7.03131C8.77898 6.45231 8.53398 6.53031 8.35198 6.52131L7.78198 6.51131C7.58398 6.51131 7.26198 6.58531 6.98998 6.88331C6.71798 7.18131 5.94999 7.89931 5.94999 9.36231C5.94999 10.8253 7.01498 12.2383 7.16298 12.4363C7.31198 12.6343 9.25798 15.6363 12.239 16.9233C12.948 17.2293 13.502 17.4123 13.933 17.5493C14.645 17.7753 15.293 17.7433 15.805 17.6673C16.376 17.5823 17.563 16.9483 17.811 16.2543C18.059 15.5593 18.059 14.9643 17.984 14.8403Z" fill="white"/>
</svg>
