<svg width="44" height="37" viewBox="0 0 44 37" fill="none" xmlns="http://www.w3.org/2000/svg">
<g clip-path="url(#clip0_226_112939)">
<path fill-rule="evenodd" clip-rule="evenodd" d="M43.6532 35.6009C43.6532 35.7437 43.5965 35.8806 43.4957 35.9816C43.3948 36.0825 43.2579 36.1393 43.1152 36.1393H0.923724C0.781042 36.1393 0.644205 36.0825 0.543313 35.9816C0.442422 35.8806 0.385742 35.7437 0.385742 35.6009V0.623241C0.385742 0.552296 0.399707 0.482046 0.426839 0.416502C0.453971 0.350958 0.493739 0.291404 0.543872 0.241238C0.594006 0.191073 0.653523 0.15128 0.719025 0.12413C0.784527 0.0969811 0.854733 0.0830078 0.925632 0.0830078H43.1152C43.2581 0.0835129 43.3949 0.140653 43.4958 0.241912C43.5966 0.34317 43.6532 0.480292 43.6532 0.623241V35.6009ZM32.8173 30.5689C32.8173 30.6873 32.8592 30.7312 32.9775 30.7312H33.2561C33.2877 30.7353 33.3199 30.7299 33.3484 30.7156C33.377 30.7013 33.4006 30.6788 33.4163 30.651L34.498 28.9998C34.6912 28.7214 34.8488 28.42 34.9673 28.1026H34.9902C34.9014 28.4562 34.8616 28.8204 34.8719 29.1849V30.5689C34.8719 30.6873 34.9139 30.7312 35.0322 30.7312H35.3069C35.4252 30.7312 35.4671 30.6873 35.4671 30.5689V27.5356C35.4671 27.4173 35.4252 27.3753 35.3069 27.3753H35.0283C34.9974 27.3724 34.9663 27.3778 34.9382 27.3908C34.91 27.4039 34.8858 27.4242 34.8681 27.4497L33.8036 29.0666C33.607 29.3599 33.4427 29.6735 33.3133 30.002H33.2942C33.3804 29.6434 33.4183 29.2749 33.4068 28.9062V27.5356C33.4068 27.4173 33.3686 27.3753 33.2465 27.3753H32.9775C32.8592 27.3753 32.8173 27.4173 32.8173 27.5356V30.5689ZM29.6562 30.5689C29.6562 30.6873 29.7 30.7312 29.8164 30.7312H30.0816C30.2037 30.7312 30.2418 30.6873 30.2418 30.5689V29.3071H31.6459V30.5689C31.6459 30.6873 31.6822 30.7312 31.8062 30.7312H32.0752C32.1973 30.7312 32.2354 30.6873 32.2354 30.5689V27.5356C32.2354 27.4173 32.1973 27.3753 32.0752 27.3753H31.8062C31.6822 27.3753 31.6459 27.4173 31.6459 27.5356V28.7554H30.2418V27.5356C30.2418 27.4173 30.2037 27.3753 30.0816 27.3753H29.8107C29.6943 27.3753 29.6504 27.4173 29.6504 27.5356L29.6562 30.5689ZM30.4193 23.6585C30.5433 23.6585 30.5814 23.6165 30.5814 23.4982V23.2653C30.5814 23.1488 30.5433 23.1049 30.4193 23.1049H29.204V22.2784H30.6539C30.7779 22.2784 30.8142 22.2364 30.8142 22.118V21.8851C30.8142 21.7668 30.7779 21.7248 30.6539 21.7248H28.7748C28.6565 21.7248 28.6126 21.7668 28.6126 21.8851V24.9204C28.6126 25.0387 28.6565 25.0807 28.7748 25.0807H30.7073C30.8237 25.0807 30.8676 25.0387 30.8676 24.9204V24.6894C30.8676 24.571 30.8237 24.529 30.7073 24.529H29.204V23.6585H30.4193ZM26.9548 30.5689C26.9548 30.6873 26.9968 30.7312 27.1151 30.7312H29.0476C29.1659 30.7312 29.2078 30.6873 29.2078 30.5689V30.338C29.2078 30.2196 29.1659 30.1776 29.0476 30.1776H27.5462V29.3071H28.7691C28.8931 29.3071 28.9293 29.2651 28.9293 29.1468V28.9158C28.9293 28.7974 28.8931 28.7554 28.7691 28.7554H27.5462V27.9269H28.9961C29.1182 27.9269 29.1563 27.885 29.1563 27.7666V27.5356C29.1563 27.4173 29.1182 27.3753 28.9961 27.3753H27.1151C26.9968 27.3753 26.9548 27.4173 26.9548 27.5356V30.5689ZM28.0994 23.9182V22.8873C28.0994 22.1237 27.6187 21.6541 26.7526 21.6541C25.8865 21.6541 25.4019 22.1276 25.4019 22.8873V23.9182C25.4019 24.6817 25.8846 25.1513 26.7526 25.1513C27.6206 25.1513 28.1147 24.6798 28.1147 23.9182H28.0994ZM23.2328 31.2924C23.2328 31.4108 23.2748 31.4528 23.3931 31.4528H23.6525C23.7708 31.4528 23.8128 31.4108 23.8128 31.2924V30.7312H25.9723V31.2924C25.9723 31.4108 26.0105 31.4528 26.1326 31.4528H26.3882C26.5122 31.4528 26.5542 31.4108 26.5542 31.2924V30.338C26.5542 30.2196 26.5122 30.1776 26.3882 30.1776H26.1421V27.5356C26.1421 27.4173 26.1001 27.3753 25.9819 27.3753H24.097C23.9787 27.3753 23.9368 27.4173 23.9368 27.5356V28.513C23.9368 29.7328 23.704 30.0402 23.5018 30.1776H23.3931C23.2748 30.1776 23.2328 30.2196 23.2328 30.338V31.2924ZM24.8811 22.6086C24.8811 22.0359 24.5224 21.7248 23.9177 21.7248H22.6033C22.485 21.7248 22.443 21.7668 22.443 21.8851V24.9204C22.443 25.0387 22.485 25.0807 22.6033 25.0807H23.9387C24.5568 25.0807 25.0013 24.7543 25.0013 24.1587C25.0013 23.7349 24.822 23.4505 24.5186 23.3417V23.3226C24.6406 23.2503 24.7394 23.1448 24.8036 23.0183C24.8678 22.8919 24.8947 22.7498 24.8811 22.6086ZM20.1613 30.5689C20.1613 30.6873 20.2033 30.7312 20.3216 30.7312H20.6001C20.6318 30.7356 20.6641 30.7303 20.6927 30.716C20.7213 30.7017 20.7449 30.679 20.7604 30.651L21.844 28.9998C22.0359 28.721 22.1928 28.4196 22.3114 28.1026H22.3343C22.2455 28.4562 22.2057 28.8204 22.216 29.1849V30.5689C22.216 30.6873 22.2599 30.7312 22.3762 30.7312H22.6509C22.7692 30.7312 22.8112 30.6873 22.8112 30.5689V27.5356C22.8112 27.4173 22.7692 27.3753 22.6509 27.3753H22.3724C22.3415 27.3724 22.3104 27.3778 22.2822 27.3908C22.2541 27.4039 22.2299 27.4242 22.2122 27.4497L21.1476 29.0666C20.9511 29.3599 20.7867 29.6735 20.6574 30.002H20.6383C20.7245 29.6434 20.7623 29.2749 20.7508 28.9062V27.5356C20.7508 27.4173 20.7146 27.3753 20.5906 27.3753H20.3216C20.2033 27.3753 20.1613 27.4173 20.1613 27.5356V30.5689ZM21.9375 23.9182V22.8873C21.9375 22.1237 21.4548 21.6541 20.5906 21.6541C19.7264 21.6541 19.2399 22.1276 19.2399 22.8873V23.9182C19.2399 24.6817 19.7207 25.1513 20.5906 25.1513C21.4605 25.1513 21.9451 24.6798 21.9451 23.9182H21.9375ZM17.1414 30.5689C17.1414 30.6873 17.1834 30.7312 17.3016 30.7312H18.6371C19.2571 30.7312 19.7016 30.4048 19.7016 29.8092C19.7016 29.3835 19.5223 29.099 19.2189 28.9902V28.9731C19.341 28.9024 19.4406 28.7985 19.5062 28.6735C19.5717 28.5485 19.6004 28.4074 19.589 28.2667C19.589 27.6941 19.2304 27.3829 18.6237 27.3829H17.3112C17.1929 27.3829 17.1509 27.4249 17.1509 27.5433L17.1414 30.5689ZM16.9182 24.9204V23.9143H17.7404C18.431 23.9143 18.8565 23.5077 18.8565 22.8224C18.8565 22.1371 18.4253 21.7248 17.7404 21.7248H16.489C16.3707 21.7248 16.3287 21.7668 16.3287 21.8851V24.9204C16.3287 25.0387 16.3707 25.0807 16.489 25.0807H16.7579C16.8858 25.0807 16.9182 25.0387 16.9182 24.9204ZM14.4381 30.5689C14.4381 30.6873 14.482 30.7312 14.6003 30.7312H16.5328C16.6511 30.7312 16.6931 30.6873 16.6931 30.5689V30.338C16.6931 30.2196 16.6511 30.1776 16.5328 30.1776H15.0295V29.3071H16.2543C16.3764 29.3071 16.4146 29.2651 16.4146 29.1468V28.9158C16.4146 28.7974 16.3764 28.7554 16.2543 28.7554H15.0295V27.9269H16.4794C16.6034 27.9269 16.6416 27.885 16.6416 27.7666V27.5356C16.6416 27.4173 16.6034 27.3753 16.4794 27.3753H14.6003C14.482 27.3753 14.4381 27.4173 14.4381 27.5356V30.5689ZM14.192 25.1762C14.3103 25.1762 14.3523 25.1322 14.3523 25.0158V24.7734H14.5984C15.4302 24.7734 15.8728 24.3209 15.8728 23.5726V23.2099C15.8728 22.4616 15.4302 22.0092 14.5984 22.0092H14.3523V21.7763C14.3523 21.6599 14.3103 21.616 14.192 21.616H13.9364C13.8143 21.616 13.7723 21.6599 13.7723 21.7763V22.0188H13.5262C12.6945 22.0188 12.25 22.4712 12.25 23.2195V23.5822C12.25 24.3305 12.6945 24.7829 13.5262 24.7829H13.7723V25.0215C13.7723 25.138 13.8143 25.1819 13.9364 25.1819L14.192 25.1762ZM11.0557 30.462L11.1778 30.6968C11.2255 30.8056 11.2827 30.8247 11.3915 30.7732C11.8493 30.5518 12.2843 30.2196 12.2843 28.5416V27.9269H13.2935V30.5689C13.2935 30.6873 13.3355 30.7312 13.4537 30.7312H13.7285C13.8467 30.7312 13.8887 30.6873 13.8887 30.5689V27.5356C13.8887 27.4173 13.8467 27.3753 13.7285 27.3753H11.8684C11.7463 27.3753 11.7024 27.4173 11.7024 27.5356V28.5416C11.7024 29.9275 11.3819 30.1203 11.1301 30.2444C11.0233 30.296 11.0042 30.3532 11.0557 30.462ZM11.3056 22.4444H11.3285C11.2397 22.7987 11.1999 23.1636 11.2102 23.5287V24.9127C11.2102 25.0311 11.2522 25.0731 11.3705 25.0731H11.6452C11.7635 25.0731 11.8055 25.0311 11.8055 24.9127V21.8775C11.8055 21.7591 11.7635 21.7171 11.6452 21.7171H11.3667C11.3353 21.7145 11.3038 21.7202 11.2754 21.7336C11.2469 21.747 11.2225 21.7677 11.2045 21.7935L10.1419 23.4104C9.94428 23.703 9.77983 24.0167 9.65162 24.3458H9.63254C9.71875 23.9865 9.7566 23.6174 9.7451 23.2481V21.8775C9.7451 21.7591 9.70695 21.7171 9.58485 21.7171H9.31586C9.19758 21.7171 9.15561 21.7591 9.15561 21.8775V24.9127C9.15561 25.0311 9.19758 25.0731 9.31586 25.0731H9.59439C9.62604 25.0772 9.65821 25.0718 9.68676 25.0575C9.71531 25.0432 9.73895 25.0207 9.75464 24.9929L10.8363 23.3436C11.0294 23.0672 11.187 22.7677 11.3056 22.4521V22.4444ZM8.486 30.5689C8.486 30.6873 8.52987 30.7312 8.64815 30.7312H10.5807C10.699 30.7312 10.7409 30.6873 10.7409 30.5689V30.338C10.7409 30.2196 10.699 30.1776 10.5807 30.1776H9.07739V29.3071H10.3003C10.4243 29.3071 10.4624 29.2651 10.4624 29.1468V28.9158C10.4624 28.7974 10.4243 28.7554 10.3003 28.7554H9.07739V27.9269H10.5273C10.6513 27.9269 10.6894 27.885 10.6894 27.7666V27.5356C10.6894 27.4173 10.6513 27.3753 10.5273 27.3753H8.64815C8.52987 27.3753 8.486 27.4173 8.486 27.5356V30.5689ZM8.17503 25.6438C8.17503 25.7622 8.21319 25.8042 8.33528 25.8042H8.58138C8.70348 25.8042 8.74163 25.7622 8.74163 25.6438V24.6894C8.74163 24.571 8.70348 24.529 8.58138 24.529H8.34482V21.8851C8.34482 21.7668 8.30667 21.7248 8.18457 21.7248H7.91558C7.79158 21.7248 7.75533 21.7668 7.75533 21.8851V24.529H6.39893V21.8851C6.39893 21.7668 6.36078 21.7248 6.23677 21.7248H5.96778C5.8495 21.7248 5.80753 21.7668 5.80753 21.8851V24.9204C5.80753 25.0387 5.8495 25.0807 5.96778 25.0807H8.17503V25.6438ZM5.54808 27.5356V27.7666C5.54808 27.885 5.59005 27.9269 5.70833 27.9269H6.52103V30.5689C6.52103 30.6873 6.563 30.7312 6.68128 30.7312H6.95599C7.07427 30.7312 7.11624 30.6873 7.11624 30.5689V27.9269H7.92894C8.05294 27.9269 8.08919 27.885 8.08919 27.7666V27.5356C8.08919 27.4173 8.05294 27.3753 7.92894 27.3753H5.70833C5.59005 27.3753 5.54808 27.4173 5.54808 27.5356ZM22.4258 13.6003H21.1286L21.2087 13.06V5.89767C21.2087 5.84461 21.1982 5.79208 21.1779 5.74309C21.1575 5.69409 21.1277 5.6496 21.0901 5.61218C21.0525 5.57475 21.0079 5.54512 20.9589 5.52499C20.9098 5.50486 20.8573 5.49463 20.8043 5.49488H16.2047C16.1517 5.49463 16.0991 5.50486 16.0501 5.52499C16.001 5.54512 15.9564 5.57475 15.9188 5.61218C15.8813 5.6496 15.8514 5.69409 15.8311 5.74309C15.8107 5.79208 15.8003 5.84461 15.8003 5.89767V13.6079H11.1225L11.195 13.0696V5.89767C11.1952 5.8447 11.185 5.79221 11.1649 5.74323C11.1447 5.69425 11.1151 5.64974 11.0776 5.61229C11.0402 5.57484 10.9957 5.54518 10.9468 5.52503C10.8978 5.50487 10.8454 5.49463 10.7924 5.49488H6.20053C6.09309 5.49488 5.99002 5.53746 5.91387 5.6133C5.83772 5.68914 5.79468 5.79207 5.79418 5.89958V15.5016C5.79417 15.6092 5.8155 15.7157 5.85694 15.815C5.89838 15.9143 5.95909 16.0044 6.03557 16.08C6.11205 16.1557 6.20277 16.2154 6.30248 16.2557C6.40218 16.296 6.50889 16.3161 6.61641 16.3148H22.4354C22.543 16.3143 22.6461 16.2713 22.7221 16.1952C22.7982 16.119 22.8412 16.0159 22.8417 15.9082V14.0145C22.8417 13.9603 22.8309 13.9066 22.8099 13.8567C22.7889 13.8067 22.7581 13.7615 22.7194 13.7236C22.6806 13.6857 22.6347 13.6559 22.5843 13.6361C22.5339 13.6162 22.48 13.6066 22.4258 13.6079V13.6003ZM38.2448 5.89194C38.2448 5.78461 38.2022 5.68167 38.1263 5.60578C38.0505 5.52988 37.9476 5.48724 37.8404 5.48724H23.2385C23.1845 5.48723 23.131 5.498 23.0812 5.51891C23.0314 5.53982 22.9863 5.57045 22.9485 5.60902C22.9106 5.64759 22.8809 5.69332 22.8609 5.74354C22.8409 5.79376 22.8312 5.84745 22.8322 5.90149V7.78944C22.8319 7.843 22.8423 7.89607 22.8626 7.94563C22.8829 7.99518 22.9128 8.04023 22.9505 8.07819C22.9883 8.11615 23.0332 8.14627 23.0826 8.16682C23.132 8.18737 23.185 8.19795 23.2385 8.19795H27.8343V15.9082C27.8343 16.016 27.8771 16.1195 27.9533 16.1957C28.0295 16.272 28.1328 16.3148 28.2406 16.3148H32.8344C32.9427 16.3148 33.0466 16.2718 33.1231 16.1952C33.1997 16.1185 33.2427 16.0146 33.2427 15.9063V8.19795H37.8384C37.9462 8.19795 38.0496 8.15512 38.1258 8.07886C38.202 8.00261 38.2448 7.89919 38.2448 7.79135V5.89194ZM38.2963 30.3265C38.2963 30.2081 38.2543 30.1661 38.1361 30.1661H36.6328V29.2957H37.8575C37.9796 29.2957 38.0178 29.2537 38.0178 29.1353V28.9158C38.0178 28.7974 37.9796 28.7554 37.8575 28.7554H36.6328V27.9269H38.0941C38.2162 27.9269 38.2543 27.885 38.2543 27.7666V27.5356C38.2543 27.4173 38.2162 27.3753 38.0941 27.3753H36.2131C36.0948 27.3753 36.0528 27.4173 36.0528 27.5356V30.5689C36.0528 30.6873 36.0948 30.7312 36.2131 30.7312H38.1456C38.2639 30.7312 38.3058 30.6873 38.3058 30.5689L38.2963 30.3265ZM15.2928 23.1851V23.5975C15.2928 24.0174 15.0658 24.2408 14.6136 24.2408H14.3675V22.5399H14.6136C15.0658 22.5399 15.2928 22.7652 15.2928 23.1851ZM12.8452 23.5975V23.1851C12.8452 22.7652 13.0779 22.5437 13.5262 22.5437H13.7723V24.2408H13.5262C13.0779 24.2408 12.8452 24.0174 12.8452 23.5975ZM18.2536 22.8224C18.2597 22.896 18.2494 22.97 18.2235 23.0391C18.1977 23.1082 18.1568 23.1708 18.1039 23.2222C18.0511 23.2737 17.9874 23.3128 17.9177 23.3367C17.8479 23.3607 17.7737 23.3689 17.7004 23.3607H16.9373V22.2784H17.7004C17.7741 22.2708 17.8485 22.2796 17.9184 22.3041C17.9883 22.3286 18.052 22.3683 18.1048 22.4203C18.1576 22.4722 18.1984 22.5352 18.2241 22.6047C18.2498 22.6742 18.2599 22.7486 18.2536 22.8224ZM18.9919 28.3431C18.9919 28.6275 18.8412 28.7593 18.5569 28.7593H17.75V27.9269H18.5569C18.8355 27.9269 18.9862 28.0644 18.9862 28.3431H18.9919ZM19.0968 29.7424C19.1029 29.8033 19.0949 29.8648 19.0734 29.9222C19.0519 29.9795 19.0175 30.0311 18.9729 30.073C18.9282 30.1149 18.8745 30.146 18.816 30.1638C18.7574 30.1816 18.6955 30.1857 18.6352 30.1757H17.7423V29.2976H18.6352C18.696 29.2894 18.7578 29.2952 18.8161 29.3145C18.8743 29.3337 18.9274 29.366 18.9714 29.4089C19.0153 29.4517 19.0489 29.504 19.0696 29.5618C19.0904 29.6196 19.0977 29.6813 19.0911 29.7424H19.0968ZM19.8485 23.9239V22.8835C19.8485 22.4444 20.1213 22.2077 20.6116 22.2077C21.1019 22.2077 21.3747 22.4444 21.3747 22.8835V23.9239C21.3747 24.3629 21.1057 24.5996 20.6116 24.5996C20.1175 24.5996 19.8428 24.3629 19.8428 23.9239H19.8485ZM23.9368 24.529H23.0439V23.649H23.9368C23.9974 23.6411 24.0591 23.6471 24.1171 23.6666C24.1751 23.686 24.2279 23.7183 24.2716 23.7612C24.3153 23.804 24.3488 23.8561 24.3694 23.9138C24.3901 23.9714 24.3974 24.0329 24.3908 24.0938C24.3975 24.1548 24.3901 24.2165 24.3689 24.2741C24.3478 24.3317 24.3136 24.3836 24.2691 24.4258C24.2246 24.468 24.1708 24.4993 24.1122 24.5172C24.0535 24.5351 23.9915 24.5391 23.931 24.529H23.9368ZM23.8528 23.1107H23.0439V22.2784H23.8528C23.9101 22.2703 23.9684 22.2753 24.0235 22.2931C24.0785 22.3109 24.1288 22.3409 24.1705 22.381C24.2122 22.4211 24.2443 22.4702 24.2643 22.5245C24.2843 22.5788 24.2917 22.6369 24.2859 22.6945C24.2802 22.977 24.1294 23.1126 23.8471 23.1126L23.8528 23.1107ZM24.5091 27.9269H25.5526V30.1757H24.1981C24.3717 29.9008 24.5091 29.4579 24.5091 28.5073V27.9269ZM26.7736 22.2001C27.2619 22.2001 27.5367 22.4368 27.5367 22.8759V23.9162C27.5367 24.3553 27.2677 24.592 26.7736 24.592C26.2795 24.592 26.0105 24.3553 26.0105 23.9162V22.8835C26.0124 22.4444 26.2871 22.2077 26.7678 22.2077L26.7736 22.2001Z" fill="white"/>
</g>
<defs>
<clipPath id="clip0_226_112939">
<rect width="43.2675" height="36.0562" fill="white" transform="translate(0.383789 0.0830078)"/>
</clipPath>
</defs>
</svg>
