<svg width="73" height="75" viewBox="0 0 73 75" fill="none" xmlns="http://www.w3.org/2000/svg">
<g clip-path="url(#clip0_226_112914)">
<path d="M72.9971 0.111328H-0.00292969V74.1113H72.9971V0.111328Z" fill="white"/>
<path d="M71.2888 1.95898H1.77539V72.4682H71.2888V1.95898Z" fill="#23282E"/>
<path d="M61.8966 72.4679H45.8848V54.4834L53.8887 66.7844L61.8966 54.4834V72.4679Z" fill="white"/>
<path d="M36.5112 72.4682H27.3047H11.1055V63.5709L27.3047 63.559V54.9072L11.0859 54.9111V45.8991L27.3047 45.8833V37.2354H36.5112V72.4682Z" fill="white"/>
<path d="M71.2919 37.1918H61.9214L53.9135 49.853L45.9056 37.1918H36.5352V1.95898H71.2919V37.1918Z" fill="white"/>
<path d="M43.248 20.027H41.0498V26.0232H43.248C43.6286 26.0492 44.009 25.9689 44.3477 25.7909C44.6864 25.613 44.9705 25.3442 45.1689 25.0139C45.4617 24.5311 45.4617 24.0601 45.4617 23.035C45.4617 22.0099 45.4617 21.527 45.1689 21.0561C44.973 20.7221 44.69 20.4494 44.3511 20.2679C44.0122 20.0863 43.6305 20.003 43.248 20.027ZM43.8453 24.3807C43.7697 24.4956 43.6648 24.5875 43.5417 24.6467C43.4187 24.706 43.2821 24.7303 43.1465 24.7171H42.5061V21.349H43.1347C43.2704 21.3357 43.407 21.3601 43.53 21.4193C43.6531 21.4785 43.758 21.5705 43.8336 21.6854C43.9508 21.8555 43.9937 22.0218 43.9937 23.035C43.9937 24.0482 43.9625 24.2026 43.8453 24.3727V24.3807ZM47.941 20.027L45.7858 26.0232H47.3085L47.5974 25.1327H49.4208L49.698 26.0232H51.2207L49.0655 20.027H47.941ZM48.0074 23.9018L48.5384 22.3186L49.0381 23.9018H48.0074ZM59.7205 21.2896C59.9028 21.2819 60.0813 21.3434 60.2214 21.4619C60.3614 21.5804 60.4529 21.7476 60.478 21.9308H61.9577C61.9061 21.3751 61.6443 20.8612 61.2273 20.4967C60.8103 20.1323 60.2703 19.9455 59.7205 19.9756C59.4157 19.9613 59.1114 20.0125 58.8275 20.1257C58.5435 20.2389 58.2864 20.4117 58.0729 20.6326C57.4638 21.25 57.4638 22.0139 57.4638 23.0271C57.4638 24.0403 57.4638 24.8042 58.0729 25.4018C58.2864 25.6227 58.5435 25.7954 58.8275 25.9087C59.1114 26.0219 59.4157 26.073 59.7205 26.0588C60.2703 26.0889 60.8103 25.9021 61.2273 25.5377C61.6443 25.1732 61.9061 24.6593 61.9577 24.1036H60.478C60.4529 24.2868 60.3614 24.454 60.2214 24.5725C60.0813 24.691 59.9028 24.7524 59.7205 24.7448C59.6121 24.7498 59.504 24.7296 59.4045 24.6857C59.305 24.6417 59.2168 24.5753 59.1466 24.4915C59.0138 24.3134 58.9201 24.0957 58.9201 23.0112C58.9201 21.9268 59.0138 21.7052 59.1466 21.527C59.2171 21.4477 59.3041 21.3852 59.4013 21.3442C59.4985 21.3031 59.6036 21.2844 59.7088 21.2896H59.7205ZM66.7484 21.341V20.027H62.7113V26.0232H66.7406V24.7092H64.1715V23.6564H66.3657V22.3424H64.1715V21.341H66.7484ZM54.9962 23.0429L53.0987 20.027H51.8259V26.0232H53.2861V23.0073L55.1836 26.0232H56.4564V20.027H55.0001L54.9962 23.0429ZM56.4096 16.8014H54.7463L55.8435 15.614C56.0144 15.4767 56.1536 15.3032 56.2514 15.1056C56.3492 14.908 56.4032 14.6912 56.4096 14.4702C56.4159 14.2768 56.3816 14.0842 56.3089 13.9052C56.2363 13.7263 56.1269 13.565 55.9881 13.4322C55.8492 13.2993 55.6842 13.1979 55.5037 13.1346C55.3233 13.0713 55.1317 13.0477 54.9415 13.0652C54.7499 13.0497 54.5572 13.075 54.3758 13.1395C54.1944 13.204 54.0283 13.3063 53.8882 13.4397C53.7482 13.5731 53.6371 13.7348 53.5624 13.9143C53.4876 14.0938 53.4507 14.2872 53.454 14.4821H54.5121C54.504 14.4225 54.5094 14.3618 54.528 14.3046C54.5465 14.2474 54.5777 14.1953 54.6191 14.1522C54.6605 14.1091 54.7111 14.0761 54.767 14.0557C54.8228 14.0354 54.8825 14.0283 54.9415 14.0348C54.9972 14.0318 55.0528 14.0409 55.1047 14.0615C55.1566 14.0821 55.2035 14.1137 55.2423 14.1542C55.2811 14.1947 55.311 14.2431 55.3298 14.2962C55.3487 14.3494 55.3561 14.406 55.3515 14.4623C55.3513 14.5574 55.3305 14.6513 55.2907 14.7374C55.2509 14.8236 55.1931 14.8999 55.1212 14.961L53.454 16.7895V17.7552H56.4096V16.8014ZM49.1904 17.7671H50.2485V13.1166H49.1904L48.2104 13.9794V15.1232L49.1904 14.2604V17.7671ZM59.7322 15.9702H61.4345V14.9531H59.7322V14.1219H61.7234V13.1008H58.5999V17.7513H59.7322V15.9702ZM45.8678 17.8067C46.0611 17.8189 46.2548 17.7901 46.4364 17.722C46.6181 17.6539 46.7837 17.5481 46.9227 17.4113C47.0616 17.2746 47.1709 17.1099 47.2433 16.9278C47.3158 16.7458 47.35 16.5504 47.3436 16.3541V14.5177C47.3242 14.1337 47.16 13.772 46.885 13.5071C46.61 13.2423 46.2451 13.0947 45.8658 13.0947C45.4865 13.0947 45.1217 13.2423 44.8467 13.5071C44.5717 13.772 44.4075 14.1337 44.388 14.5177V16.3423C44.3806 16.5397 44.414 16.7364 44.4862 16.9199C44.5584 17.1034 44.6677 17.2695 44.8072 17.4075C44.9466 17.5455 45.1131 17.6523 45.2957 17.7211C45.4784 17.7898 45.6733 17.819 45.8678 17.8067ZM45.4266 14.5177C45.421 14.4584 45.4276 14.3985 45.4461 14.3419C45.4646 14.2854 45.4946 14.2334 45.5342 14.1892C45.5737 14.1451 45.6219 14.1099 45.6756 14.0858C45.7294 14.0616 45.7875 14.0492 45.8463 14.0492C45.9051 14.0492 45.9633 14.0616 46.017 14.0858C46.0708 14.1099 46.119 14.1451 46.1585 14.1892C46.198 14.2334 46.228 14.2854 46.2465 14.3419C46.265 14.3985 46.2717 14.4584 46.266 14.5177V16.3502C46.2717 16.4095 46.265 16.4694 46.2465 16.5259C46.228 16.5825 46.198 16.6345 46.1585 16.6786C46.119 16.7227 46.0708 16.758 46.017 16.7821C45.9633 16.8062 45.9051 16.8187 45.8463 16.8187C45.7875 16.8187 45.7294 16.8062 45.6756 16.7821C45.6219 16.758 45.5737 16.7227 45.5342 16.6786C45.4946 16.6345 45.4646 16.5825 45.4461 16.5259C45.4276 16.4694 45.421 16.4095 45.4266 16.3502V14.5177ZM63.5858 15.5269L64.2339 16.6787H64.9602L65.6083 15.5269V17.7552H66.7406V13.1166H65.6278L64.6088 15.1668L63.578 13.1166H62.4653V17.7671H63.5975L63.5858 15.5269ZM42.0298 17.7552H43.0879V13.1166H42.0298L41.0459 13.9794V15.1232L42.0298 14.2604V17.7552ZM52.4467 16.5679H51.2754V17.7552H52.4467V16.5679Z" fill="#23282E"/>
<path d="M19.6349 1.95898H1.74902V37.1839H19.6232C24.1007 37.1839 28.3949 35.3808 31.5609 32.1714C34.727 28.9619 36.5057 24.609 36.5057 20.0701V19.0688C36.5047 14.5327 34.7271 10.1825 31.5637 6.97428C28.4003 3.76603 24.1097 1.96213 19.6349 1.95898ZM27.4007 19.5002V19.7574C27.4012 20.9075 27.1782 22.0463 26.7444 23.109C26.3106 24.1716 25.6746 25.1372 24.8725 25.9506C24.0705 26.7639 23.1183 27.4092 22.0702 27.8494C21.0221 28.2896 19.8987 28.5162 18.7643 28.5162H11.1195V10.4882H18.7525C21.0431 10.4882 23.2398 11.4105 24.8594 13.0524C26.4791 14.6942 27.389 16.921 27.389 19.2429L27.4007 19.5002Z" fill="white"/>
</g>
<defs>
<clipPath id="clip0_226_112914">
<rect width="73" height="74" fill="white" transform="translate(0 0.111328)"/>
</clipPath>
</defs>
</svg>
