<svg width="1263" height="1281" viewBox="0 0 1263 1281" fill="none" xmlns="http://www.w3.org/2000/svg">
<path fill-rule="evenodd" clip-rule="evenodd" d="M0 0.75H0.0506856V1281L0 1281V0.75ZM0.0506856 1281L1262.95 1281V0.75H1263V1281H0.0506856ZM632.134 32.7157H339.748C417.165 32.7702 491.395 63.9789 546.124 119.484C600.853 174.988 631.607 250.25 631.624 328.727V346.05C631.624 424.576 600.851 499.884 546.076 555.411C491.302 610.936 417.009 642.131 339.545 642.131H30.7661V32.7157H30.31V642.131H30.7661V1252.57H1233.4V642.267H1233.45V32.7157H1233.4V642.267H1071.33L932.79 861.315L794.248 642.267H632.134V32.7157ZM793.888 1252.57H1070.9V941.424L932.361 1154.24L793.888 941.424V1252.57ZM631.72 1252.57H472.441H192.184V1098.64L472.441 1098.44V948.755L191.845 948.822V792.909L472.441 792.635V643.021H631.72V1252.57ZM748.27 345.304H710.24V449.042H748.27C754.855 449.492 761.436 448.103 767.296 445.023C773.156 441.946 778.071 437.295 781.503 431.581C786.569 423.228 786.569 415.079 786.569 397.345C786.569 379.61 786.569 371.255 781.503 363.108C778.114 357.33 773.218 352.612 767.355 349.472C761.492 346.33 754.888 344.889 748.27 345.304ZM758.604 420.626C757.296 422.614 755.481 424.204 753.352 425.228C751.224 426.254 748.86 426.674 746.514 426.446H735.435V368.176H746.31C748.658 367.946 751.021 368.368 753.149 369.392C755.279 370.416 757.094 372.008 758.402 373.996C760.429 376.938 761.171 379.815 761.171 397.345C761.171 414.874 760.632 417.545 758.604 420.488V420.626ZM829.462 345.304L792.176 449.042H818.52L823.518 433.636H855.064L859.86 449.042H886.203L848.917 345.304H829.462ZM830.611 412.341L839.798 384.95L848.443 412.341H830.611ZM1033.26 367.148C1036.41 367.015 1039.5 368.079 1041.92 370.129C1044.34 372.179 1045.93 375.072 1046.36 378.241H1071.96C1071.07 368.627 1066.54 359.736 1059.32 353.43C1052.11 347.126 1042.77 343.894 1033.26 344.415C1027.98 344.167 1022.72 345.053 1017.81 347.012C1012.89 348.97 1008.44 351.96 1004.75 355.781C994.213 366.463 994.213 379.679 994.213 397.208C994.213 414.737 994.213 427.953 1004.75 438.292C1008.44 442.114 1012.89 445.101 1017.81 447.062C1022.72 449.02 1027.98 449.904 1033.26 449.658C1042.77 450.179 1052.11 446.947 1059.32 440.643C1066.54 434.337 1071.07 425.446 1071.96 415.832H1046.36C1045.93 419.002 1044.34 421.894 1041.92 423.944C1039.5 425.994 1036.41 427.057 1033.26 426.925C1031.38 427.012 1029.51 426.662 1027.79 425.903C1026.07 425.142 1024.54 423.993 1023.33 422.543C1021.03 419.462 1019.41 415.695 1019.41 396.933C1019.41 378.172 1021.03 374.338 1023.33 371.255C1024.55 369.883 1026.05 368.802 1027.73 368.093C1029.41 367.382 1031.23 367.058 1033.05 367.148H1033.26ZM1154.84 368.037V345.304H1085V449.042H1154.71V426.309H1110.26V408.095H1148.22V385.362H1110.26V368.037H1154.84ZM951.522 397.481L918.694 345.304H896.674V449.042H921.936V396.865L954.764 449.042H976.785V345.304H951.59L951.522 397.481ZM975.975 289.499H947.199L966.181 268.956C969.138 266.581 971.546 263.579 973.238 260.161C974.93 256.742 975.864 252.991 975.975 249.168C976.084 245.822 975.49 242.49 974.233 239.393C972.977 236.298 971.084 233.507 968.683 231.21C966.28 228.91 963.425 227.156 960.302 226.061C957.181 224.966 953.866 224.558 950.576 224.86C947.261 224.592 943.927 225.03 940.789 226.146C937.65 227.262 934.777 229.031 932.353 231.339C929.931 233.647 928.009 236.445 926.716 239.55C925.422 242.656 924.784 246.002 924.841 249.374H943.147C943.007 248.342 943.1 247.292 943.422 246.303C943.742 245.313 944.282 244.412 944.998 243.666C945.714 242.92 946.59 242.35 947.557 241.997C948.522 241.645 949.555 241.523 950.576 241.635C951.539 241.583 952.501 241.741 953.399 242.097C954.297 242.453 955.109 243 955.78 243.701C956.451 244.401 956.968 245.239 957.294 246.157C957.621 247.078 957.749 248.057 957.669 249.031C957.666 250.676 957.306 252.301 956.617 253.79C955.929 255.282 954.929 256.602 953.685 257.659L924.841 289.293V306H975.975V289.499ZM851.078 306.206H869.384V225.75H851.078L834.123 240.677V260.465L851.078 245.538V306.206ZM1033.46 275.119H1062.91V257.522H1033.46V243.142H1067.91V225.476H1013.87V305.933H1033.46V275.119ZM793.595 306.891C796.939 307.102 800.29 306.604 803.432 305.426C806.575 304.248 809.44 302.417 811.845 300.051C814.248 297.686 816.139 294.836 817.392 291.686C818.646 288.537 819.238 285.157 819.127 281.76V249.99C818.791 243.346 815.951 237.088 811.193 232.505C806.435 227.924 800.122 225.371 793.56 225.371C786.998 225.371 780.687 227.924 775.929 232.505C771.171 237.088 768.33 243.346 767.993 249.99V281.556C767.865 284.971 768.443 288.375 769.692 291.549C770.941 294.724 772.832 297.598 775.246 299.985C777.657 302.372 780.538 304.22 783.697 305.41C786.858 306.599 790.23 307.104 793.595 306.891ZM785.962 249.99C785.865 248.964 785.979 247.927 786.299 246.948C786.619 245.971 787.138 245.071 787.823 244.306C788.506 243.543 789.34 242.934 790.269 242.517C791.2 242.099 792.205 241.884 793.223 241.884C794.24 241.884 795.247 242.099 796.176 242.517C797.107 242.934 797.941 243.543 798.624 244.306C799.307 245.071 799.826 245.971 800.146 246.948C800.466 247.927 800.582 248.964 800.484 249.99V281.693C800.582 282.719 800.466 283.755 800.146 284.733C799.826 285.712 799.307 286.612 798.624 287.375C797.941 288.138 797.107 288.748 796.176 289.165C795.247 289.582 794.24 289.798 793.223 289.798C792.205 289.798 791.2 289.582 790.269 289.165C789.34 288.748 788.506 288.138 787.823 287.375C787.138 286.612 786.619 285.712 786.299 284.733C785.979 283.755 785.865 282.719 785.962 281.693V249.99ZM1100.13 267.449L1111.34 287.376H1123.91L1135.12 267.449V306H1154.71V225.75H1135.46L1117.83 261.219L1099.99 225.75H1080.74V306.206H1100.33L1100.13 267.449ZM727.195 306H745.5V225.75H727.195L710.172 240.677V260.465L727.195 245.538V306ZM907.414 285.459H887.15V306H907.414V285.459ZM474.101 340.64V336.191L473.899 331.739C473.899 291.569 458.157 253.044 430.135 224.639C402.115 196.233 364.111 180.277 324.482 180.277H192.426V492.173H324.686C344.312 492.173 363.747 488.253 381.88 480.637C400.013 473.022 416.487 461.858 430.362 447.787C444.239 433.715 455.242 417.009 462.747 398.625C470.252 380.24 474.11 360.538 474.101 340.64Z" fill="white"/>
</svg>
