<svg width="36" height="44" viewBox="0 0 36 44" fill="none" xmlns="http://www.w3.org/2000/svg">
<path fill-rule="evenodd" clip-rule="evenodd" d="M35.4763 21.1532V21.1565C35.5308 21.4471 35.61 22.0992 35.6084 22.1554C35.6084 23.1872 35.189 24.1217 34.5121 24.8002C33.8303 25.4821 32.8859 25.9196 31.8425 25.9048C31.6135 25.9013 31.1163 25.825 30.6962 25.7605C30.5195 25.7334 30.3564 25.7084 30.2328 25.6918C30.0446 25.667 29.7358 25.7331 29.6037 25.8701C29.313 26.1732 28.862 26.7594 28.5117 27.2147C28.3468 27.4291 28.2043 27.6144 28.1113 27.7274C27.6457 28.2937 27.1619 28.8253 26.6683 29.319C25.194 30.79 24.0416 31.6931 22.5375 32.4311C21.0814 33.0486 19.65 33.0271 18.524 32.7283C17.4954 32.4608 16.4206 32.1438 15.3211 31.779C14.7317 31.5841 14.134 31.3745 13.5314 31.1516C11.8854 30.544 7.41947 28.8303 6.53949 27.9652C6.07557 27.602 5.67273 27.1512 5.35574 26.6295C5.35409 26.6279 5.35244 26.6246 5.35244 26.6229C5.19064 26.3274 5.04205 26.0104 4.90502 25.6736C4.90502 25.672 4.90337 25.6687 4.90337 25.667C4.39322 24.4073 4.06137 22.8802 3.94745 21.1912C3.91668 20.732 3.91649 19.9427 3.9163 19.1337C3.9161 18.2935 3.9159 17.432 3.88141 16.897C3.86325 16.6064 3.69155 16.3472 3.43069 16.2168C3.25238 16.1276 3.06252 16.0352 2.98327 16.0005C2.36746 15.7396 1.83584 15.3186 1.44126 14.792C0.970725 14.1663 0.693359 13.3903 0.693359 12.5499C0.693359 11.3926 1.22002 10.3591 2.04717 9.67063C2.09357 9.63371 2.14065 9.59747 2.18798 9.56105C2.21473 9.54045 2.24157 9.5198 2.2684 9.49893C2.27082 9.49651 2.27323 9.49498 2.2763 9.49304C2.27742 9.49232 2.27863 9.49156 2.27996 9.49067C4.46421 7.83143 7.4657 6.20521 10.9526 4.49975C15.9072 2.07775 19.5393 0.86428 19.5443 0.862629C20.7231 0.496111 22.3609 0.322757 23.538 0.601774C25.156 1.12183 25.9039 1.70793 26.8664 2.8306C27.8322 3.9219 29.5806 6.90523 30.908 9.65742C33.1022 14.2075 34.9397 18.3069 35.4763 21.1532ZM23.1055 9.65577C22.6333 9.99587 22.1859 10.4268 21.7929 10.9369C20.2394 12.9594 20.132 15.4755 21.5535 16.5585C21.6394 16.6229 21.7285 16.6824 21.821 16.7335C23.0691 17.4369 24.8984 16.9399 26.315 15.5613C26.5346 15.3467 26.7426 15.1123 26.9391 14.858C27.1818 14.541 27.3881 14.2141 27.5598 13.8823C28.4893 12.086 28.3787 10.1494 27.1801 9.23642C26.5643 8.76754 25.7636 8.64537 24.9265 8.82037C24.4659 8.91613 23.9954 9.10269 23.5397 9.3718C23.3927 9.45765 23.2475 9.55176 23.1055 9.65577ZM13.5248 7.07198C13.0279 7.86941 12.7125 8.91613 12.6828 10.0669C12.6762 10.3178 12.6828 10.5638 12.7026 10.7999C12.8875 13.0139 14.1555 14.7342 15.7371 14.7738C15.8098 14.7755 15.8824 14.7738 15.9551 14.7689C17.6093 14.6483 18.9665 12.6754 19.0292 10.227C19.049 9.47416 18.9433 8.75929 18.7403 8.12531C18.699 7.99323 18.6511 7.86445 18.6016 7.74063C18.3275 7.06042 17.9346 6.49579 17.4624 6.10615C17.0249 5.74459 16.518 5.53161 15.9749 5.5184C15.0107 5.49364 14.1324 6.0979 13.5248 7.07198ZM6.41072 14.4288C6.59233 14.6913 6.79375 14.9274 7.00837 15.1337C8.03694 16.1276 9.36763 16.4578 10.2509 15.8486C11.2365 15.1717 11.3224 13.5653 10.5035 12.1273C10.4358 12.0068 10.3599 11.8862 10.279 11.769C9.48155 10.6183 8.30109 9.97441 7.3105 10.0504C6.99517 10.0735 6.69799 10.1709 6.43878 10.3492C5.53239 10.9733 5.38546 12.3832 6.00623 13.7238C6.11684 13.9632 6.25057 14.1993 6.41072 14.4288ZM22.8727 26.8656C23.1434 26.3076 23.2953 25.6753 23.2904 25.0066C23.2904 24.9829 23.29 24.9591 23.2896 24.9352C23.2892 24.9109 23.2887 24.8863 23.2887 24.8613C23.292 24.8646 23.2953 24.8663 23.297 24.8696C23.2557 24.2059 23.1236 23.5108 22.8991 22.8125C22.5672 21.7839 22.072 20.8825 21.4859 20.1626C21.0847 19.5914 20.5679 19.0697 19.9537 18.6305C19.3775 18.2178 18.7172 17.8777 17.9874 17.6383C17.7101 17.5458 17.4327 17.4732 17.157 17.417H17.1553C16.7558 17.2998 16.3216 17.2272 15.8626 17.1975C14.8885 17.1364 13.7989 17.2734 12.7142 17.6548C11.225 18.1782 8.9747 19.2397 8.28458 21.6782C8.2268 21.949 8.19708 22.2297 8.19873 22.5169C8.21359 24.6715 10.0016 26.4034 12.1908 26.3885C12.4253 26.3868 12.6547 26.3654 12.8793 26.3241H12.8809C12.8836 26.3236 12.8895 26.3223 12.8983 26.3203C13.058 26.285 14.1888 26.035 14.9711 26.301C15.7288 26.5447 16.3384 27.4546 16.4106 27.5623C16.4142 27.5677 16.4165 27.5711 16.4173 27.5723C16.9374 28.2492 17.6457 28.7296 18.4745 28.9492C18.7865 29.0317 19.115 29.0746 19.4518 29.073C20.9476 29.0631 22.2387 28.1683 22.8727 26.8656ZM29.0474 22.2231C29.5493 22.0613 30.0016 21.8301 30.383 21.5561C31.3835 20.8362 31.9052 19.811 31.6113 18.9128C31.5387 18.6916 31.4215 18.4918 31.2663 18.3168C30.5597 17.5194 29.0787 17.2486 27.5846 17.7307C27.5632 17.7373 27.5434 17.7439 27.5236 17.7505L27.5235 17.7505C25.7388 18.3499 24.6194 19.8126 25.019 21.0393C25.3475 22.0497 26.6023 22.5879 28.0386 22.4377C28.3688 22.403 28.7073 22.332 29.0474 22.2231ZM13.0094 40.097C13.0094 41.7835 11.7464 42.9054 10.0822 42.9054C8.41805 42.9054 7.16248 41.7835 7.16248 40.097C7.16248 38.4105 8.41805 37.3481 10.0822 37.3481C11.7464 37.3481 13.0094 38.4105 13.0094 40.097ZM9.04213 40.097C9.04213 40.7805 9.48046 41.2709 10.0822 41.2709C10.6766 41.2709 11.1224 40.7805 11.1224 40.097C11.1224 39.4135 10.6766 38.9678 10.0822 38.9678C9.48046 38.9678 9.04213 39.4135 9.04213 40.097ZM2.25331 43.7597H0.722848V41.2635H1.20576C1.57723 40.7211 1.7704 39.993 1.7704 38.7746V37.4967H6.27263V41.2635H6.83727V43.7597H5.30681V42.7568H2.25331V43.7597ZM3.47917 39.042C3.47917 40.1639 3.27857 40.8474 3.04826 41.2635H4.50443V38.9752H3.47917V39.042ZM13.7559 42.7568H15.4052L15.3235 39.785H15.3606L16.3265 42.7568H17.5746L18.5553 39.7924L18.5999 39.7999L18.5478 42.7568H20.264V37.4967H17.8792L17.0545 40.3273H17.0174L16.0664 37.4967H13.7559V42.7568ZM23.6282 42.7568H21.2433V37.4967H23.4053C24.2597 37.4967 25.4558 37.675 25.4558 38.8935C25.4558 39.4581 25.1438 39.8221 24.6832 40.0004V40.0227C25.1884 40.1416 25.6713 40.5651 25.6713 41.2189C25.6713 42.3704 24.6534 42.7568 23.6282 42.7568ZM22.8927 40.6542V41.3675H23.4202C23.6951 41.3675 23.8882 41.2412 23.8882 41.0034C23.8882 40.7211 23.5613 40.6542 23.3459 40.6542H22.8927ZM22.8927 38.8712V39.5175H23.3682C23.6133 39.5175 23.7916 39.4061 23.7916 39.1684C23.7916 38.9678 23.6059 38.8712 23.331 38.8712H22.8927ZM26.3946 42.7568H30.139V41.2857H28.0588V40.7954H29.8939V39.421H28.0588V38.9678H30.0127V37.4967H26.3946V42.7568ZM33.4937 42.7568H31.7255V38.99H30.4328V37.4967H34.7864V38.99H33.4937V42.7568Z" fill="white"/>
</svg>
