<svg width="93" height="67" viewBox="0 0 93 67" fill="none" xmlns="http://www.w3.org/2000/svg">
<g clip-path="url(#clip0_226_112895)">
<path d="M69.5205 8.91699L38.623 14.3894L38.0186 15.5646L36.6232 14.7435L17.1617 18.1901L16.4882 19.5918L15.889 19.2436L14.7969 18.6091L0.460051 21.1491L8.57 33.7309L0.152344 49.9991L28.2849 60.9719L37.6947 59.3659L38.6421 57.574L40.9775 58.7735L44.1354 58.2143L62.5253 66.611L86.9962 62.7749V38.9244L92.1538 38.0111V23.4914L69.5205 8.91699ZM19.8753 44.0678L16.8239 39.0447L13.7952 45.1449L5.83732 46.5547L12.5688 33.5391L6.20086 23.6596L14.158 22.2498L16.8195 26.9085L19.511 21.3018L27.4675 19.8928L21.0746 32.04L27.831 42.6588L19.8753 44.0678ZM35.3329 41.3301L28.702 42.5046V19.6744L35.9725 18.3863V27.1062L40.9077 17.5107L47.5407 16.3355V39.1679L40.2702 40.4559V31.7354L35.3329 41.3301ZM61.8938 48.6867L40.2687 52.4357V41.9078L61.8938 38.1587V48.6867ZM67.0514 20.5523L61.8938 21.4663V36.6228L54.0754 38.0075V22.851L48.9177 23.7643V16.092L54.0754 15.1787L61.8938 13.794L67.0514 12.8808V20.5523Z" fill="white"/>
<path d="M51.0813 44.8178L52.0837 46.5345L52.1065 46.5308L53.1148 44.4438V47.2427L54.2017 47.0501L54.2024 42.1768L53.0472 42.3811L52.1065 44.4349L51.1657 42.7146L50.0105 42.9189L50.0098 47.7923L51.0805 47.6027L51.0813 44.8178Z" fill="white"/>
<path d="M46.9517 46.5969L48.8163 46.2664V45.1451L46.9517 45.4756V44.6478L49.0131 44.2827L49.0139 43.0986L45.8582 43.6578L45.8574 48.5312L46.9509 48.3372L46.9517 46.5969Z" fill="white"/>
<path d="M19.4724 8.35205C19.1317 8.40957 18.826 8.59626 18.6183 8.87361C18.4023 9.14603 18.2855 9.48439 18.2871 9.83265C18.2871 10.1823 18.3997 10.4617 18.6249 10.6707C18.8501 10.8797 19.1371 10.9535 19.4856 10.892C19.8287 10.8353 20.1368 10.6483 20.3463 10.3697C20.5629 10.0975 20.68 9.75907 20.6783 9.41068C20.6783 9.06051 20.5645 8.78116 20.3368 8.57263C20.1091 8.3641 19.821 8.29057 19.4724 8.35205Z" fill="white"/>
<path d="M41.0771 0.611328L5.83496 6.69603V17.2211L41.0779 11.1371L41.0771 0.611328ZM11.7792 12.7387C11.3436 13.2676 10.7341 13.6227 10.0607 13.7398C9.2127 13.8903 8.53829 13.6778 8.03743 13.1024L8.98185 12.2621C9.11483 12.3982 9.27913 12.4993 9.46025 12.5564C9.64137 12.6136 9.83374 12.625 10.0203 12.5897C10.2796 12.5448 10.5185 12.42 10.704 12.2326C10.8956 12.0419 11.0342 11.8041 11.1057 11.5428L9.57156 11.8143V10.8922L11.0925 10.6229C11.0175 10.4123 10.8732 10.2338 10.6834 10.1168C10.4839 10.0002 10.2481 9.96281 10.0225 10.0121C9.62102 10.0829 9.28174 10.3 9.00463 10.6635L8.12482 10.0652C8.60707 9.3924 9.23448 8.98739 10.0071 8.85017C10.7126 8.72575 11.3001 8.85706 11.7696 9.24411C12.2391 9.63117 12.4746 10.1704 12.4761 10.8619C12.4818 11.5524 12.2336 12.2207 11.7792 12.7387ZM16.74 8.89591L15.3329 9.14526V12.7114L14.033 12.9416V9.37543L12.6267 9.62256V8.48058L16.7393 7.75171L16.74 8.89591ZM21.2712 11.0405C20.8099 11.5882 20.1704 11.9541 19.4661 12.0733C18.7469 12.2001 18.1474 12.0696 17.6676 11.6815C17.1878 11.2935 16.9476 10.7562 16.9471 10.0696C16.9471 9.38797 17.1895 8.76632 17.6742 8.20467C18.1352 7.65659 18.7748 7.29061 19.4793 7.17186C20.1985 7.04399 20.7983 7.17432 21.2786 7.56285C21.7589 7.95139 21.9988 8.48869 21.9983 9.17477C21.9983 9.85789 21.7559 10.4798 21.2712 11.0405ZM27.4512 10.5654L26.5537 9.30387L25.649 10.8841L24.189 11.143L25.7966 8.46287L24.2544 6.42086L25.7481 6.15602L26.5787 7.33637L27.4167 5.86094L28.8766 5.60274L27.3344 8.17664L28.942 10.3013L27.4512 10.5654ZM33.7486 9.44993L32.4619 9.67789V7.0221L30.6465 9.99511L29.434 10.2127V5.50314L30.7207 5.27593V7.92581L32.5361 4.95354L33.7486 4.73813V9.44993ZM38.4311 5.05387L37.024 5.30322V8.86935L35.7249 9.09952V5.53339L34.3178 5.782V4.63854L38.4304 3.90967L38.4311 5.05387Z" fill="white"/>
</g>
<defs>
<clipPath id="clip0_226_112895">
<rect width="92" height="66" fill="white" transform="translate(0.155273 0.611328)"/>
</clipPath>
</defs>
</svg>
