<svg width="81" height="58" viewBox="0 0 81 58" fill="none" xmlns="http://www.w3.org/2000/svg">
<path d="M33.6777 20.6522L41.5144 0.90332L37.8183 20.6522H33.6777Z" fill="white"/>
<path d="M38.1741 37.873H42.095L34.498 57.3184L38.1741 37.873Z" fill="white"/>
<path d="M34.834 37.9233L37.8208 20.6523H41.1623L38.1804 37.9233H34.834Z" fill="white"/>
<path d="M19.8723 37.9183L19.0831 34.5198H16.6956L15.9065 37.9183H12.6699L16.5009 20.6523H19.2679L23.0988 37.9183H19.8723ZM18.6236 31.5393L17.8494 27.7378L17.1052 31.5393H18.6236Z" fill="white"/>
<path d="M30.5686 37.9233L28.5058 32.6639L26.5879 37.9233H23.0566L26.8027 28.8126L23.4412 20.6523H26.6228L28.4909 25.0957L30.3389 20.6523H33.6703L30.204 28.8126L34 37.9233H30.5686Z" fill="white"/>
<path d="M52.4098 37.9233V29.36L50.417 35.2015H48.5539L46.7459 29.4296V37.9233H43.5293V20.6523H46.5211L49.5579 29.1211L52.4448 20.6523H55.6264V37.9233H52.4098Z" fill="white"/>
<path d="M77.1677 41.1518V29.19L75.1698 35.0266H73.3118L71.5037 29.2597V37.7484H68.2871V20.4824H71.2789L74.3157 28.9512L77.2026 20.4824H80.3842V41.1518H77.1677Z" fill="white"/>
<path d="M0.00195312 41.3217V20.6523H2.99377L6.03553 29.1211L8.91747 20.6523H12.0991V37.9233H8.8825V29.36L6.88962 35.2015H5.02661L3.22353 29.4296V41.3217H0.00195312Z" fill="white"/>
<path d="M61.9526 38.2467C61.4453 38.2444 60.9408 38.1707 60.4542 38.0277C59.919 37.8674 59.4272 37.5884 59.0157 37.2117C58.5568 36.7747 58.2018 36.2408 57.9768 35.6493C57.7042 34.8699 57.5838 34.0457 57.6222 33.2212V20.6523H60.8388V33.5894C60.7984 33.9885 60.8934 34.3897 61.1085 34.7288C61.1984 34.8565 61.3206 34.9582 61.4627 35.0237C61.6048 35.0893 61.7617 35.1163 61.9176 35.102C62.0805 35.1145 62.2441 35.0871 62.3938 35.022C62.5436 34.9569 62.6751 34.8563 62.7767 34.7288C63.0037 34.3936 63.1126 33.9929 63.0864 33.5894V20.6523H66.303V33.2212C66.3313 34.048 66.199 34.8725 65.9134 35.6493C65.6861 36.2421 65.3276 36.7761 64.8645 37.2117C64.4515 37.5916 63.9557 37.8709 63.416 38.0277C62.9406 38.1673 62.4482 38.241 61.9526 38.2467Z" fill="white"/>
<path d="M17.6909 56.5172V48.6853L16.1426 50.2676V47.73L17.7658 46.083H19.7587V56.5172H17.6909Z" fill="white"/>
<path d="M23.8293 56.6117C23.0301 56.6117 21.1621 56.3281 21.1621 53.6959V48.8943C21.1621 46.2621 23.0301 45.9785 23.8293 45.9785C24.6284 45.9785 26.5014 46.2621 26.5014 48.8943V53.6959C26.5014 56.3281 24.6534 56.6117 23.8293 56.6117ZM23.8293 47.8643C23.4397 47.8643 23.2149 48.0385 23.2149 48.9242V53.686C23.2149 54.5567 23.4397 54.7259 23.8293 54.7259C24.2189 54.7259 24.4336 54.5617 24.4336 53.686V48.9242C24.4336 48.0385 24.2139 47.8643 23.8293 47.8643Z" fill="white"/>
<path d="M30.0507 56.6121C28.2276 56.6121 27.2637 55.5772 27.2637 53.6267V53.358H29.3315V53.552C29.3315 54.5223 29.6112 54.7213 30.0357 54.7213C30.4603 54.7213 30.75 54.5223 30.75 53.552V53.2087C30.75 52.2882 30.4353 52.1041 29.9208 52.1041H29.4214V50.2332H29.9208C30.3854 50.2332 30.6501 50.064 30.6501 49.1932V48.8748C30.6501 48.0339 30.4053 47.8796 30.0357 47.8796C29.6661 47.8796 29.4164 48.0538 29.4164 48.8748V49.1634H27.3536V48.8499C27.3536 47.0138 28.3525 45.959 30.0507 45.959C31.7489 45.959 32.7029 46.8944 32.7029 48.7355V49.2331C32.7303 49.6025 32.6583 49.9726 32.4941 50.305C32.3298 50.6374 32.0795 50.9201 31.7689 51.1238C32.4282 51.4672 32.8028 52.2086 32.8028 53.2087V53.7511C32.8028 55.6219 31.8488 56.6121 30.0507 56.6121Z" fill="white"/>
<path d="M38.2051 56.5174V54.2783H40.4627L39.8983 56.5174H38.2051Z" fill="white"/>
<path d="M41.1166 56.5172L43.6989 47.9838H42.3203V49.367H40.3574V46.083H45.8366V47.8743L43.2194 56.5172H41.1166Z" fill="white"/>
<path d="M49.0449 56.6168V46.1826H54.0096V48.1679H51.1826V50.4717H53.5801V52.4571H51.1826V56.6168H49.0449Z" fill="white"/>
<path d="M60.0571 56.6168V51.7107L59.158 54.6564H57.8245L56.9104 51.7057V56.6168H54.8926V46.1826H56.8805L58.4888 51.4321L60.102 46.1826H62.0749V56.6168H60.0571Z" fill="white"/>
</svg>
