<svg width="86" height="31" viewBox="0 0 86 31" fill="none" xmlns="http://www.w3.org/2000/svg">
<g clip-path="url(#clip0_226_112944)">
<path d="M21.4582 3.39896C21.2153 1.94453 20.0227 0.172852 16.015 0.172852C14.5668 0.172852 13.1006 0.634647 12.7198 2.41602L11.7334 6.63961L10.7385 2.40887C10.3277 0.634647 8.90425 0.172852 7.46876 0.172852C3.37679 0.172852 2.24516 1.94361 2.00295 3.39803L0.194095 14.2537C-0.119695 16.1344 1.18326 17.9088 3.10341 18.2152C5.02355 18.5216 7.18152 17.6303 7.48331 15.3659L7.89061 12.9685L8.78465 16.3562C9.11645 17.7054 10.2753 18.2621 11.7468 18.2621C13.2183 18.2621 14.3301 17.7904 14.7102 16.3482L15.5645 12.9678L15.9778 15.3659C16.3641 17.5412 18.0896 18.2621 19.7853 18.2621C19.9772 18.2624 20.1688 18.2469 20.3582 18.2159C22.2779 17.9095 23.5808 16.135 23.2675 14.2544L21.4582 3.39896Z" fill="white"/>
<path d="M81.9699 0.173828H73.839C71.1532 0.173828 69.96 1.87762 69.96 3.97764C69.96 6.07765 71.2105 7.78399 73.1671 7.78399H74.0459L73.7095 15.0734C73.7095 17.0192 75.5066 18.2598 77.9049 18.2598C80.3912 18.2598 82.0978 17.0183 82.0978 15.0734L81.7614 7.78399H82.6388C84.5966 7.78399 85.8483 6.08042 85.8483 3.97764C85.8483 1.87485 84.74 0.173828 81.9692 0.173828" fill="white"/>
<path d="M36.0939 0.173828C33.6965 0.173828 32.361 1.27013 32.0155 2.8377L31.0372 7.5203L30.0598 2.8377C29.502 0.517404 27.3766 0.173828 25.9806 0.173828C24.2105 0.173828 21.1368 1.11589 22.4351 4.35839L25.2997 11.6342C24.2551 11.9778 23.7272 13.0196 23.7272 14.5982C23.7299 15.1867 23.8828 15.7647 24.1715 16.2776C24.4871 16.8444 25.7693 18.6932 29.0317 18.6932C33.6145 18.6932 35.1578 15.5731 35.7099 14.3027C35.7452 14.2138 39.6379 4.35839 39.6379 4.35839C40.9356 1.11589 37.8561 0.173828 36.0925 0.173828" fill="white"/>
<path d="M53.8262 2.81622C53.0038 1.40775 51.1478 0.173828 47.595 0.173828C44.358 0.173828 41.8382 1.66012 40.5487 4.38032C39.5096 6.57385 39.3249 10.3957 39.3164 10.509C38.1079 10.509 36.6553 11.83 36.6553 13.9681C36.6553 17.4501 38.8694 18.2607 40.8216 18.2607C43.1103 18.2607 45.1163 17.0864 45.7434 14.6093C46.0925 13.2311 46.9595 7.2206 47.595 7.2206L47.7104 7.23145C47.7104 7.23145 47.3477 14.0268 47.3477 14.7384C47.3477 16.6835 48.6853 18.2612 51.206 18.2612C52.6145 18.2612 53.6932 17.8805 54.3552 17.2039C54.6833 16.8694 54.9413 16.4728 55.1141 16.0373C55.287 15.6018 55.3711 15.1362 55.3617 14.6677C55.358 14.5154 55.2836 10.8884 55.0135 7.60227C54.9128 6.3926 54.726 4.35608 53.8265 2.81738" fill="white"/>
<path d="M66.1202 5.38967C65.6921 5.38967 64.4019 5.58662 64.4019 5.58662C64.4019 5.58662 64.7092 3.29519 64.4062 1.99847C64.1308 0.818813 62.7823 0.179688 61.3833 0.179688C57.2366 0.179688 55.4749 1.95044 55.6428 4.4349C55.6536 4.6 56.0353 10.3207 56.0443 10.4394C56.3144 14.1153 56.6492 18.6935 64.1153 18.6935C69.5975 18.6935 72.13 15.3485 72.13 12.0453C72.13 7.67117 70.0445 5.38967 66.1202 5.38967ZM65.3719 11.9338C65.3102 12.3055 64.9276 12.5503 64.5175 12.4778C64.1075 12.4053 63.8276 12.0453 63.8883 11.6735C63.9528 11.3018 64.3326 11.0587 64.7427 11.1296C65.1527 11.2004 65.4328 11.562 65.3712 11.9338" fill="white"/>
<path d="M25.2289 27.8538C25.2289 28.5174 24.979 29.0309 24.4792 29.3943C23.9794 29.7578 23.2341 29.9395 22.2434 29.9397H18.3311V22.6055H22.0799C22.9978 22.6055 23.7157 22.7713 24.2337 23.1031C24.7517 23.4348 25.0108 23.9005 25.0109 24.5002C25.0109 24.864 24.9177 25.1844 24.7313 25.4614C24.5449 25.7385 24.2791 25.954 23.9338 26.108C24.797 26.3995 25.2287 26.9814 25.2289 27.8538ZM20.2805 25.6175H21.889C22.634 25.6175 23.0067 25.3539 23.007 24.8267C23.007 24.3087 22.6343 24.0497 21.889 24.0497H20.2805V25.6175ZM23.2386 27.6896C23.2386 27.4079 23.1477 27.2012 22.9661 27.0694C22.7845 26.9376 22.4981 26.8718 22.1072 26.8718H20.2805V28.4938H22.0663C22.8478 28.4943 23.2386 28.2264 23.2386 27.6903V27.6896Z" fill="white"/>
<path d="M33.9019 27.1585H32.7977V29.9397H30.6709V22.6055H32.7977V25.4545H33.9427L35.9331 22.6055H38.1959L35.6329 26.1225L38.373 29.9397H35.8645L33.9019 27.1585Z" fill="white"/>
<path d="M39.4209 22.6055H41.5341V26.9678L45.1056 22.6055H47.0551V29.9397H44.9421V25.5774L41.384 29.9397H39.4214L39.4209 22.6055Z" fill="white"/>
<path d="M49.1006 22.6055H51.2135V25.4686H54.4034V22.6055H56.5302V29.9397H54.4034V27.1994H51.2135V29.9397H49.1006V22.6055Z" fill="white"/>
<path d="M59.9168 29.5657C59.3036 29.2424 58.8242 28.7949 58.4788 28.223C58.1334 27.6511 57.9604 27.0009 57.96 26.2724C57.96 25.5454 58.1327 24.8955 58.4781 24.3229C58.8235 23.7503 59.3029 23.3026 59.9161 22.98C60.5297 22.6577 61.2224 22.496 61.9942 22.4951C62.766 22.4942 63.4567 22.6558 64.0663 22.98C64.6751 23.3033 65.1523 23.7509 65.4978 24.3229C65.8434 24.8949 66.0161 25.5447 66.0158 26.2724C66.0158 26.9996 65.8431 27.6494 65.4978 28.2218C65.1526 28.7943 64.6754 29.2419 64.0663 29.5645C63.4573 29.8878 62.7666 30.0494 61.9942 30.0494C61.2218 30.0494 60.5293 29.8882 59.9168 29.5657ZM63.3387 27.7527C63.6883 27.3846 63.8632 26.8916 63.8636 26.2735C63.8639 25.6555 63.6893 25.1621 63.3399 24.7932C62.9898 24.4252 62.5422 24.2412 61.997 24.2412C61.4518 24.2412 61.0019 24.4252 60.6474 24.7932C60.2933 25.1613 60.1163 25.6543 60.1163 26.2724C60.1163 26.8904 60.2933 27.3835 60.6474 27.7515C61.0014 28.1196 61.4513 28.3036 61.997 28.3036C62.5427 28.3036 62.9903 28.1196 63.3399 27.7515L63.3387 27.7527Z" fill="white"/>
</g>
<defs>
<clipPath id="clip0_226_112944">
<rect width="85.7005" height="29.8752" fill="white" transform="translate(0.149414 0.173828)"/>
</clipPath>
</defs>
</svg>
