<svg width="57" height="58" viewBox="0 0 57 58" fill="none" xmlns="http://www.w3.org/2000/svg">
<path fill-rule="evenodd" clip-rule="evenodd" d="M11.0524 42.8302C18.6605 52.2245 32.4977 53.7046 41.9354 46.1303C44.1766 44.3409 46.042 42.1223 47.4233 39.6031C48.8045 37.084 49.6742 34.3144 49.9819 31.455C50.2897 28.5956 50.0292 25.7032 49.2158 22.9457C48.4023 20.1882 47.0521 17.6203 45.2432 15.391C37.6427 5.99668 23.8158 4.51915 14.3679 12.0909C12.1261 13.8797 10.2601 16.0979 8.8781 18.6168C7.49613 21.1357 6.62569 23.9052 6.31727 26.7646C6.00886 29.624 6.2686 32.5165 7.08143 35.2743C7.89426 38.0322 9.24401 40.6004 11.0524 42.8302ZM42.7852 22.4566C42.714 23.5992 42.6834 25.3861 42.6529 26.5799H42.4366C42.3857 24.6959 41.6224 23.4919 39.8132 23.4919H39.541V33.2185L36.4341 30.9179V23.5047C35.3655 23.4875 34.2971 23.5516 33.2382 23.6964L33.1898 22.4643C36.317 22.5205 39.6555 22.523 42.7852 22.4566ZM12.2 23.2235C12.9633 23.2618 13.9583 23.2695 14.8616 23.2695C15.6758 23.2695 16.5791 23.2439 17.3272 23.226V28.3718C17.7827 28.6096 21.6097 28.6275 22.1873 28.3718V23.7705C22.1873 22.4924 20.915 21.8712 20.172 21.838V21.5977C20.9226 21.636 21.9048 21.6437 22.7827 21.6437C23.6605 21.6437 24.5308 21.6232 25.2992 21.6028V26.8355C25.6007 26.4194 25.9577 26.0469 26.3603 25.7286C27.6885 24.6771 29.4035 24.1514 31.5053 24.1514C32.8308 24.1586 34.1512 24.3155 35.4417 24.6192V28.7093H35.2661C34.9735 26.8841 33.7751 25.3554 31.6555 25.3171C28.9506 25.2736 27.6631 27.4004 27.5104 29.9669C27.3577 32.5335 28.7267 34.4532 30.6046 35.1588C32.1567 35.7365 34.0957 35.5064 35.7852 34.0519L36.0829 34.3075C33.7929 37.3597 28.6453 37.3163 26.1237 34.967C25.8156 34.6844 25.5399 34.368 25.3018 34.0238V38.8296L22.1771 36.511V29.6397C21.6682 29.4301 17.9023 29.4199 17.317 29.6397V34.0442H14.2025C14.2025 30.0922 14.2153 28.676 14.2178 28.3821V25.3886C14.2178 24.1105 12.9455 23.4919 12.2 23.4586V23.2235Z" fill="white"/>
</svg>
