<svg width="114" height="26" viewBox="0 0 114 26" fill="none" xmlns="http://www.w3.org/2000/svg">
<path d="M31.4214 20.6343C30.8468 20.6492 30.2756 20.5411 29.746 20.3175C29.3165 20.1235 28.9324 19.8418 28.6183 19.4905C28.3328 19.1636 28.114 18.7842 27.9739 18.3735C27.8366 17.9761 27.7659 17.5588 27.7644 17.1384V12.0422H26.6904V9.24445H27.7644V5.85059H31.357V9.24445H33.2311V12.0422H31.357V16.8753C31.3435 16.9741 31.3532 17.0747 31.3852 17.1692C31.4172 17.2637 31.4707 17.3495 31.5415 17.4198C31.6123 17.49 31.6985 17.5429 31.7932 17.5742C31.8879 17.6056 31.9886 17.6145 32.0873 17.6002H33.2311V20.6182L31.4214 20.6343Z" fill="white"/>
<path d="M41.1831 20.6346V19.668C40.8608 20.0036 40.4806 20.2783 40.0607 20.4789C39.5791 20.6756 39.0609 20.7672 38.541 20.7474C37.9913 20.7556 37.4449 20.6608 36.93 20.4681C36.4711 20.2987 36.0537 20.0332 35.7056 19.6895C35.3693 19.3406 35.1128 18.9229 34.9538 18.4651C34.774 17.9677 34.6848 17.4421 34.6907 16.9132C34.6897 16.4732 34.768 16.0366 34.9216 15.6244C35.0734 15.2056 35.3218 14.8284 35.6466 14.5235C36.0107 14.1884 36.4378 13.9292 36.9032 13.761C37.4849 13.56 38.0976 13.4637 38.7129 13.4763H41.1186V13.1649C41.1423 12.9524 41.1168 12.7373 41.0442 12.5362C40.9716 12.3351 40.8538 12.1533 40.6998 12.0049C40.2851 11.7453 39.7955 11.6319 39.3089 11.6827C38.9421 11.6672 38.5761 11.7294 38.2349 11.8653C37.9305 12.0313 37.6549 12.2452 37.4187 12.499L35.1686 10.2382C35.443 9.95436 35.7452 9.69889 36.0708 9.47566C36.3694 9.27442 36.6924 9.11201 37.032 8.99236C37.3916 8.86331 37.7644 8.77504 38.1436 8.72922C38.5889 8.67251 39.0374 8.6456 39.4862 8.64867C41.1885 8.64867 42.488 9.0031 43.3741 9.72268C44.2601 10.4423 44.7058 11.5055 44.7058 12.9447V20.6346H41.1831ZM41.0972 15.8767H39.2499C38.9478 15.8589 38.6497 15.9525 38.4121 16.1399C38.313 16.2232 38.234 16.3278 38.181 16.4458C38.128 16.5639 38.1024 16.6925 38.1061 16.8219C38.1048 16.9523 38.1303 17.0815 38.1811 17.2016C38.2319 17.3217 38.3069 17.4301 38.4014 17.52C38.6478 17.7325 38.9683 17.8387 39.2928 17.8153C39.5705 17.8219 39.8479 17.7967 40.1198 17.7402C40.3483 17.6685 40.5563 17.5433 40.7266 17.375C40.8618 17.2097 40.9627 17.0192 41.0235 16.8145C41.0844 16.6098 41.1039 16.3951 41.0811 16.1828L41.0972 15.8767Z" fill="white"/>
<path d="M51.1631 20.6343C50.5867 20.6496 50.0136 20.5416 49.4823 20.3175C49.0605 20.121 48.6839 19.8394 48.3761 19.4905C48.0907 19.1636 47.8718 18.7842 47.7317 18.3735C47.5944 17.9761 47.5237 17.5588 47.5223 17.1384V12.0422H46.4482V9.24445H47.5223V5.85059H51.1148V9.24445H52.9889V12.0422H51.0933V16.8753C51.0798 16.9741 51.0895 17.0747 51.1215 17.1692C51.1535 17.2637 51.207 17.3495 51.2778 17.4198C51.3486 17.49 51.4348 17.5429 51.5295 17.5742C51.6242 17.6056 51.7249 17.6145 51.8237 17.6002H52.9675V20.6182L51.1631 20.6343Z" fill="white"/>
<path d="M55.2373 7.56928V4.81445H58.8245V7.56928H55.2373ZM55.2373 20.6346V9.24474H58.8245V20.6346H55.2373Z" fill="white"/>
<path d="M71.3662 14.7053C71.3706 15.2217 71.3472 15.738 71.2964 16.2519C71.2606 16.6528 71.1905 17.0498 71.0869 17.4387C70.9994 17.7784 70.8676 18.1052 70.6949 18.4107C70.5171 18.7123 70.3064 18.9932 70.0666 19.2484C69.251 19.9981 68.2349 20.4942 67.1421 20.6764C66.0494 20.8585 64.9272 20.7187 63.9125 20.2741C63.3714 20.0131 62.8805 19.6586 62.4626 19.2269C62.2212 18.9731 62.0104 18.692 61.8343 18.3892C61.6621 18.0829 61.5287 17.7564 61.437 17.4172C61.3385 17.0272 61.2685 16.6306 61.2275 16.2304C61.1846 15.7901 61.1631 15.2746 61.1631 14.6838C61.1631 14.0931 61.1846 13.583 61.2275 13.1534C61.2681 12.7497 61.3381 12.3494 61.437 11.9559C61.5287 11.6167 61.6621 11.2902 61.8343 10.9839C62.0104 10.6811 62.2212 10.3999 62.4626 10.1462C62.6524 9.94739 62.861 9.76754 63.0856 9.60916C63.3465 9.42248 63.6232 9.25897 63.9125 9.12049C64.2458 8.96576 64.5952 8.84869 64.9543 8.77143C65.3846 8.67693 65.8242 8.63189 66.2646 8.63718C66.7033 8.63159 67.1412 8.67664 67.5695 8.77143C67.9398 8.84589 68.3002 8.96302 68.6436 9.12049C68.9312 9.25898 69.2062 9.4225 69.4652 9.60916C69.6903 9.76893 69.9006 9.94866 70.0935 10.1462C70.3332 10.4013 70.5439 10.6823 70.7218 10.9839C70.8944 11.2893 71.0262 11.6161 71.1138 11.9559C71.2178 12.3483 71.2879 12.7489 71.3232 13.1534C71.3651 13.6696 71.3795 14.1876 71.3662 14.7053ZM67.7736 14.7053C67.7782 14.2008 67.7477 13.6966 67.6823 13.1963C67.6469 12.831 67.4922 12.4875 67.242 12.219C66.9612 12.0047 66.6178 11.8887 66.2646 11.8887C65.9114 11.8887 65.568 12.0047 65.2873 12.219C65.0355 12.487 64.8788 12.8305 64.8416 13.1963C64.7782 13.6968 64.7495 14.201 64.7556 14.7053C64.7495 15.2115 64.7782 15.7175 64.8416 16.2197C64.88 16.5852 65.0365 16.9283 65.2873 17.197C65.568 17.4113 65.9114 17.5274 66.2646 17.5274C66.6178 17.5274 66.9612 17.4113 67.242 17.197C67.4912 16.9278 67.6458 16.5847 67.6823 16.2197C67.7477 15.7176 67.7782 15.2116 67.7736 14.7053Z" fill="white"/>
<path d="M80.2214 20.6343V13.5243C80.2311 13.2388 80.1779 12.9546 80.0656 12.692C79.9774 12.4992 79.8449 12.3299 79.679 12.1979C79.5337 12.0858 79.3676 12.0037 79.1903 11.9563C78.9078 11.8632 78.6029 11.8632 78.3204 11.9563C78.1443 12.0027 77.9798 12.0849 77.8371 12.1979C77.6695 12.3296 77.5352 12.4988 77.4451 12.692C77.3328 12.9546 77.2796 13.2388 77.2893 13.5243V20.6343H73.7021V8.78257H77.2195V9.74381C77.585 9.37784 78.027 9.09726 78.5137 8.92219C79.4674 8.5637 80.5189 8.5637 81.4726 8.92219C81.9049 9.09094 82.2979 9.34685 82.6272 9.674C83.0919 10.1133 83.4296 10.6699 83.6045 11.285C83.7473 11.8703 83.8177 12.4708 83.8139 13.0732V20.6343H80.2214Z" fill="white"/>
<path d="M86.3467 20.634V16.6924H90.2883V20.634H86.3467Z" fill="white"/>
<path d="M99.2795 12.5252C99.1184 12.3579 98.9381 12.2101 98.7425 12.0849C98.5151 11.9573 98.2566 11.8959 97.9961 11.9077C97.8506 11.9136 97.7064 11.9371 97.5665 11.9775C97.3888 12.0238 97.2225 12.106 97.0778 12.2191C96.9151 12.3529 96.7847 12.5218 96.6965 12.7132C96.5817 12.9732 96.5284 13.2562 96.5408 13.5402V20.634H92.9482V8.7823H96.4549V9.74891C96.7832 9.43843 97.1606 9.18439 97.5718 8.9971C98.0927 8.75414 98.662 8.63294 99.2366 8.64268C99.7536 8.63111 100.268 8.71297 100.756 8.88433C101.229 9.07951 101.656 9.37229 102.007 9.74354L99.2795 12.5252Z" fill="white"/>
<path d="M109.884 20.6339V19.6727C109.516 20.0377 109.072 20.318 108.585 20.4943C108.121 20.6702 107.63 20.7629 107.135 20.7682C106.619 20.7748 106.107 20.6837 105.626 20.4997C105.191 20.33 104.798 20.0701 104.471 19.7371C104.006 19.2983 103.668 18.7416 103.494 18.1261C103.351 17.5427 103.28 16.9439 103.284 16.3432V8.78223H106.877V15.8922C106.867 16.176 106.92 16.4585 107.033 16.7191C107.119 16.9143 107.252 17.0857 107.419 17.2186C107.565 17.3307 107.731 17.4128 107.908 17.4602C108.19 17.5532 108.495 17.5532 108.778 17.4602C108.953 17.4127 109.118 17.3305 109.261 17.2186C109.429 17.0845 109.563 16.9136 109.653 16.7191C109.766 16.4585 109.819 16.176 109.809 15.8922V8.78223H113.396V20.6339H109.884Z" fill="white"/>
<path d="M24.4997 7.11816L22.9531 8.66474C22.7171 8.41891 22.4364 8.22026 22.1261 8.0794C21.8527 7.95253 21.5664 7.85531 21.2723 7.78942C21.0153 7.72912 20.7522 7.69849 20.4883 7.69813H19.8439C19.5376 7.6898 19.2323 7.73524 18.9417 7.83238C18.7199 7.91577 18.5145 8.03756 18.3349 8.19217C18.1863 8.31855 18.0671 8.47577 17.9855 8.65291C17.9039 8.83004 17.8618 9.02282 17.8623 9.21785C17.8649 9.34437 17.8885 9.46958 17.9321 9.58838C17.984 9.73723 18.0705 9.8716 18.1845 9.9804C18.3098 10.1001 18.453 10.1998 18.6087 10.2757C18.8292 10.3824 19.0679 10.4462 19.3122 10.4637L21.2938 10.7376C22.4864 10.8301 23.617 11.3068 24.5158 12.0962C24.9584 12.522 25.2839 13.0546 25.4609 13.6428C25.6549 14.3071 25.749 14.9967 25.7402 15.6888C25.9107 14.8419 25.997 13.9803 25.9979 13.1165C26.004 11.0237 25.4892 8.96229 24.4997 7.11816Z" fill="white"/>
<path d="M23.8636 19.5333C23.2569 19.9837 22.5724 20.3187 21.8445 20.5214C21.0501 20.7487 20.2273 20.8608 19.4011 20.8543C18.8017 20.857 18.2027 20.8229 17.6075 20.7523C17.0524 20.6866 16.5043 20.5716 15.9696 20.4086C15.4518 20.2461 14.9558 20.0207 14.4929 19.7374C14.0095 19.4404 13.5687 19.0791 13.1826 18.6634L15.7602 16.0804C16.2206 16.527 16.7944 16.839 17.4195 16.9825C18.0764 17.1473 18.7507 17.2321 19.4279 17.2349C20.9888 17.2349 21.7711 16.7427 21.7746 15.7582C21.7961 15.4064 21.6807 15.06 21.4524 14.7916C21.1519 14.5319 20.7748 14.3773 20.3784 14.3512L18.3969 14.0773C17.1649 13.9805 15.9998 13.4782 15.0836 12.6489C14.6861 12.2026 14.3812 11.6818 14.1867 11.1167C13.9922 10.5516 13.9119 9.95348 13.9505 9.35708C13.9429 8.64264 14.0856 7.93459 14.3694 7.27887C14.6443 6.66263 15.0491 6.11308 15.5561 5.66786C16.105 5.19131 16.7416 4.82648 17.4303 4.59385C18.2407 4.30667 19.0945 4.16135 19.9542 4.16425C20.8594 4.15496 21.7619 4.26327 22.6392 4.48645C20.7973 2.49424 18.366 1.14397 15.7013 0.633319C13.0366 0.122671 10.2784 0.478463 7.83043 1.64861C5.38252 2.81876 3.37347 4.7418 2.09741 7.13621C0.821348 9.53062 0.345295 12.2706 0.738942 14.9552C1.13259 17.6397 2.37526 20.1277 4.28503 22.0549C6.19481 23.9822 8.67138 25.2475 11.3522 25.6655C14.033 26.0836 16.7773 25.6326 19.1832 24.3784C21.5891 23.1242 23.5304 21.1327 24.7228 18.6956C24.4712 19.0084 24.1827 19.2897 23.8636 19.5333Z" fill="white"/>
</svg>
