<svg width="335" height="153" viewBox="0 0 335 153" fill="none" xmlns="http://www.w3.org/2000/svg">
<path d="M151.966 0.416305H142.89L136.523 37.0322H146.911L151.896 8.36436H181.507C183.103 8.36436 186.454 8.56852 186.454 11.3669C186.454 15.2131 183.27 15.2131 181.26 15.2131H167.524L166.587 21.6331C166.587 21.6331 178.747 21.6324 179.919 21.6331C184.343 21.6353 185.795 22.0963 185.616 24.3707C185.464 26.3082 184.611 27.4506 182.09 27.6555H153.406L152.105 36.8478C152.105 36.8478 183.919 36.9812 185.12 36.8106C191.769 35.8665 195.358 31.6328 195.376 24.7108C195.386 21.0363 194 19.394 190.304 18.7011L189.031 18.4623L190.374 18.1258C194.966 16.9755 197.486 13.3853 197.511 7.96014C197.534 3.07175 195.072 0.930922 188.903 0.496291C186.393 0.319371 153.07 0.413147 151.966 0.416305Z" fill="white"/>
<path d="M289.834 37.0323L281.184 28.1298C285.544 27.9925 289.89 25.592 291.616 21.4246C293.46 16.9679 294.321 12.1443 294.139 7.30226C294.112 1.83333 289.261 0.416386 284.109 0.416386H205.387L203.949 9.11354H278.017C282.211 8.85555 282.894 10.9856 282.894 13.7233C282.894 17.2867 281.706 18.6732 278.02 19.0696C278.027 19.0696 278.017 19.0699 272.379 19.0668L268.722 15.3023H253.977L275.089 37.0323H289.834Z" fill="white"/>
<path d="M92.489 0.730853L107.272 20.9209L113.601 13.0502L104.591 0.730853H92.489Z" fill="white"/>
<path d="M265.412 79.7745H277.411L282.667 72.491H297.238L298.244 65.3649H287.81L297.905 51.3772H306.142L301.26 79.7376H312.065C314.394 67.7768 316.361 55.5482 318.244 43.5065H291.206C291.206 43.5065 273.748 68.095 265.412 79.7745Z" fill="white"/>
<path d="M174.789 66.3932C175.171 63.9997 178.619 43.5342 178.619 43.5342H189.448L189.365 43.9818C188.197 49.6573 185.827 64.9191 185.873 66.4663C185.997 70.5856 187.275 71.4119 193.936 71.6767C201.801 71.9896 205.298 71.4841 207.22 69.7572C208.923 68.2257 209.421 66.7436 210.571 59.7758L212.89 43.5342H258.012C263.164 43.5342 268.015 44.9511 268.042 50.4201C268.224 55.2621 267.363 60.0857 265.519 64.5424C263.793 68.7099 259.447 71.1104 255.087 71.2477L263.737 80.1501H248.992L227.88 58.4201H242.625L246.282 62.1846C251.92 62.1877 251.93 62.1874 251.923 62.1874C255.609 61.791 256.797 60.4045 256.797 56.8411C256.797 54.1035 256.114 51.9734 251.92 52.2314H222.428L221.131 61.1651C218.952 74.0251 216.374 77.9883 209.06 79.7228C207.262 80.1491 185.321 80.3232 182.719 79.9319C178.263 79.2614 175.849 77.3929 174.867 73.8515C174.549 72.7067 174.502 68.1924 174.789 66.3932Z" fill="white"/>
<path d="M16.043 43.6741C8.72654 44.1966 5.45584 46.5243 3.81197 52.3791C2.26019 57.9053 3.0345 61.9426 5.98585 63.7149C8.29993 65.1045 9.52435 65.2401 20.912 65.3686C32.0117 65.4939 32.5146 65.5471 33.9053 66.7446C35.0448 67.7258 34.7088 69.7173 33.2961 70.3555C32.1542 70.8715 30.8132 70.9149 15.8938 70.9195L1.20905 70.924L0.562613 75.3201C0.207031 77.7379 -0.0432947 79.7417 0.00625486 79.7731C0.246699 79.9248 33.8114 79.8616 35.0179 79.7072C40.3933 79.019 43.1832 76.4994 44.676 70.9851C46.5983 63.8834 45.4501 59.9352 40.9843 58.2923C38.7309 57.4633 38.2512 57.4315 26.4971 57.3372C16.0582 57.2534 15.6655 57.2404 15.1214 56.958C12.9176 55.8143 14.0781 53.1934 15.8282 52.4245C16.5965 52.087 31.149 52.3514 31.149 52.3514L60.8793 52.2783L67.365 43.577L32.1895 43.6026C23.6634 43.6166 16.3974 43.6488 16.043 43.6741Z" fill="white"/>
<path d="M328.97 79.0775C328.912 79.3773 328.821 79.8452 328.821 79.8452H318.015L324.252 43.6141L334.999 43.8021C334.999 43.8021 331.629 65.3596 328.97 79.0775Z" fill="white"/>
<path d="M107.478 43.577L100.699 79.845C100.699 79.845 111.44 80.0051 111.44 79.845C111.44 79.845 116.486 53.4323 116.558 53.3579C116.558 53.3595 137.536 77.7729 137.536 77.7729L162.275 53.2792L157.739 79.845H168.479L174.637 43.577H159.016L138.481 62.8308L123.149 43.577H107.478Z" fill="white"/>
<path d="M59.9273 79.7745H47.9289L73.7232 43.5065H100.76C98.878 55.5482 96.9106 67.7768 94.5821 79.7376H83.7763L88.6586 51.3772H80.4215L70.3266 65.3649H80.7604L79.755 72.491H65.1838L59.9273 79.7745Z" fill="white"/>
<path d="M198.684 37.0127C198.685 37.0127 202.407 15.3895 202.407 15.3895H246.692L245.422 22.5156H212.246L211.129 27.8685H244.365L242.937 37.0319L198.684 37.0127Z" fill="white"/>
<path d="M115.211 36.9989L140.074 0.730853H127.052L107.564 28.0721L89.6143 28.0083C87.8412 27.9986 86.0757 27.9901 84.3358 27.9818C70.3013 27.9144 57.9298 27.855 56.6223 27.2169C54.6091 26.2341 54.1682 23.6121 55.131 18.3507C56.2288 12.3522 57.3215 10.6162 60.6294 9.61482C61.4325 9.37175 62.8322 9.30947 62.8322 9.30947L85.1511 9.26667L86.7598 0.416386H59.7627C49.6666 1.038 46.1347 5.38273 43.8804 19.7527C42.071 31.2867 43.8481 35.2374 51.4959 36.6818C53.9148 37.1389 59.7627 37.0321 59.7627 37.0321C74.6319 37.0321 115.211 36.9989 115.211 36.9989Z" fill="white"/>
<g filter="url(#filter0_b_472_9165)">
<rect y="92.1504" width="335" height="60" rx="8" fill="#E2394F"/>
<path d="M31.0921 135.15V112.83H48.5821C54.9722 112.83 56.7421 115.44 56.7421 118.08V118.35C56.7421 121.26 54.1921 122.58 52.5121 122.82C54.9421 123.21 57.9122 124.59 57.9122 128.34V128.64C57.9122 132 55.8721 135.15 48.6421 135.15H31.0921ZM46.9621 117.78H38.2621V121.38H46.9621C48.7621 121.38 49.3022 120.6 49.3022 119.61V119.55C49.3022 118.5 48.7621 117.78 46.9621 117.78ZM47.5321 126H38.2621V129.96H47.5321C49.6921 129.96 50.1721 128.91 50.1721 127.95V127.83C50.1721 126.84 49.6921 126 47.5321 126ZM81.2011 135.15V120.93L69.1411 135.15H61.9711V112.83H69.1411V127.05L81.2011 112.83H88.3411V135.15H81.2011ZM110.712 135.15L100.752 124.92V135.15H93.6117V112.83H100.752V121.74L110.562 112.83H119.262L107.952 122.97L119.892 135.15H110.712ZM129.384 135.15V118.47H120.594V112.83H145.314V118.47H136.524V135.15H129.384ZM161.473 112.47H162.823C173.983 112.47 176.713 118.74 176.713 123.48V124.38C176.713 129.06 174.013 135.51 162.823 135.51H161.473C150.313 135.51 147.583 129.06 147.583 124.38V123.48C147.583 118.74 150.313 112.47 161.473 112.47ZM169.243 124.11V123.72C169.243 121.29 168.103 118.05 162.163 118.05C156.193 118.05 155.053 121.29 155.053 123.72V124.11C155.053 126.54 156.313 129.87 162.163 129.87C168.103 129.87 169.243 126.54 169.243 124.11ZM196.724 128.25H188.174V135.15H181.004V112.83H196.724C204.404 112.83 206.594 115.92 206.594 120.3V120.66C206.594 125.01 204.344 128.25 196.724 128.25ZM188.174 118.2V122.91H196.124C198.374 122.91 199.154 121.98 199.154 120.57V120.48C199.154 119.16 198.374 118.2 196.124 118.2H188.174ZM229.941 135.15V120.93L217.881 135.15H210.711V112.83H217.881V127.05L229.941 112.83H237.081V135.15H229.941ZM242.352 135.15V112.83H249.522V120.9H261.372V112.83H268.542V135.15H261.372V126.45H249.522V135.15H242.352ZM280.987 112.83V119.76H289.687C297.247 119.76 299.437 122.85 299.437 127.26V127.59C299.437 131.82 297.127 135.15 289.687 135.15H273.817V112.83H280.987ZM280.987 129.84H289.087C291.007 129.84 291.967 128.94 291.967 127.53V127.32C291.967 125.97 291.007 125.07 289.087 125.07H280.987V129.84ZM308.917 112.83V135.15H301.747V112.83H308.917Z" fill="white"/>
</g>
<defs>
<filter id="filter0_b_472_9165" x="-10" y="82.1504" width="355" height="80" filterUnits="userSpaceOnUse" color-interpolation-filters="sRGB">
<feFlood flood-opacity="0" result="BackgroundImageFix"/>
<feGaussianBlur in="BackgroundImageFix" stdDeviation="5"/>
<feComposite in2="SourceAlpha" operator="in" result="effect1_backgroundBlur_472_9165"/>
<feBlend mode="normal" in="SourceGraphic" in2="effect1_backgroundBlur_472_9165" result="shape"/>
</filter>
</defs>
</svg>
